<mxfile host="app.diagrams.net" agent="Mozilla/5.0 (Windows NT 10.0; Win64; x64) AppleWebKit/537.36 (KHTML, like Gecko) Chrome/129.0.0.0 Safari/537.36" version="24.7.17" pages="4">
  <diagram name="Task1" id="I4p7r7ri7yD7P8vL2vun">
    <mxGraphModel grid="1" page="1" gridSize="10" guides="1" tooltips="1" connect="1" arrows="1" fold="1" pageScale="1" pageWidth="850" pageHeight="1100" math="0" shadow="0">
      <root>
        <mxCell id="0" />
        <mxCell id="1" parent="0" />
        <mxCell id="twM7COTh97j32GJJhoqv-55" value="" style="endArrow=none;html=1;rounded=0;align=center;verticalAlign=top;endFill=0;labelBackgroundColor=none;endSize=6;startArrow=none;startFill=0;dashed=1;" edge="1" parent="1" target="twM7COTh97j32GJJhoqv-40">
          <mxGeometry relative="1" as="geometry">
            <mxPoint x="115" y="2500" as="sourcePoint" />
            <mxPoint x="115" y="1450" as="targetPoint" />
          </mxGeometry>
        </mxCell>
        <mxCell id="twM7COTh97j32GJJhoqv-56" value="" style="html=1;points=[[0,0,0,0,5],[0,1,0,0,-5],[1,0,0,0,5],[1,1,0,0,-5]];perimeter=orthogonalPerimeter;outlineConnect=0;targetShapes=umlLifeline;portConstraint=eastwest;newEdgeStyle={&quot;curved&quot;:0,&quot;rounded&quot;:0};" vertex="1" parent="1">
          <mxGeometry x="110" y="1540" width="10" height="910" as="geometry" />
        </mxCell>
        <mxCell id="8ykmIyS00QSg9AjOTAIW-1" value="Salesman" style="shape=umlActor;verticalLabelPosition=bottom;verticalAlign=top;html=1;" vertex="1" parent="1">
          <mxGeometry x="190" y="660" width="30" height="60" as="geometry" />
        </mxCell>
        <mxCell id="1hkVWttehedhRR9f8vAL-1" value="1a" style="text;html=1;align=center;verticalAlign=middle;whiteSpace=wrap;rounded=0;fontSize=20;" vertex="1" parent="1">
          <mxGeometry x="60" y="110" width="60" height="30" as="geometry" />
        </mxCell>
        <mxCell id="1hkVWttehedhRR9f8vAL-3" value="" style="shape=ellipse;container=1;horizontal=1;horizontalStack=0;resizeParent=1;resizeParentMax=0;resizeLast=0;html=1;dashed=1;collapsible=0;" vertex="1" parent="1">
          <mxGeometry x="210" y="160" width="370" height="160" as="geometry" />
        </mxCell>
        <mxCell id="1hkVWttehedhRR9f8vAL-4" value="Sale" style="html=1;strokeColor=none;fillColor=none;align=center;verticalAlign=middle;spacingLeft=4;spacingRight=4;rotatable=0;points=[[0,0.5],[1,0.5]];resizeWidth=1;whiteSpace=wrap;" vertex="1" parent="1hkVWttehedhRR9f8vAL-3">
          <mxGeometry width="370" height="20.869565217391305" as="geometry" />
        </mxCell>
        <mxCell id="1hkVWttehedhRR9f8vAL-5" value="" style="line;strokeWidth=1;fillColor=none;rotatable=0;labelPosition=right;points=[];portConstraint=eastwest;dashed=1;resizeWidth=1;" vertex="1" parent="1hkVWttehedhRR9f8vAL-3">
          <mxGeometry x="53.44444444444444" y="20.869565217391305" width="263.1111111111111" height="5.565217391304348" as="geometry" />
        </mxCell>
        <mxCell id="1hkVWttehedhRR9f8vAL-6" value="Salesman" style="html=1;align=center;verticalAlign=middle;rotatable=0;whiteSpace=wrap;" vertex="1" parent="1hkVWttehedhRR9f8vAL-3">
          <mxGeometry width="100" height="30" relative="1" as="geometry">
            <mxPoint x="40" y="60" as="offset" />
          </mxGeometry>
        </mxCell>
        <mxCell id="1hkVWttehedhRR9f8vAL-9" value="Customer" style="html=1;align=center;verticalAlign=middle;rotatable=0;whiteSpace=wrap;" vertex="1" parent="1hkVWttehedhRR9f8vAL-3">
          <mxGeometry width="100" height="30" relative="1" as="geometry">
            <mxPoint x="240" y="60" as="offset" />
          </mxGeometry>
        </mxCell>
        <mxCell id="1hkVWttehedhRR9f8vAL-14" style="edgeStyle=orthogonalEdgeStyle;rounded=0;orthogonalLoop=1;jettySize=auto;html=1;exitX=1;exitY=0.5;exitDx=0;exitDy=0;endArrow=none;endFill=0;" edge="1" parent="1" source="1hkVWttehedhRR9f8vAL-6" target="1hkVWttehedhRR9f8vAL-9">
          <mxGeometry relative="1" as="geometry" />
        </mxCell>
        <mxCell id="1hkVWttehedhRR9f8vAL-13" value="1b" style="text;html=1;align=center;verticalAlign=middle;whiteSpace=wrap;rounded=0;fontSize=20;" vertex="1" parent="1">
          <mxGeometry x="60" y="360" width="60" height="30" as="geometry" />
        </mxCell>
        <mxCell id="1hkVWttehedhRR9f8vAL-15" value="" style="shape=ellipse;container=1;horizontal=1;horizontalStack=0;resizeParent=1;resizeParentMax=0;resizeLast=0;html=1;dashed=1;collapsible=0;" vertex="1" parent="1">
          <mxGeometry x="130" y="370" width="530" height="240" as="geometry" />
        </mxCell>
        <mxCell id="1hkVWttehedhRR9f8vAL-16" value="BrokeredSale" style="html=1;strokeColor=none;fillColor=none;align=center;verticalAlign=middle;spacingLeft=4;spacingRight=4;rotatable=0;points=[[0,0.5],[1,0.5]];resizeWidth=1;whiteSpace=wrap;" vertex="1" parent="1hkVWttehedhRR9f8vAL-15">
          <mxGeometry width="530" height="31.304347826086957" as="geometry" />
        </mxCell>
        <mxCell id="1hkVWttehedhRR9f8vAL-17" value="" style="line;strokeWidth=1;fillColor=none;rotatable=0;labelPosition=right;points=[];portConstraint=eastwest;dashed=1;resizeWidth=1;" vertex="1" parent="1hkVWttehedhRR9f8vAL-15">
          <mxGeometry x="76.55555555555556" y="31.304347826086957" width="376.88888888888886" height="8.347826086956522" as="geometry" />
        </mxCell>
        <mxCell id="1hkVWttehedhRR9f8vAL-31" style="rounded=0;orthogonalLoop=1;jettySize=auto;html=1;exitX=0.5;exitY=1;exitDx=0;exitDy=0;endArrow=none;endFill=0;" edge="1" parent="1hkVWttehedhRR9f8vAL-15" source="1hkVWttehedhRR9f8vAL-18" target="1hkVWttehedhRR9f8vAL-27">
          <mxGeometry relative="1" as="geometry" />
        </mxCell>
        <mxCell id="1hkVWttehedhRR9f8vAL-35" value="Salesman" style="edgeLabel;html=1;align=center;verticalAlign=middle;resizable=0;points=[];" vertex="1" connectable="0" parent="1hkVWttehedhRR9f8vAL-31">
          <mxGeometry x="-0.0409" y="2" relative="1" as="geometry">
            <mxPoint as="offset" />
          </mxGeometry>
        </mxCell>
        <mxCell id="1hkVWttehedhRR9f8vAL-18" value="Salesman" style="html=1;align=center;verticalAlign=middle;rotatable=0;whiteSpace=wrap;" vertex="1" parent="1hkVWttehedhRR9f8vAL-15">
          <mxGeometry width="100" height="30" relative="1" as="geometry">
            <mxPoint x="40" y="60" as="offset" />
          </mxGeometry>
        </mxCell>
        <mxCell id="1hkVWttehedhRR9f8vAL-19" value="Customer" style="html=1;align=center;verticalAlign=middle;rotatable=0;whiteSpace=wrap;" vertex="1" parent="1hkVWttehedhRR9f8vAL-15">
          <mxGeometry width="100" height="30" relative="1" as="geometry">
            <mxPoint x="380" y="60" as="offset" />
          </mxGeometry>
        </mxCell>
        <mxCell id="1hkVWttehedhRR9f8vAL-26" value="Broker" style="html=1;align=center;verticalAlign=middle;rotatable=0;whiteSpace=wrap;" vertex="1" parent="1hkVWttehedhRR9f8vAL-15">
          <mxGeometry x="215" y="200" width="100" height="30" as="geometry" />
        </mxCell>
        <mxCell id="1hkVWttehedhRR9f8vAL-27" value="Sale" style="ellipse;html=1;whiteSpace=wrap;dashed=1;" vertex="1" parent="1hkVWttehedhRR9f8vAL-15">
          <mxGeometry x="100" y="130" width="100" height="45" as="geometry" />
        </mxCell>
        <mxCell id="1hkVWttehedhRR9f8vAL-29" value="Sale" style="ellipse;html=1;whiteSpace=wrap;dashed=1;" vertex="1" parent="1hkVWttehedhRR9f8vAL-15">
          <mxGeometry x="320" y="130" width="100" height="45" as="geometry" />
        </mxCell>
        <mxCell id="1hkVWttehedhRR9f8vAL-32" style="rounded=0;orthogonalLoop=1;jettySize=auto;html=1;endArrow=none;endFill=0;" edge="1" parent="1hkVWttehedhRR9f8vAL-15" source="1hkVWttehedhRR9f8vAL-27" target="1hkVWttehedhRR9f8vAL-26">
          <mxGeometry relative="1" as="geometry">
            <mxPoint x="100" y="100" as="sourcePoint" />
            <mxPoint x="130" y="132" as="targetPoint" />
          </mxGeometry>
        </mxCell>
        <mxCell id="1hkVWttehedhRR9f8vAL-36" value="Customers" style="edgeLabel;html=1;align=center;verticalAlign=middle;resizable=0;points=[];" vertex="1" connectable="0" parent="1hkVWttehedhRR9f8vAL-32">
          <mxGeometry x="-0.1253" y="1" relative="1" as="geometry">
            <mxPoint as="offset" />
          </mxGeometry>
        </mxCell>
        <mxCell id="1hkVWttehedhRR9f8vAL-33" style="rounded=0;orthogonalLoop=1;jettySize=auto;html=1;endArrow=none;endFill=0;" edge="1" parent="1hkVWttehedhRR9f8vAL-15" source="1hkVWttehedhRR9f8vAL-26" target="1hkVWttehedhRR9f8vAL-29">
          <mxGeometry relative="1" as="geometry">
            <mxPoint x="110" y="110" as="sourcePoint" />
            <mxPoint x="140" y="142" as="targetPoint" />
          </mxGeometry>
        </mxCell>
        <mxCell id="1hkVWttehedhRR9f8vAL-37" value="Salesman" style="edgeLabel;html=1;align=center;verticalAlign=middle;resizable=0;points=[];" vertex="1" connectable="0" parent="1hkVWttehedhRR9f8vAL-33">
          <mxGeometry x="-0.0946" relative="1" as="geometry">
            <mxPoint as="offset" />
          </mxGeometry>
        </mxCell>
        <mxCell id="1hkVWttehedhRR9f8vAL-34" style="rounded=0;orthogonalLoop=1;jettySize=auto;html=1;endArrow=none;endFill=0;" edge="1" parent="1hkVWttehedhRR9f8vAL-15" source="1hkVWttehedhRR9f8vAL-29" target="1hkVWttehedhRR9f8vAL-19">
          <mxGeometry relative="1" as="geometry">
            <mxPoint x="120" y="120" as="sourcePoint" />
            <mxPoint x="150" y="152" as="targetPoint" />
          </mxGeometry>
        </mxCell>
        <mxCell id="1hkVWttehedhRR9f8vAL-38" value="Customers" style="edgeLabel;html=1;align=center;verticalAlign=middle;resizable=0;points=[];" vertex="1" connectable="0" parent="1hkVWttehedhRR9f8vAL-34">
          <mxGeometry x="-0.1022" y="-1" relative="1" as="geometry">
            <mxPoint as="offset" />
          </mxGeometry>
        </mxCell>
        <mxCell id="1hkVWttehedhRR9f8vAL-39" value="1c" style="text;html=1;align=center;verticalAlign=middle;whiteSpace=wrap;rounded=0;fontSize=20;" vertex="1" parent="1">
          <mxGeometry x="60" y="660" width="60" height="30" as="geometry" />
        </mxCell>
        <mxCell id="8ykmIyS00QSg9AjOTAIW-3" value="Broker" style="shape=umlActor;verticalLabelPosition=bottom;verticalAlign=top;html=1;" vertex="1" parent="1">
          <mxGeometry x="410" y="660" width="30" height="60" as="geometry" />
        </mxCell>
        <mxCell id="8ykmIyS00QSg9AjOTAIW-4" value="Customer" style="shape=umlActor;verticalLabelPosition=bottom;verticalAlign=top;html=1;" vertex="1" parent="1">
          <mxGeometry x="630" y="660" width="30" height="60" as="geometry" />
        </mxCell>
        <mxCell id="8ykmIyS00QSg9AjOTAIW-5" value="" style="endArrow=none;html=1;rounded=0;align=center;verticalAlign=top;endFill=0;labelBackgroundColor=none;endSize=6;startArrow=none;startFill=0;dashed=1;" edge="1" parent="1" source="8ykmIyS00QSg9AjOTAIW-6" target="8ykmIyS00QSg9AjOTAIW-1">
          <mxGeometry relative="1" as="geometry">
            <mxPoint x="210" y="1300" as="sourcePoint" />
            <mxPoint x="500" y="1030" as="targetPoint" />
          </mxGeometry>
        </mxCell>
        <mxCell id="8ykmIyS00QSg9AjOTAIW-6" value="" style="html=1;points=[[0,0,0,0,5],[0,1,0,0,-5],[1,0,0,0,5],[1,1,0,0,-5]];perimeter=orthogonalPerimeter;outlineConnect=0;targetShapes=umlLifeline;portConstraint=eastwest;newEdgeStyle={&quot;curved&quot;:0,&quot;rounded&quot;:0};" vertex="1" parent="1">
          <mxGeometry x="200" y="760" width="10" height="80" as="geometry" />
        </mxCell>
        <mxCell id="8ykmIyS00QSg9AjOTAIW-8" value="" style="endArrow=none;html=1;rounded=0;align=center;verticalAlign=top;endFill=0;labelBackgroundColor=none;endSize=6;startArrow=none;startFill=0;dashed=1;" edge="1" parent="1" source="8ykmIyS00QSg9AjOTAIW-9" target="8ykmIyS00QSg9AjOTAIW-3">
          <mxGeometry relative="1" as="geometry">
            <mxPoint x="425" y="950" as="sourcePoint" />
            <mxPoint x="430" y="710" as="targetPoint" />
          </mxGeometry>
        </mxCell>
        <mxCell id="8ykmIyS00QSg9AjOTAIW-10" value="" style="endArrow=none;html=1;rounded=0;align=center;verticalAlign=top;endFill=0;labelBackgroundColor=none;endSize=6;startArrow=none;startFill=0;" edge="1" parent="1" target="8ykmIyS00QSg9AjOTAIW-9">
          <mxGeometry relative="1" as="geometry">
            <mxPoint x="425" y="950" as="sourcePoint" />
            <mxPoint x="425" y="720" as="targetPoint" />
          </mxGeometry>
        </mxCell>
        <mxCell id="8ykmIyS00QSg9AjOTAIW-9" value="" style="html=1;points=[[0,0,0,0,5],[0,1,0,0,-5],[1,0,0,0,5],[1,1,0,0,-5]];perimeter=orthogonalPerimeter;outlineConnect=0;targetShapes=umlLifeline;portConstraint=eastwest;newEdgeStyle={&quot;curved&quot;:0,&quot;rounded&quot;:0};" vertex="1" parent="1">
          <mxGeometry x="420" y="760" width="10" height="220" as="geometry" />
        </mxCell>
        <mxCell id="8ykmIyS00QSg9AjOTAIW-18" value="" style="endArrow=none;html=1;rounded=0;align=center;verticalAlign=top;endFill=0;labelBackgroundColor=none;endSize=6;startArrow=none;startFill=0;dashed=1;" edge="1" parent="1" target="8ykmIyS00QSg9AjOTAIW-6">
          <mxGeometry relative="1" as="geometry">
            <mxPoint x="205" y="1060" as="sourcePoint" />
            <mxPoint x="215" y="730" as="targetPoint" />
          </mxGeometry>
        </mxCell>
        <mxCell id="8ykmIyS00QSg9AjOTAIW-19" value="" style="html=1;points=[[0,0,0,0,5],[0,1,0,0,-5],[1,0,0,0,5],[1,1,0,0,-5]];perimeter=orthogonalPerimeter;outlineConnect=0;targetShapes=umlLifeline;portConstraint=eastwest;newEdgeStyle={&quot;curved&quot;:0,&quot;rounded&quot;:0};" vertex="1" parent="1">
          <mxGeometry x="200" y="890" width="10" height="150" as="geometry" />
        </mxCell>
        <mxCell id="JxfAr-vFTzDbXSifojpH-1" value="" style="endArrow=none;html=1;rounded=0;align=center;verticalAlign=top;endFill=0;labelBackgroundColor=none;endSize=6;startArrow=none;startFill=0;dashed=1;" edge="1" parent="1" source="JxfAr-vFTzDbXSifojpH-4" target="8ykmIyS00QSg9AjOTAIW-4">
          <mxGeometry relative="1" as="geometry">
            <mxPoint x="645" y="1350" as="sourcePoint" />
            <mxPoint x="445" y="730" as="targetPoint" />
          </mxGeometry>
        </mxCell>
        <mxCell id="JxfAr-vFTzDbXSifojpH-4" value="" style="html=1;points=[[0,0,0,0,5],[0,1,0,0,-5],[1,0,0,0,5],[1,1,0,0,-5]];perimeter=orthogonalPerimeter;outlineConnect=0;targetShapes=umlLifeline;portConstraint=eastwest;newEdgeStyle={&quot;curved&quot;:0,&quot;rounded&quot;:0};" vertex="1" parent="1">
          <mxGeometry x="640" y="760" width="10" height="80" as="geometry" />
        </mxCell>
        <mxCell id="JxfAr-vFTzDbXSifojpH-12" value="" style="endArrow=none;html=1;rounded=0;align=center;verticalAlign=top;endFill=0;labelBackgroundColor=none;endSize=6;startArrow=none;startFill=0;dashed=1;" edge="1" parent="1" target="JxfAr-vFTzDbXSifojpH-11">
          <mxGeometry relative="1" as="geometry">
            <mxPoint x="645" y="1060" as="sourcePoint" />
            <mxPoint x="645" y="1070" as="targetPoint" />
          </mxGeometry>
        </mxCell>
        <mxCell id="JxfAr-vFTzDbXSifojpH-11" value="" style="html=1;points=[[0,0,0,0,5],[0,1,0,0,-5],[1,0,0,0,5],[1,1,0,0,-5]];perimeter=orthogonalPerimeter;outlineConnect=0;targetShapes=umlLifeline;portConstraint=eastwest;newEdgeStyle={&quot;curved&quot;:0,&quot;rounded&quot;:0};" vertex="1" parent="1">
          <mxGeometry x="640" y="880" width="10" height="160" as="geometry" />
        </mxCell>
        <mxCell id="twM7COTh97j32GJJhoqv-40" value="Salesman" style="shape=umlActor;verticalLabelPosition=bottom;verticalAlign=top;html=1;" vertex="1" parent="1">
          <mxGeometry x="100" y="1270" width="30" height="60" as="geometry" />
        </mxCell>
        <mxCell id="twM7COTh97j32GJJhoqv-41" value="1d" style="text;html=1;align=center;verticalAlign=middle;whiteSpace=wrap;rounded=0;fontSize=20;" vertex="1" parent="1">
          <mxGeometry x="-30" y="1270" width="60" height="30" as="geometry" />
        </mxCell>
        <mxCell id="twM7COTh97j32GJJhoqv-42" value="Broker pool" style="shape=umlActor;verticalLabelPosition=bottom;verticalAlign=top;html=1;" vertex="1" parent="1">
          <mxGeometry x="410" y="1270" width="30" height="60" as="geometry" />
        </mxCell>
        <mxCell id="twM7COTh97j32GJJhoqv-43" value="Customer&amp;nbsp;" style="shape=umlActor;verticalLabelPosition=bottom;verticalAlign=top;html=1;" vertex="1" parent="1">
          <mxGeometry x="630" y="1270" width="30" height="60" as="geometry" />
        </mxCell>
        <mxCell id="twM7COTh97j32GJJhoqv-46" value="" style="endArrow=none;html=1;rounded=0;align=center;verticalAlign=top;endFill=0;labelBackgroundColor=none;endSize=6;startArrow=none;startFill=0;dashed=1;" edge="1" parent="1" target="twM7COTh97j32GJJhoqv-42">
          <mxGeometry relative="1" as="geometry">
            <mxPoint x="425" y="2470" as="sourcePoint" />
            <mxPoint x="430" y="1320" as="targetPoint" />
          </mxGeometry>
        </mxCell>
        <mxCell id="twM7COTh97j32GJJhoqv-47" value="" style="endArrow=none;html=1;rounded=0;align=center;verticalAlign=top;endFill=0;labelBackgroundColor=none;endSize=6;startArrow=none;startFill=0;" edge="1" parent="1" target="twM7COTh97j32GJJhoqv-48">
          <mxGeometry relative="1" as="geometry">
            <mxPoint x="425" y="1560" as="sourcePoint" />
            <mxPoint x="425" y="1330" as="targetPoint" />
          </mxGeometry>
        </mxCell>
        <mxCell id="twM7COTh97j32GJJhoqv-48" value="" style="html=1;points=[[0,0,0,0,5],[0,1,0,0,-5],[1,0,0,0,5],[1,1,0,0,-5]];perimeter=orthogonalPerimeter;outlineConnect=0;targetShapes=umlLifeline;portConstraint=eastwest;newEdgeStyle={&quot;curved&quot;:0,&quot;rounded&quot;:0};" vertex="1" parent="1">
          <mxGeometry x="420" y="1370" width="10" height="990" as="geometry" />
        </mxCell>
        <mxCell id="twM7COTh97j32GJJhoqv-61" value="" style="endArrow=none;html=1;rounded=0;align=center;verticalAlign=top;endFill=0;labelBackgroundColor=none;endSize=6;startArrow=none;startFill=0;" edge="1" parent="1" target="twM7COTh97j32GJJhoqv-43">
          <mxGeometry relative="1" as="geometry">
            <mxPoint x="645" y="2460" as="sourcePoint" />
            <mxPoint x="445" y="1340" as="targetPoint" />
          </mxGeometry>
        </mxCell>
        <mxCell id="lwotbNNE2DX-GulmVktH-1" value="" style="endArrow=classicThin;html=1;rounded=0;entryX=1;entryY=0;entryDx=0;entryDy=5;entryPerimeter=0;endFill=1;" edge="1" parent="1" source="JxfAr-vFTzDbXSifojpH-4" target="8ykmIyS00QSg9AjOTAIW-9">
          <mxGeometry width="50" height="50" relative="1" as="geometry">
            <mxPoint x="400" y="920" as="sourcePoint" />
            <mxPoint x="450" y="870" as="targetPoint" />
          </mxGeometry>
        </mxCell>
        <mxCell id="lwotbNNE2DX-GulmVktH-2" value="request product details" style="edgeLabel;html=1;align=center;verticalAlign=middle;resizable=0;points=[];" connectable="0" vertex="1" parent="lwotbNNE2DX-GulmVktH-1">
          <mxGeometry x="-0.2362" y="2" relative="1" as="geometry">
            <mxPoint x="-20" y="-7" as="offset" />
          </mxGeometry>
        </mxCell>
        <mxCell id="lwotbNNE2DX-GulmVktH-3" value="" style="endArrow=classic;html=1;rounded=0;entryX=1;entryY=0;entryDx=0;entryDy=5;entryPerimeter=0;endFill=1;" edge="1" parent="1">
          <mxGeometry width="50" height="50" relative="1" as="geometry">
            <mxPoint x="420" y="780" as="sourcePoint" />
            <mxPoint x="210" y="780" as="targetPoint" />
          </mxGeometry>
        </mxCell>
        <mxCell id="lwotbNNE2DX-GulmVktH-4" value="request product details" style="edgeLabel;html=1;align=center;verticalAlign=middle;resizable=0;points=[];" connectable="0" vertex="1" parent="lwotbNNE2DX-GulmVktH-3">
          <mxGeometry x="-0.2362" y="2" relative="1" as="geometry">
            <mxPoint x="-20" y="-7" as="offset" />
          </mxGeometry>
        </mxCell>
        <mxCell id="lwotbNNE2DX-GulmVktH-5" value="" style="endArrow=open;html=1;rounded=0;endFill=0;dashed=1;" edge="1" parent="1" source="8ykmIyS00QSg9AjOTAIW-6" target="8ykmIyS00QSg9AjOTAIW-9">
          <mxGeometry width="50" height="50" relative="1" as="geometry">
            <mxPoint x="400" y="920" as="sourcePoint" />
            <mxPoint x="450" y="870" as="targetPoint" />
          </mxGeometry>
        </mxCell>
        <mxCell id="lwotbNNE2DX-GulmVktH-6" value="send product details" style="edgeLabel;html=1;align=center;verticalAlign=middle;resizable=0;points=[];" connectable="0" vertex="1" parent="lwotbNNE2DX-GulmVktH-5">
          <mxGeometry x="-0.2686" relative="1" as="geometry">
            <mxPoint x="23" as="offset" />
          </mxGeometry>
        </mxCell>
        <mxCell id="lwotbNNE2DX-GulmVktH-7" value="" style="endArrow=open;html=1;rounded=0;endFill=0;dashed=1;" edge="1" parent="1">
          <mxGeometry width="50" height="50" relative="1" as="geometry">
            <mxPoint x="430" y="830" as="sourcePoint" />
            <mxPoint x="640" y="830" as="targetPoint" />
          </mxGeometry>
        </mxCell>
        <mxCell id="lwotbNNE2DX-GulmVktH-8" value="send product details" style="edgeLabel;html=1;align=center;verticalAlign=middle;resizable=0;points=[];" connectable="0" vertex="1" parent="lwotbNNE2DX-GulmVktH-7">
          <mxGeometry x="-0.2686" relative="1" as="geometry">
            <mxPoint x="23" as="offset" />
          </mxGeometry>
        </mxCell>
        <mxCell id="lwotbNNE2DX-GulmVktH-9" value="" style="endArrow=classic;html=1;rounded=0;entryX=1;entryY=0;entryDx=0;entryDy=5;entryPerimeter=0;endFill=1;" edge="1" parent="1">
          <mxGeometry width="50" height="50" relative="1" as="geometry">
            <mxPoint x="640" y="890" as="sourcePoint" />
            <mxPoint x="430" y="890" as="targetPoint" />
          </mxGeometry>
        </mxCell>
        <mxCell id="lwotbNNE2DX-GulmVktH-10" value="request order" style="edgeLabel;html=1;align=center;verticalAlign=middle;resizable=0;points=[];" connectable="0" vertex="1" parent="lwotbNNE2DX-GulmVktH-9">
          <mxGeometry x="-0.2362" y="2" relative="1" as="geometry">
            <mxPoint x="-20" y="-7" as="offset" />
          </mxGeometry>
        </mxCell>
        <mxCell id="lwotbNNE2DX-GulmVktH-13" value="" style="endArrow=classic;html=1;rounded=0;entryX=1;entryY=0;entryDx=0;entryDy=5;entryPerimeter=0;endFill=1;" edge="1" parent="1">
          <mxGeometry width="50" height="50" relative="1" as="geometry">
            <mxPoint x="420" y="900" as="sourcePoint" />
            <mxPoint x="210" y="900" as="targetPoint" />
          </mxGeometry>
        </mxCell>
        <mxCell id="lwotbNNE2DX-GulmVktH-14" value="send detail order" style="edgeLabel;html=1;align=center;verticalAlign=middle;resizable=0;points=[];" connectable="0" vertex="1" parent="lwotbNNE2DX-GulmVktH-13">
          <mxGeometry x="-0.2362" y="2" relative="1" as="geometry">
            <mxPoint x="-20" y="-7" as="offset" />
          </mxGeometry>
        </mxCell>
        <mxCell id="lwotbNNE2DX-GulmVktH-15" value="" style="endArrow=open;html=1;rounded=0;endFill=0;dashed=1;" edge="1" parent="1">
          <mxGeometry width="50" height="50" relative="1" as="geometry">
            <mxPoint x="210" y="940" as="sourcePoint" />
            <mxPoint x="420" y="940" as="targetPoint" />
          </mxGeometry>
        </mxCell>
        <mxCell id="lwotbNNE2DX-GulmVktH-16" value="confirm order" style="edgeLabel;html=1;align=center;verticalAlign=middle;resizable=0;points=[];" connectable="0" vertex="1" parent="lwotbNNE2DX-GulmVktH-15">
          <mxGeometry x="-0.2686" relative="1" as="geometry">
            <mxPoint x="23" as="offset" />
          </mxGeometry>
        </mxCell>
        <mxCell id="lwotbNNE2DX-GulmVktH-17" value="" style="endArrow=open;html=1;rounded=0;endFill=0;dashed=1;" edge="1" parent="1">
          <mxGeometry width="50" height="50" relative="1" as="geometry">
            <mxPoint x="430" y="960" as="sourcePoint" />
            <mxPoint x="640" y="960" as="targetPoint" />
          </mxGeometry>
        </mxCell>
        <mxCell id="lwotbNNE2DX-GulmVktH-18" value="confirm order" style="edgeLabel;html=1;align=center;verticalAlign=middle;resizable=0;points=[];" connectable="0" vertex="1" parent="lwotbNNE2DX-GulmVktH-17">
          <mxGeometry x="-0.2686" relative="1" as="geometry">
            <mxPoint x="23" as="offset" />
          </mxGeometry>
        </mxCell>
        <mxCell id="lwotbNNE2DX-GulmVktH-19" value="" style="endArrow=classic;html=1;rounded=0;endFill=1;" edge="1" parent="1">
          <mxGeometry width="50" height="50" relative="1" as="geometry">
            <mxPoint x="210" y="1000" as="sourcePoint" />
            <mxPoint x="640" y="1000" as="targetPoint" />
          </mxGeometry>
        </mxCell>
        <mxCell id="lwotbNNE2DX-GulmVktH-20" value="ship product" style="edgeLabel;html=1;align=center;verticalAlign=middle;resizable=0;points=[];" connectable="0" vertex="1" parent="lwotbNNE2DX-GulmVktH-19">
          <mxGeometry x="-0.2362" y="2" relative="1" as="geometry">
            <mxPoint x="-20" y="-7" as="offset" />
          </mxGeometry>
        </mxCell>
        <mxCell id="lwotbNNE2DX-GulmVktH-21" value="" style="endArrow=open;html=1;rounded=0;endFill=0;dashed=1;" edge="1" parent="1">
          <mxGeometry width="50" height="50" relative="1" as="geometry">
            <mxPoint x="640" y="1030" as="sourcePoint" />
            <mxPoint x="210" y="1030" as="targetPoint" />
          </mxGeometry>
        </mxCell>
        <mxCell id="lwotbNNE2DX-GulmVktH-22" value="pay for product" style="edgeLabel;html=1;align=center;verticalAlign=middle;resizable=0;points=[];" connectable="0" vertex="1" parent="lwotbNNE2DX-GulmVktH-21">
          <mxGeometry x="-0.2686" relative="1" as="geometry">
            <mxPoint x="23" as="offset" />
          </mxGeometry>
        </mxCell>
        <mxCell id="lwotbNNE2DX-GulmVktH-23" value="" style="endArrow=none;html=1;rounded=0;align=center;verticalAlign=top;endFill=0;labelBackgroundColor=none;endSize=6;startArrow=none;startFill=0;dashed=1;" edge="1" parent="1" target="8ykmIyS00QSg9AjOTAIW-9">
          <mxGeometry relative="1" as="geometry">
            <mxPoint x="425" y="1060" as="sourcePoint" />
            <mxPoint x="655" y="1050" as="targetPoint" />
          </mxGeometry>
        </mxCell>
        <mxCell id="7N0bix_KuK8B6H3YnLO2-1" value="" style="endArrow=none;html=1;rounded=0;align=center;verticalAlign=top;endFill=0;labelBackgroundColor=none;endSize=6;startArrow=none;startFill=0;dashed=1;" edge="1" parent="1" source="JxfAr-vFTzDbXSifojpH-11" target="JxfAr-vFTzDbXSifojpH-4">
          <mxGeometry relative="1" as="geometry">
            <mxPoint x="655" y="770" as="sourcePoint" />
            <mxPoint x="655" y="730" as="targetPoint" />
          </mxGeometry>
        </mxCell>
        <mxCell id="rvgGhhycJ9Wo_LnVvsHn-1" value="Text" style="text;html=1;align=center;verticalAlign=middle;whiteSpace=wrap;rounded=0;" vertex="1" parent="1">
          <mxGeometry x="730" y="700" width="440" height="270" as="geometry" />
        </mxCell>
        <mxCell id="rvgGhhycJ9Wo_LnVvsHn-2" value="Text" style="text;html=1;align=center;verticalAlign=middle;whiteSpace=wrap;rounded=0;" vertex="1" parent="1">
          <mxGeometry x="720" y="370" width="440" height="270" as="geometry" />
        </mxCell>
        <mxCell id="rvgGhhycJ9Wo_LnVvsHn-6" value="" style="endArrow=none;html=1;rounded=0;align=center;verticalAlign=top;endFill=0;labelBackgroundColor=none;endSize=6;startArrow=none;startFill=0;" edge="1" parent="1" target="rvgGhhycJ9Wo_LnVvsHn-5">
          <mxGeometry relative="1" as="geometry">
            <mxPoint x="645" y="1800" as="sourcePoint" />
            <mxPoint x="645" y="1330" as="targetPoint" />
          </mxGeometry>
        </mxCell>
        <mxCell id="rvgGhhycJ9Wo_LnVvsHn-5" value="" style="html=1;points=[[0,0,0,0,5],[0,1,0,0,-5],[1,0,0,0,5],[1,1,0,0,-5]];perimeter=orthogonalPerimeter;outlineConnect=0;targetShapes=umlLifeline;portConstraint=eastwest;newEdgeStyle={&quot;curved&quot;:0,&quot;rounded&quot;:0};" vertex="1" parent="1">
          <mxGeometry x="640" y="1650" width="10" height="790" as="geometry" />
        </mxCell>
        <mxCell id="rvgGhhycJ9Wo_LnVvsHn-7" value="loop" style="shape=umlFrame;whiteSpace=wrap;html=1;pointerEvents=0;recursiveResize=0;container=1;collapsible=0;width=160;" vertex="1" parent="1">
          <mxGeometry x="250" y="1390" width="340" height="950" as="geometry" />
        </mxCell>
        <mxCell id="rvgGhhycJ9Wo_LnVvsHn-10" value="" style="endArrow=classicThin;html=1;rounded=0;endFill=1;" edge="1" parent="rvgGhhycJ9Wo_LnVvsHn-7">
          <mxGeometry width="50" height="50" relative="1" as="geometry">
            <mxPoint x="180" y="80" as="sourcePoint" />
            <mxPoint x="180" y="120" as="targetPoint" />
            <Array as="points">
              <mxPoint x="200" y="80" />
              <mxPoint x="200" y="120" />
            </Array>
          </mxGeometry>
        </mxCell>
        <mxCell id="rvgGhhycJ9Wo_LnVvsHn-11" value="enqueue request" style="edgeLabel;html=1;align=center;verticalAlign=middle;resizable=0;points=[];" connectable="0" vertex="1" parent="rvgGhhycJ9Wo_LnVvsHn-10">
          <mxGeometry x="-0.2362" y="2" relative="1" as="geometry">
            <mxPoint x="48" y="9" as="offset" />
          </mxGeometry>
        </mxCell>
        <mxCell id="rvgGhhycJ9Wo_LnVvsHn-13" value="" style="endArrow=classicThin;html=1;rounded=0;endFill=1;" edge="1" parent="rvgGhhycJ9Wo_LnVvsHn-7">
          <mxGeometry width="50" height="50" relative="1" as="geometry">
            <mxPoint x="180" y="170" as="sourcePoint" />
            <mxPoint x="180" y="210" as="targetPoint" />
            <Array as="points">
              <mxPoint x="200" y="170" />
              <mxPoint x="200" y="210" />
            </Array>
          </mxGeometry>
        </mxCell>
        <mxCell id="rvgGhhycJ9Wo_LnVvsHn-14" value="check status front request" style="edgeLabel;html=1;align=center;verticalAlign=middle;resizable=0;points=[];" connectable="0" vertex="1" parent="rvgGhhycJ9Wo_LnVvsHn-13">
          <mxGeometry x="-0.2362" y="2" relative="1" as="geometry">
            <mxPoint x="68" y="9" as="offset" />
          </mxGeometry>
        </mxCell>
        <mxCell id="rvgGhhycJ9Wo_LnVvsHn-15" value="" style="endArrow=classicThin;html=1;rounded=0;endFill=1;" edge="1" parent="rvgGhhycJ9Wo_LnVvsHn-7">
          <mxGeometry width="50" height="50" relative="1" as="geometry">
            <mxPoint x="180" y="220" as="sourcePoint" />
            <mxPoint x="180" y="260" as="targetPoint" />
            <Array as="points">
              <mxPoint x="200" y="220" />
              <mxPoint x="200" y="260" />
            </Array>
          </mxGeometry>
        </mxCell>
        <mxCell id="rvgGhhycJ9Wo_LnVvsHn-16" value="dequeue request when done" style="edgeLabel;html=1;align=center;verticalAlign=middle;resizable=0;points=[];" connectable="0" vertex="1" parent="rvgGhhycJ9Wo_LnVvsHn-15">
          <mxGeometry x="-0.2362" y="2" relative="1" as="geometry">
            <mxPoint x="68" y="-1" as="offset" />
          </mxGeometry>
        </mxCell>
        <mxCell id="rvgGhhycJ9Wo_LnVvsHn-8" value="" style="endArrow=classicThin;html=1;rounded=0;endFill=1;" edge="1" parent="rvgGhhycJ9Wo_LnVvsHn-7">
          <mxGeometry width="50" height="50" relative="1" as="geometry">
            <mxPoint x="180" y="10" as="sourcePoint" />
            <mxPoint x="180" y="50" as="targetPoint" />
            <Array as="points">
              <mxPoint x="200" y="10" />
              <mxPoint x="200" y="50" />
            </Array>
          </mxGeometry>
        </mxCell>
        <mxCell id="rvgGhhycJ9Wo_LnVvsHn-9" value="wait for request" style="edgeLabel;html=1;align=center;verticalAlign=middle;resizable=0;points=[];" connectable="0" vertex="1" parent="rvgGhhycJ9Wo_LnVvsHn-8">
          <mxGeometry x="-0.2362" y="2" relative="1" as="geometry">
            <mxPoint x="38" y="-7" as="offset" />
          </mxGeometry>
        </mxCell>
        <mxCell id="rvgGhhycJ9Wo_LnVvsHn-3" value="" style="endArrow=classicThin;html=1;rounded=0;entryX=1;entryY=0;entryDx=0;entryDy=5;entryPerimeter=0;endFill=1;" edge="1" parent="rvgGhhycJ9Wo_LnVvsHn-7">
          <mxGeometry width="50" height="50" relative="1" as="geometry">
            <mxPoint x="390" y="70" as="sourcePoint" />
            <mxPoint x="180" y="70" as="targetPoint" />
          </mxGeometry>
        </mxCell>
        <mxCell id="rvgGhhycJ9Wo_LnVvsHn-4" value="request product details" style="edgeLabel;html=1;align=center;verticalAlign=middle;resizable=0;points=[];" connectable="0" vertex="1" parent="rvgGhhycJ9Wo_LnVvsHn-3">
          <mxGeometry x="-0.2362" y="2" relative="1" as="geometry">
            <mxPoint x="-20" y="-7" as="offset" />
          </mxGeometry>
        </mxCell>
        <mxCell id="3KIDhwlMq0-s0m3vB5BI-28" value="" style="endArrow=open;html=1;rounded=0;endFill=0;dashed=1;" edge="1" parent="rvgGhhycJ9Wo_LnVvsHn-7">
          <mxGeometry width="50" height="50" relative="1" as="geometry">
            <mxPoint x="180" y="440" as="sourcePoint" />
            <mxPoint x="390" y="440" as="targetPoint" />
          </mxGeometry>
        </mxCell>
        <mxCell id="3KIDhwlMq0-s0m3vB5BI-29" value="send product details" style="edgeLabel;html=1;align=center;verticalAlign=middle;resizable=0;points=[];" connectable="0" vertex="1" parent="3KIDhwlMq0-s0m3vB5BI-28">
          <mxGeometry x="-0.2686" relative="1" as="geometry">
            <mxPoint x="23" as="offset" />
          </mxGeometry>
        </mxCell>
        <mxCell id="Av8zz2fC6AzTvyf2xfn5-1" value="" style="endArrow=classicThin;html=1;rounded=0;endFill=1;" edge="1" parent="rvgGhhycJ9Wo_LnVvsHn-7">
          <mxGeometry width="50" height="50" relative="1" as="geometry">
            <mxPoint x="180" y="470" as="sourcePoint" />
            <mxPoint x="180" y="510" as="targetPoint" />
            <Array as="points">
              <mxPoint x="200" y="470" />
              <mxPoint x="200" y="510" />
            </Array>
          </mxGeometry>
        </mxCell>
        <mxCell id="Av8zz2fC6AzTvyf2xfn5-2" value="wait for order" style="edgeLabel;html=1;align=center;verticalAlign=middle;resizable=0;points=[];" connectable="0" vertex="1" parent="Av8zz2fC6AzTvyf2xfn5-1">
          <mxGeometry x="-0.2362" y="2" relative="1" as="geometry">
            <mxPoint x="38" y="-7" as="offset" />
          </mxGeometry>
        </mxCell>
        <mxCell id="Av8zz2fC6AzTvyf2xfn5-17" value="" style="endArrow=classicThin;html=1;rounded=0;endFill=1;" edge="1" parent="rvgGhhycJ9Wo_LnVvsHn-7">
          <mxGeometry width="50" height="50" relative="1" as="geometry">
            <mxPoint x="180" y="560" as="sourcePoint" />
            <mxPoint x="180" y="600" as="targetPoint" />
            <Array as="points">
              <mxPoint x="200" y="560" />
              <mxPoint x="200" y="600" />
            </Array>
          </mxGeometry>
        </mxCell>
        <mxCell id="Av8zz2fC6AzTvyf2xfn5-18" value="enqueue order" style="edgeLabel;html=1;align=center;verticalAlign=middle;resizable=0;points=[];" connectable="0" vertex="1" parent="Av8zz2fC6AzTvyf2xfn5-17">
          <mxGeometry x="-0.2362" y="2" relative="1" as="geometry">
            <mxPoint x="48" y="9" as="offset" />
          </mxGeometry>
        </mxCell>
        <mxCell id="Av8zz2fC6AzTvyf2xfn5-19" value="" style="endArrow=classicThin;html=1;rounded=0;entryX=1;entryY=0;entryDx=0;entryDy=5;entryPerimeter=0;endFill=1;" edge="1" parent="rvgGhhycJ9Wo_LnVvsHn-7">
          <mxGeometry width="50" height="50" relative="1" as="geometry">
            <mxPoint x="390" y="530" as="sourcePoint" />
            <mxPoint x="180" y="530" as="targetPoint" />
          </mxGeometry>
        </mxCell>
        <mxCell id="Av8zz2fC6AzTvyf2xfn5-20" value="request order" style="edgeLabel;html=1;align=center;verticalAlign=middle;resizable=0;points=[];" connectable="0" vertex="1" parent="Av8zz2fC6AzTvyf2xfn5-19">
          <mxGeometry x="-0.2362" y="2" relative="1" as="geometry">
            <mxPoint x="-30" y="-7" as="offset" />
          </mxGeometry>
        </mxCell>
        <mxCell id="Av8zz2fC6AzTvyf2xfn5-21" value="" style="endArrow=classicThin;html=1;rounded=0;endFill=1;" edge="1" parent="rvgGhhycJ9Wo_LnVvsHn-7">
          <mxGeometry width="50" height="50" relative="1" as="geometry">
            <mxPoint x="180" y="650" as="sourcePoint" />
            <mxPoint x="180" y="690" as="targetPoint" />
            <Array as="points">
              <mxPoint x="200" y="650" />
              <mxPoint x="200" y="690" />
            </Array>
          </mxGeometry>
        </mxCell>
        <mxCell id="Av8zz2fC6AzTvyf2xfn5-22" value="check status front order" style="edgeLabel;html=1;align=center;verticalAlign=middle;resizable=0;points=[];" connectable="0" vertex="1" parent="Av8zz2fC6AzTvyf2xfn5-21">
          <mxGeometry x="-0.2362" y="2" relative="1" as="geometry">
            <mxPoint x="68" y="9" as="offset" />
          </mxGeometry>
        </mxCell>
        <mxCell id="Av8zz2fC6AzTvyf2xfn5-23" value="" style="endArrow=classicThin;html=1;rounded=0;endFill=1;" edge="1" parent="rvgGhhycJ9Wo_LnVvsHn-7">
          <mxGeometry width="50" height="50" relative="1" as="geometry">
            <mxPoint x="180" y="710" as="sourcePoint" />
            <mxPoint x="180" y="750" as="targetPoint" />
            <Array as="points">
              <mxPoint x="200" y="710" />
              <mxPoint x="200" y="750" />
            </Array>
          </mxGeometry>
        </mxCell>
        <mxCell id="Av8zz2fC6AzTvyf2xfn5-24" value="dequeue order when done" style="edgeLabel;html=1;align=center;verticalAlign=middle;resizable=0;points=[];" connectable="0" vertex="1" parent="Av8zz2fC6AzTvyf2xfn5-23">
          <mxGeometry x="-0.2362" y="2" relative="1" as="geometry">
            <mxPoint x="68" y="-1" as="offset" />
          </mxGeometry>
        </mxCell>
        <mxCell id="Av8zz2fC6AzTvyf2xfn5-25" value="" style="endArrow=classic;html=1;rounded=0;endFill=1;" edge="1" parent="rvgGhhycJ9Wo_LnVvsHn-7" target="twM7COTh97j32GJJhoqv-56">
          <mxGeometry width="50" height="50" relative="1" as="geometry">
            <mxPoint x="170" y="630" as="sourcePoint" />
            <mxPoint x="-40" y="630" as="targetPoint" />
          </mxGeometry>
        </mxCell>
        <mxCell id="Av8zz2fC6AzTvyf2xfn5-26" value="send detail order" style="edgeLabel;html=1;align=center;verticalAlign=middle;resizable=0;points=[];" connectable="0" vertex="1" parent="Av8zz2fC6AzTvyf2xfn5-25">
          <mxGeometry x="-0.2362" y="2" relative="1" as="geometry">
            <mxPoint x="-20" y="-7" as="offset" />
          </mxGeometry>
        </mxCell>
        <mxCell id="Av8zz2fC6AzTvyf2xfn5-32" value="" style="endArrow=open;html=1;rounded=0;endFill=0;dashed=1;" edge="1" parent="rvgGhhycJ9Wo_LnVvsHn-7">
          <mxGeometry width="50" height="50" relative="1" as="geometry">
            <mxPoint x="180" y="910" as="sourcePoint" />
            <mxPoint x="390" y="910" as="targetPoint" />
          </mxGeometry>
        </mxCell>
        <mxCell id="Av8zz2fC6AzTvyf2xfn5-33" value="confirm order" style="edgeLabel;html=1;align=center;verticalAlign=middle;resizable=0;points=[];" connectable="0" vertex="1" parent="Av8zz2fC6AzTvyf2xfn5-32">
          <mxGeometry x="-0.2686" relative="1" as="geometry">
            <mxPoint x="-23" as="offset" />
          </mxGeometry>
        </mxCell>
        <mxCell id="Av8zz2fC6AzTvyf2xfn5-27" value="par" style="shape=umlFrame;whiteSpace=wrap;html=1;pointerEvents=0;recursiveResize=0;container=1;collapsible=0;width=160;" vertex="1" parent="rvgGhhycJ9Wo_LnVvsHn-7">
          <mxGeometry x="-260" y="760" width="450" height="130" as="geometry" />
        </mxCell>
        <mxCell id="Av8zz2fC6AzTvyf2xfn5-28" value="" style="endArrow=open;html=1;rounded=0;endFill=0;dashed=1;" edge="1" parent="Av8zz2fC6AzTvyf2xfn5-27">
          <mxGeometry width="50" height="50" relative="1" as="geometry">
            <mxPoint x="130" y="100" as="sourcePoint" />
            <mxPoint x="430" y="100.5" as="targetPoint" />
            <Array as="points">
              <mxPoint x="400" y="100.5" />
            </Array>
          </mxGeometry>
        </mxCell>
        <mxCell id="Av8zz2fC6AzTvyf2xfn5-29" value="notificate confirmation done" style="edgeLabel;html=1;align=center;verticalAlign=middle;resizable=0;points=[];" connectable="0" vertex="1" parent="Av8zz2fC6AzTvyf2xfn5-28">
          <mxGeometry x="-0.2686" relative="1" as="geometry">
            <mxPoint x="-23" as="offset" />
          </mxGeometry>
        </mxCell>
        <mxCell id="Av8zz2fC6AzTvyf2xfn5-30" value="" style="endArrow=open;html=1;rounded=0;endFill=0;dashed=1;" edge="1" parent="Av8zz2fC6AzTvyf2xfn5-27">
          <mxGeometry width="50" height="50" relative="1" as="geometry">
            <mxPoint x="130" y="64.5" as="sourcePoint" />
            <mxPoint x="430" y="65" as="targetPoint" />
            <Array as="points">
              <mxPoint x="400" y="65" />
            </Array>
          </mxGeometry>
        </mxCell>
        <mxCell id="Av8zz2fC6AzTvyf2xfn5-31" value="confirm order" style="edgeLabel;html=1;align=center;verticalAlign=middle;resizable=0;points=[];" connectable="0" vertex="1" parent="Av8zz2fC6AzTvyf2xfn5-30">
          <mxGeometry x="-0.2686" relative="1" as="geometry">
            <mxPoint x="-23" as="offset" />
          </mxGeometry>
        </mxCell>
        <mxCell id="3KIDhwlMq0-s0m3vB5BI-2" value="" style="endArrow=classicThin;html=1;rounded=0;endFill=1;" edge="1" parent="1">
          <mxGeometry width="50" height="50" relative="1" as="geometry">
            <mxPoint x="420" y="1540" as="sourcePoint" />
            <mxPoint x="120" y="1540" as="targetPoint" />
          </mxGeometry>
        </mxCell>
        <mxCell id="3KIDhwlMq0-s0m3vB5BI-3" value="send front request" style="edgeLabel;html=1;align=center;verticalAlign=middle;resizable=0;points=[];" connectable="0" vertex="1" parent="3KIDhwlMq0-s0m3vB5BI-2">
          <mxGeometry x="-0.2362" y="2" relative="1" as="geometry">
            <mxPoint x="-20" y="-7" as="offset" />
          </mxGeometry>
        </mxCell>
        <mxCell id="3KIDhwlMq0-s0m3vB5BI-41" value="par" style="shape=umlFrame;whiteSpace=wrap;html=1;pointerEvents=0;recursiveResize=0;container=1;collapsible=0;width=160;" vertex="1" parent="1">
          <mxGeometry x="-10" y="1680" width="450" height="130" as="geometry" />
        </mxCell>
        <mxCell id="3KIDhwlMq0-s0m3vB5BI-42" value="" style="endArrow=open;html=1;rounded=0;endFill=0;dashed=1;" edge="1" parent="3KIDhwlMq0-s0m3vB5BI-41">
          <mxGeometry width="50" height="50" relative="1" as="geometry">
            <mxPoint x="130" y="100" as="sourcePoint" />
            <mxPoint x="430" y="100.5" as="targetPoint" />
            <Array as="points">
              <mxPoint x="400" y="100.5" />
            </Array>
          </mxGeometry>
        </mxCell>
        <mxCell id="3KIDhwlMq0-s0m3vB5BI-43" value="notificate request done" style="edgeLabel;html=1;align=center;verticalAlign=middle;resizable=0;points=[];" connectable="0" vertex="1" parent="3KIDhwlMq0-s0m3vB5BI-42">
          <mxGeometry x="-0.2686" relative="1" as="geometry">
            <mxPoint x="-40" as="offset" />
          </mxGeometry>
        </mxCell>
        <mxCell id="3KIDhwlMq0-s0m3vB5BI-15" value="" style="endArrow=open;html=1;rounded=0;endFill=0;dashed=1;" edge="1" parent="1" source="twM7COTh97j32GJJhoqv-56">
          <mxGeometry width="50" height="50" relative="1" as="geometry">
            <mxPoint x="125" y="1730" as="sourcePoint" />
            <mxPoint x="420" y="1731" as="targetPoint" />
            <Array as="points">
              <mxPoint x="395" y="1730.5" />
            </Array>
          </mxGeometry>
        </mxCell>
        <mxCell id="3KIDhwlMq0-s0m3vB5BI-16" value="send product details" style="edgeLabel;html=1;align=center;verticalAlign=middle;resizable=0;points=[];" connectable="0" vertex="1" parent="3KIDhwlMq0-s0m3vB5BI-15">
          <mxGeometry x="-0.2686" relative="1" as="geometry">
            <mxPoint x="-40" as="offset" />
          </mxGeometry>
        </mxCell>
        <mxCell id="Av8zz2fC6AzTvyf2xfn5-34" value="" style="endArrow=classic;html=1;rounded=0;endFill=1;" edge="1" parent="1" target="rvgGhhycJ9Wo_LnVvsHn-5">
          <mxGeometry width="50" height="50" relative="1" as="geometry">
            <mxPoint x="120" y="2380" as="sourcePoint" />
            <mxPoint x="550" y="2380" as="targetPoint" />
          </mxGeometry>
        </mxCell>
        <mxCell id="Av8zz2fC6AzTvyf2xfn5-35" value="ship product" style="edgeLabel;html=1;align=center;verticalAlign=middle;resizable=0;points=[];" connectable="0" vertex="1" parent="Av8zz2fC6AzTvyf2xfn5-34">
          <mxGeometry x="-0.2362" y="2" relative="1" as="geometry">
            <mxPoint x="-20" y="-7" as="offset" />
          </mxGeometry>
        </mxCell>
        <mxCell id="Av8zz2fC6AzTvyf2xfn5-36" value="" style="endArrow=open;html=1;rounded=0;endFill=0;dashed=1;" edge="1" parent="1" source="rvgGhhycJ9Wo_LnVvsHn-5">
          <mxGeometry width="50" height="50" relative="1" as="geometry">
            <mxPoint x="550" y="2410" as="sourcePoint" />
            <mxPoint x="120" y="2410" as="targetPoint" />
          </mxGeometry>
        </mxCell>
        <mxCell id="Av8zz2fC6AzTvyf2xfn5-37" value="pay for product" style="edgeLabel;html=1;align=center;verticalAlign=middle;resizable=0;points=[];" connectable="0" vertex="1" parent="Av8zz2fC6AzTvyf2xfn5-36">
          <mxGeometry x="-0.2686" relative="1" as="geometry">
            <mxPoint x="23" as="offset" />
          </mxGeometry>
        </mxCell>
      </root>
    </mxGraphModel>
  </diagram>
  <diagram id="8JW4dQY_6mYy8tn9pQHS" name="Task2">
    <mxGraphModel grid="1" page="1" gridSize="10" guides="1" tooltips="1" connect="1" arrows="1" fold="1" pageScale="1" pageWidth="850" pageHeight="1100" math="0" shadow="0">
      <root>
        <mxCell id="0" />
        <mxCell id="1" parent="0" />
        <mxCell id="M40W_fzbE_-INV2t7d-s-25" value="" style="rounded=0;whiteSpace=wrap;html=1;" vertex="1" parent="1">
          <mxGeometry x="-4880" y="-2780" width="380" height="140" as="geometry" />
        </mxCell>
        <mxCell id="M40W_fzbE_-INV2t7d-s-1" value="" style="rounded=0;whiteSpace=wrap;html=1;" vertex="1" parent="1">
          <mxGeometry x="-4890" y="-4110" width="380" height="140" as="geometry" />
        </mxCell>
        <mxCell id="1fBo22_wl1DlLNBRngDX-1" value="&lt;span id=&quot;docs-internal-guid-6a302d5c-7fff-0383-b470-11f8a27b88d4&quot;&gt;&lt;p style=&quot;line-height:1.3800000000000001;margin-top:12pt;margin-bottom:12pt;&quot; dir=&quot;ltr&quot;&gt;&lt;br&gt;&lt;/p&gt;&lt;/span&gt;" style="text;html=1;align=center;verticalAlign=middle;resizable=0;points=[];autosize=1;strokeColor=none;fillColor=none;rounded=0;labelBackgroundColor=none;" vertex="1" parent="1">
          <mxGeometry x="-4595" y="-4017" width="20" height="60" as="geometry" />
        </mxCell>
        <mxCell id="1fBo22_wl1DlLNBRngDX-2" style="edgeStyle=orthogonalEdgeStyle;rounded=0;orthogonalLoop=1;jettySize=auto;html=1;exitX=0.5;exitY=1;exitDx=0;exitDy=0;dashed=1;" edge="1" parent="1" source="1fBo22_wl1DlLNBRngDX-3">
          <mxGeometry relative="1" as="geometry">
            <mxPoint x="-4840" y="-3870" as="targetPoint" />
          </mxGeometry>
        </mxCell>
        <mxCell id="1fBo22_wl1DlLNBRngDX-3" value="Person" style="rounded=0;whiteSpace=wrap;html=1;labelBackgroundColor=none;" vertex="1" parent="1">
          <mxGeometry x="-4900" y="-4282" width="120" height="60" as="geometry" />
        </mxCell>
        <mxCell id="1fBo22_wl1DlLNBRngDX-4" style="edgeStyle=orthogonalEdgeStyle;rounded=0;orthogonalLoop=1;jettySize=auto;html=1;dashed=1;" edge="1" parent="1">
          <mxGeometry relative="1" as="geometry">
            <mxPoint x="-4560" y="-3860" as="targetPoint" />
            <mxPoint x="-4560" y="-4220" as="sourcePoint" />
            <Array as="points">
              <mxPoint x="-4560.34" y="-3940" />
              <mxPoint x="-4560.34" y="-3940" />
            </Array>
          </mxGeometry>
        </mxCell>
        <mxCell id="1fBo22_wl1DlLNBRngDX-5" value="Lift" style="rounded=0;whiteSpace=wrap;html=1;labelBackgroundColor=none;" vertex="1" parent="1">
          <mxGeometry x="-4620" y="-4282" width="120" height="60" as="geometry" />
        </mxCell>
        <mxCell id="1fBo22_wl1DlLNBRngDX-6" value="" style="endArrow=open;startArrow=none;endFill=0;startFill=0;endSize=8;html=1;verticalAlign=bottom;labelBackgroundColor=none;strokeWidth=1;rounded=0;" edge="1" parent="1">
          <mxGeometry width="160" relative="1" as="geometry">
            <mxPoint x="-4830" y="-4150" as="sourcePoint" />
            <mxPoint x="-4570" y="-4150" as="targetPoint" />
          </mxGeometry>
        </mxCell>
        <mxCell id="1fBo22_wl1DlLNBRngDX-7" value="pressButton (Integrated: floor number)" style="text;html=1;align=center;verticalAlign=middle;resizable=0;points=[];autosize=1;strokeColor=none;fillColor=none;" vertex="1" parent="1">
          <mxGeometry x="-4815" y="-4174" width="230" height="30" as="geometry" />
        </mxCell>
        <mxCell id="1fBo22_wl1DlLNBRngDX-8" value="" style="endArrow=open;startArrow=none;endFill=0;startFill=0;endSize=8;html=1;verticalAlign=bottom;labelBackgroundColor=none;strokeWidth=1;rounded=0;" edge="1" parent="1">
          <mxGeometry width="160" relative="1" as="geometry">
            <mxPoint x="-4570" y="-3992" as="sourcePoint" />
            <mxPoint x="-4830" y="-3992" as="targetPoint" />
          </mxGeometry>
        </mxCell>
        <mxCell id="1fBo22_wl1DlLNBRngDX-9" value="Floor Reached (Integrated: Floor number)" style="text;html=1;align=center;verticalAlign=middle;resizable=0;points=[];autosize=1;strokeColor=none;fillColor=none;" vertex="1" parent="1">
          <mxGeometry x="-4815" y="-4022" width="250" height="30" as="geometry" />
        </mxCell>
        <mxCell id="1fBo22_wl1DlLNBRngDX-10" value="" style="edgeStyle=elbowEdgeStyle;elbow=horizontal;endArrow=classic;html=1;curved=0;rounded=0;endSize=8;startSize=8;" edge="1" parent="1">
          <mxGeometry width="50" height="50" relative="1" as="geometry">
            <mxPoint x="-4555" y="-4080" as="sourcePoint" />
            <mxPoint x="-4545" y="-4040" as="targetPoint" />
            <Array as="points">
              <mxPoint x="-4525" y="-4060" />
            </Array>
          </mxGeometry>
        </mxCell>
        <mxCell id="vDHiOaFYjRecJeyb5Qy1-1" value="&lt;font style=&quot;font-size: 14px;&quot;&gt;&lt;b&gt;2.&lt;/b&gt;&lt;/font&gt;" style="text;html=1;align=center;verticalAlign=middle;resizable=0;points=[];autosize=1;strokeColor=none;fillColor=none;" vertex="1" parent="1">
          <mxGeometry x="-5000" y="-4282" width="40" height="30" as="geometry" />
        </mxCell>
        <mxCell id="vDHiOaFYjRecJeyb5Qy1-2" value="A)" style="text;html=1;align=center;verticalAlign=middle;resizable=0;points=[];autosize=1;strokeColor=none;fillColor=none;" vertex="1" parent="1">
          <mxGeometry x="-5000" y="-3750" width="40" height="30" as="geometry" />
        </mxCell>
        <mxCell id="wly5AjabulJ-gz3SCK1t-10" value="" style="edgeStyle=orthogonalEdgeStyle;rounded=0;orthogonalLoop=1;jettySize=auto;html=1;exitX=0.5;exitY=1;exitDx=0;exitDy=0;dashed=1;endArrow=none;endFill=0;" edge="1" parent="1" source="1fBo22_wl1DlLNBRngDX-5">
          <mxGeometry relative="1" as="geometry">
            <mxPoint x="-4560" y="-4160" as="targetPoint" />
            <mxPoint x="-4560" y="-4222" as="sourcePoint" />
          </mxGeometry>
        </mxCell>
        <mxCell id="M40W_fzbE_-INV2t7d-s-2" value="Loops" style="text;html=1;align=center;verticalAlign=middle;resizable=0;points=[];autosize=1;strokeColor=none;fillColor=none;" vertex="1" parent="1">
          <mxGeometry x="-4900" y="-4110" width="60" height="30" as="geometry" />
        </mxCell>
        <mxCell id="M40W_fzbE_-INV2t7d-s-3" value="Moving" style="text;html=1;align=center;verticalAlign=middle;resizable=0;points=[];autosize=1;strokeColor=none;fillColor=none;" vertex="1" parent="1">
          <mxGeometry x="-4565" y="-4040" width="60" height="30" as="geometry" />
        </mxCell>
        <mxCell id="M40W_fzbE_-INV2t7d-s-4" value="" style="rounded=0;whiteSpace=wrap;html=1;" vertex="1" parent="1">
          <mxGeometry x="-4880" y="-3578" width="380" height="140" as="geometry" />
        </mxCell>
        <mxCell id="M40W_fzbE_-INV2t7d-s-5" value="&lt;span id=&quot;docs-internal-guid-6a302d5c-7fff-0383-b470-11f8a27b88d4&quot;&gt;&lt;p style=&quot;line-height:1.3800000000000001;margin-top:12pt;margin-bottom:12pt;&quot; dir=&quot;ltr&quot;&gt;&lt;br&gt;&lt;/p&gt;&lt;/span&gt;" style="text;html=1;align=center;verticalAlign=middle;resizable=0;points=[];autosize=1;strokeColor=none;fillColor=none;rounded=0;labelBackgroundColor=none;" vertex="1" parent="1">
          <mxGeometry x="-4585" y="-3485" width="20" height="60" as="geometry" />
        </mxCell>
        <mxCell id="M40W_fzbE_-INV2t7d-s-6" style="edgeStyle=orthogonalEdgeStyle;rounded=0;orthogonalLoop=1;jettySize=auto;html=1;exitX=0.5;exitY=1;exitDx=0;exitDy=0;dashed=1;" edge="1" parent="1" source="M40W_fzbE_-INV2t7d-s-7">
          <mxGeometry relative="1" as="geometry">
            <mxPoint x="-4830" y="-3400.0689655172414" as="targetPoint" />
          </mxGeometry>
        </mxCell>
        <mxCell id="M40W_fzbE_-INV2t7d-s-7" value="Person" style="rounded=0;whiteSpace=wrap;html=1;labelBackgroundColor=none;" vertex="1" parent="1">
          <mxGeometry x="-4890" y="-3750" width="120" height="60" as="geometry" />
        </mxCell>
        <mxCell id="M40W_fzbE_-INV2t7d-s-8" style="edgeStyle=orthogonalEdgeStyle;rounded=0;orthogonalLoop=1;jettySize=auto;html=1;dashed=1;" edge="1" parent="1">
          <mxGeometry relative="1" as="geometry">
            <mxPoint x="-4550.03" y="-3398" as="targetPoint" />
            <mxPoint x="-4550" y="-3688" as="sourcePoint" />
            <Array as="points">
              <mxPoint x="-4550.34" y="-3408" />
              <mxPoint x="-4550.34" y="-3408" />
            </Array>
          </mxGeometry>
        </mxCell>
        <mxCell id="M40W_fzbE_-INV2t7d-s-9" value="Lift" style="rounded=0;whiteSpace=wrap;html=1;labelBackgroundColor=none;" vertex="1" parent="1">
          <mxGeometry x="-4610" y="-3750" width="120" height="60" as="geometry" />
        </mxCell>
        <mxCell id="M40W_fzbE_-INV2t7d-s-10" value="" style="endArrow=open;startArrow=none;endFill=0;startFill=0;endSize=8;html=1;verticalAlign=bottom;labelBackgroundColor=none;strokeWidth=1;rounded=0;" edge="1" parent="1">
          <mxGeometry width="160" relative="1" as="geometry">
            <mxPoint x="-4820" y="-3618" as="sourcePoint" />
            <mxPoint x="-4560" y="-3618" as="targetPoint" />
          </mxGeometry>
        </mxCell>
        <mxCell id="M40W_fzbE_-INV2t7d-s-11" value="pressButtom (Integrated: floor number)" style="text;html=1;align=center;verticalAlign=middle;resizable=0;points=[];autosize=1;strokeColor=none;fillColor=none;" vertex="1" parent="1">
          <mxGeometry x="-4805" y="-3642" width="230" height="30" as="geometry" />
        </mxCell>
        <mxCell id="M40W_fzbE_-INV2t7d-s-12" value="" style="endArrow=open;startArrow=none;endFill=0;startFill=0;endSize=8;html=1;verticalAlign=bottom;labelBackgroundColor=none;strokeWidth=1;rounded=0;" edge="1" parent="1">
          <mxGeometry width="160" relative="1" as="geometry">
            <mxPoint x="-4560" y="-3460" as="sourcePoint" />
            <mxPoint x="-4820" y="-3460" as="targetPoint" />
          </mxGeometry>
        </mxCell>
        <mxCell id="M40W_fzbE_-INV2t7d-s-13" value="Floor Reached (Integrated: Floor number)" style="text;html=1;align=center;verticalAlign=middle;resizable=0;points=[];autosize=1;strokeColor=none;fillColor=none;" vertex="1" parent="1">
          <mxGeometry x="-4805" y="-3490" width="250" height="30" as="geometry" />
        </mxCell>
        <mxCell id="M40W_fzbE_-INV2t7d-s-14" value="" style="edgeStyle=elbowEdgeStyle;elbow=horizontal;endArrow=classic;html=1;curved=0;rounded=0;endSize=8;startSize=8;" edge="1" parent="1">
          <mxGeometry width="50" height="50" relative="1" as="geometry">
            <mxPoint x="-4545" y="-3548" as="sourcePoint" />
            <mxPoint x="-4535" y="-3508" as="targetPoint" />
            <Array as="points">
              <mxPoint x="-4515" y="-3528" />
            </Array>
          </mxGeometry>
        </mxCell>
        <mxCell id="M40W_fzbE_-INV2t7d-s-15" value="" style="rounded=0;whiteSpace=wrap;html=1;" vertex="1" parent="1">
          <mxGeometry x="-4835" y="-3628" width="10" height="30" as="geometry" />
        </mxCell>
        <mxCell id="M40W_fzbE_-INV2t7d-s-16" value="" style="edgeStyle=orthogonalEdgeStyle;rounded=0;orthogonalLoop=1;jettySize=auto;html=1;exitX=0.5;exitY=1;exitDx=0;exitDy=0;dashed=1;endArrow=none;endFill=0;" edge="1" parent="1" source="M40W_fzbE_-INV2t7d-s-9" target="M40W_fzbE_-INV2t7d-s-17">
          <mxGeometry relative="1" as="geometry">
            <mxPoint x="-4550" y="-2926.6666666666665" as="targetPoint" />
            <mxPoint x="-4550" y="-3690" as="sourcePoint" />
          </mxGeometry>
        </mxCell>
        <mxCell id="M40W_fzbE_-INV2t7d-s-17" value="" style="rounded=0;whiteSpace=wrap;html=1;" vertex="1" parent="1">
          <mxGeometry x="-4555" y="-3628" width="10" height="30" as="geometry" />
        </mxCell>
        <mxCell id="M40W_fzbE_-INV2t7d-s-18" value="Loops" style="text;html=1;align=center;verticalAlign=middle;resizable=0;points=[];autosize=1;strokeColor=none;fillColor=none;" vertex="1" parent="1">
          <mxGeometry x="-4890" y="-3578" width="60" height="30" as="geometry" />
        </mxCell>
        <mxCell id="M40W_fzbE_-INV2t7d-s-19" value="Moving" style="text;html=1;align=center;verticalAlign=middle;resizable=0;points=[];autosize=1;strokeColor=none;fillColor=none;" vertex="1" parent="1">
          <mxGeometry x="-4555" y="-3508" width="60" height="30" as="geometry" />
        </mxCell>
        <mxCell id="M40W_fzbE_-INV2t7d-s-20" value="" style="endArrow=open;startArrow=none;endFill=0;startFill=0;endSize=8;html=1;verticalAlign=bottom;labelBackgroundColor=none;strokeWidth=1;rounded=0;" edge="1" parent="1">
          <mxGeometry width="160" relative="1" as="geometry">
            <mxPoint x="-4835" y="-3946" as="sourcePoint" />
            <mxPoint x="-4575" y="-3946" as="targetPoint" />
          </mxGeometry>
        </mxCell>
        <mxCell id="M40W_fzbE_-INV2t7d-s-21" value="pressDoor" style="text;html=1;align=center;verticalAlign=middle;resizable=0;points=[];autosize=1;strokeColor=none;fillColor=none;" vertex="1" parent="1">
          <mxGeometry x="-4745" y="-3970" width="80" height="30" as="geometry" />
        </mxCell>
        <mxCell id="M40W_fzbE_-INV2t7d-s-22" value="" style="edgeStyle=elbowEdgeStyle;elbow=horizontal;endArrow=classic;html=1;curved=0;rounded=0;endSize=8;startSize=8;" edge="1" parent="1">
          <mxGeometry width="50" height="50" relative="1" as="geometry">
            <mxPoint x="-4555" y="-3950" as="sourcePoint" />
            <mxPoint x="-4545" y="-3910" as="targetPoint" />
            <Array as="points">
              <mxPoint x="-4525" y="-3930" />
            </Array>
          </mxGeometry>
        </mxCell>
        <mxCell id="M40W_fzbE_-INV2t7d-s-23" value="Stop Moving" style="text;html=1;align=center;verticalAlign=middle;resizable=0;points=[];autosize=1;strokeColor=none;fillColor=none;" vertex="1" parent="1">
          <mxGeometry x="-4565" y="-3900" width="90" height="30" as="geometry" />
        </mxCell>
        <mxCell id="M40W_fzbE_-INV2t7d-s-24" value="C)" style="text;html=1;align=center;verticalAlign=middle;resizable=0;points=[];autosize=1;strokeColor=none;fillColor=none;" vertex="1" parent="1">
          <mxGeometry x="-5000" y="-2850" width="40" height="30" as="geometry" />
        </mxCell>
        <mxCell id="M40W_fzbE_-INV2t7d-s-26" value="&lt;span id=&quot;docs-internal-guid-6a302d5c-7fff-0383-b470-11f8a27b88d4&quot;&gt;&lt;p style=&quot;line-height:1.3800000000000001;margin-top:12pt;margin-bottom:12pt;&quot; dir=&quot;ltr&quot;&gt;&lt;br&gt;&lt;/p&gt;&lt;/span&gt;" style="text;html=1;align=center;verticalAlign=middle;resizable=0;points=[];autosize=1;strokeColor=none;fillColor=none;rounded=0;labelBackgroundColor=none;" vertex="1" parent="1">
          <mxGeometry x="-4585" y="-2687" width="20" height="60" as="geometry" />
        </mxCell>
        <mxCell id="M40W_fzbE_-INV2t7d-s-27" style="edgeStyle=orthogonalEdgeStyle;rounded=0;orthogonalLoop=1;jettySize=auto;html=1;exitX=0.5;exitY=1;exitDx=0;exitDy=0;dashed=1;" edge="1" parent="1" source="M40W_fzbE_-INV2t7d-s-28">
          <mxGeometry relative="1" as="geometry">
            <mxPoint x="-4830" y="-2500.0689655172414" as="targetPoint" />
          </mxGeometry>
        </mxCell>
        <mxCell id="M40W_fzbE_-INV2t7d-s-28" value="Person" style="rounded=0;whiteSpace=wrap;html=1;labelBackgroundColor=none;" vertex="1" parent="1">
          <mxGeometry x="-4890" y="-2850" width="120" height="60" as="geometry" />
        </mxCell>
        <mxCell id="M40W_fzbE_-INV2t7d-s-29" style="edgeStyle=orthogonalEdgeStyle;rounded=0;orthogonalLoop=1;jettySize=auto;html=1;dashed=1;" edge="1" parent="1">
          <mxGeometry relative="1" as="geometry">
            <mxPoint x="-4550.03" y="-2498" as="targetPoint" />
            <mxPoint x="-4550" y="-2788" as="sourcePoint" />
            <Array as="points">
              <mxPoint x="-4550.34" y="-2508" />
              <mxPoint x="-4550.34" y="-2508" />
            </Array>
          </mxGeometry>
        </mxCell>
        <mxCell id="M40W_fzbE_-INV2t7d-s-30" value="Lift" style="rounded=0;whiteSpace=wrap;html=1;labelBackgroundColor=none;" vertex="1" parent="1">
          <mxGeometry x="-4610" y="-2850" width="120" height="60" as="geometry" />
        </mxCell>
        <mxCell id="M40W_fzbE_-INV2t7d-s-33" value="" style="endArrow=open;startArrow=none;endFill=0;startFill=0;endSize=8;html=1;verticalAlign=bottom;labelBackgroundColor=none;strokeWidth=1;rounded=0;" edge="1" parent="1">
          <mxGeometry width="160" relative="1" as="geometry">
            <mxPoint x="-4560" y="-2725" as="sourcePoint" />
            <mxPoint x="-4820" y="-2725" as="targetPoint" />
          </mxGeometry>
        </mxCell>
        <mxCell id="M40W_fzbE_-INV2t7d-s-34" value="Floor Reached (Integrated: Floor number)" style="text;html=1;align=center;verticalAlign=middle;resizable=0;points=[];autosize=1;strokeColor=none;fillColor=none;" vertex="1" parent="1">
          <mxGeometry x="-4810" y="-2760" width="250" height="30" as="geometry" />
        </mxCell>
        <mxCell id="M40W_fzbE_-INV2t7d-s-35" value="" style="edgeStyle=elbowEdgeStyle;elbow=horizontal;endArrow=classic;html=1;curved=0;rounded=0;endSize=8;startSize=8;" edge="1" parent="1">
          <mxGeometry width="50" height="50" relative="1" as="geometry">
            <mxPoint x="-4545" y="-2770" as="sourcePoint" />
            <mxPoint x="-4535" y="-2730" as="targetPoint" />
            <Array as="points">
              <mxPoint x="-4515" y="-2750" />
            </Array>
          </mxGeometry>
        </mxCell>
        <mxCell id="M40W_fzbE_-INV2t7d-s-37" value="" style="edgeStyle=orthogonalEdgeStyle;rounded=0;orthogonalLoop=1;jettySize=auto;html=1;exitX=0.5;exitY=1;exitDx=0;exitDy=0;dashed=1;endArrow=none;endFill=0;" edge="1" parent="1" source="M40W_fzbE_-INV2t7d-s-30">
          <mxGeometry relative="1" as="geometry">
            <mxPoint x="-4550" y="-2728" as="targetPoint" />
            <mxPoint x="-4550" y="-2790" as="sourcePoint" />
          </mxGeometry>
        </mxCell>
        <mxCell id="M40W_fzbE_-INV2t7d-s-39" value="Loops" style="text;html=1;align=center;verticalAlign=middle;resizable=0;points=[];autosize=1;strokeColor=none;fillColor=none;" vertex="1" parent="1">
          <mxGeometry x="-4890" y="-2780" width="60" height="30" as="geometry" />
        </mxCell>
        <mxCell id="M40W_fzbE_-INV2t7d-s-40" value="Moving" style="text;html=1;align=center;verticalAlign=middle;resizable=0;points=[];autosize=1;strokeColor=none;fillColor=none;" vertex="1" parent="1">
          <mxGeometry x="-4555" y="-2725" width="60" height="30" as="geometry" />
        </mxCell>
        <mxCell id="M40W_fzbE_-INV2t7d-s-41" value="" style="endArrow=classic;html=1;rounded=0;" edge="1" parent="1">
          <mxGeometry width="50" height="50" relative="1" as="geometry">
            <mxPoint x="-4817.5" y="-2679.66" as="sourcePoint" />
            <mxPoint x="-4562.5" y="-2680" as="targetPoint" />
          </mxGeometry>
        </mxCell>
        <mxCell id="M40W_fzbE_-INV2t7d-s-43" value="pressDoor" style="text;html=1;align=center;verticalAlign=middle;resizable=0;points=[];autosize=1;strokeColor=none;fillColor=none;" vertex="1" parent="1">
          <mxGeometry x="-4730" y="-2710" width="80" height="30" as="geometry" />
        </mxCell>
        <mxCell id="M40W_fzbE_-INV2t7d-s-44" value="B)" style="text;html=1;align=center;verticalAlign=middle;resizable=0;points=[];autosize=1;strokeColor=none;fillColor=none;" vertex="1" parent="1">
          <mxGeometry x="-5000" y="-3280" width="40" height="30" as="geometry" />
        </mxCell>
        <mxCell id="M40W_fzbE_-INV2t7d-s-46" value="&lt;span id=&quot;docs-internal-guid-6a302d5c-7fff-0383-b470-11f8a27b88d4&quot;&gt;&lt;p style=&quot;line-height:1.3800000000000001;margin-top:12pt;margin-bottom:12pt;&quot; dir=&quot;ltr&quot;&gt;&lt;br&gt;&lt;/p&gt;&lt;/span&gt;" style="text;html=1;align=center;verticalAlign=middle;resizable=0;points=[];autosize=1;strokeColor=none;fillColor=none;rounded=0;labelBackgroundColor=none;" vertex="1" parent="1">
          <mxGeometry x="-4585" y="-3015" width="20" height="60" as="geometry" />
        </mxCell>
        <mxCell id="M40W_fzbE_-INV2t7d-s-47" style="edgeStyle=orthogonalEdgeStyle;rounded=0;orthogonalLoop=1;jettySize=auto;html=1;exitX=0.5;exitY=1;exitDx=0;exitDy=0;dashed=1;" edge="1" parent="1" source="M40W_fzbE_-INV2t7d-s-48">
          <mxGeometry relative="1" as="geometry">
            <mxPoint x="-4830" y="-2930.0689655172414" as="targetPoint" />
          </mxGeometry>
        </mxCell>
        <mxCell id="M40W_fzbE_-INV2t7d-s-48" value="Person" style="rounded=0;whiteSpace=wrap;html=1;labelBackgroundColor=none;" vertex="1" parent="1">
          <mxGeometry x="-4890" y="-3280" width="120" height="60" as="geometry" />
        </mxCell>
        <mxCell id="M40W_fzbE_-INV2t7d-s-49" style="edgeStyle=orthogonalEdgeStyle;rounded=0;orthogonalLoop=1;jettySize=auto;html=1;dashed=1;" edge="1" parent="1">
          <mxGeometry relative="1" as="geometry">
            <mxPoint x="-4550.03" y="-2928" as="targetPoint" />
            <mxPoint x="-4550" y="-3218" as="sourcePoint" />
            <Array as="points">
              <mxPoint x="-4550.34" y="-2938" />
              <mxPoint x="-4550.34" y="-2938" />
            </Array>
          </mxGeometry>
        </mxCell>
        <mxCell id="M40W_fzbE_-INV2t7d-s-50" value="Lift" style="rounded=0;whiteSpace=wrap;html=1;labelBackgroundColor=none;" vertex="1" parent="1">
          <mxGeometry x="-4610" y="-3280" width="120" height="60" as="geometry" />
        </mxCell>
        <mxCell id="M40W_fzbE_-INV2t7d-s-51" value="" style="endArrow=open;startArrow=none;endFill=0;startFill=0;endSize=8;html=1;verticalAlign=bottom;labelBackgroundColor=none;strokeWidth=1;rounded=0;" edge="1" parent="1">
          <mxGeometry width="160" relative="1" as="geometry">
            <mxPoint x="-4820" y="-3148" as="sourcePoint" />
            <mxPoint x="-4560" y="-3148" as="targetPoint" />
          </mxGeometry>
        </mxCell>
        <mxCell id="M40W_fzbE_-INV2t7d-s-52" value="Press Door" style="text;html=1;align=center;verticalAlign=middle;resizable=0;points=[];autosize=1;strokeColor=none;fillColor=none;" vertex="1" parent="1">
          <mxGeometry x="-4725" y="-3188" width="80" height="30" as="geometry" />
        </mxCell>
        <mxCell id="M40W_fzbE_-INV2t7d-s-57" value="" style="edgeStyle=orthogonalEdgeStyle;rounded=0;orthogonalLoop=1;jettySize=auto;html=1;exitX=0.5;exitY=1;exitDx=0;exitDy=0;dashed=1;endArrow=none;endFill=0;" edge="1" parent="1" source="M40W_fzbE_-INV2t7d-s-50">
          <mxGeometry relative="1" as="geometry">
            <mxPoint x="-4550" y="-3158" as="targetPoint" />
            <mxPoint x="-4550" y="-3220" as="sourcePoint" />
          </mxGeometry>
        </mxCell>
        <mxCell id="M40W_fzbE_-INV2t7d-s-61" value="" style="endArrow=open;startArrow=none;endFill=0;startFill=0;endSize=8;html=1;verticalAlign=bottom;labelBackgroundColor=none;strokeWidth=1;rounded=0;" edge="1" parent="1">
          <mxGeometry width="160" relative="1" as="geometry">
            <mxPoint x="-4820" y="-3098" as="sourcePoint" />
            <mxPoint x="-4560" y="-3098" as="targetPoint" />
          </mxGeometry>
        </mxCell>
        <mxCell id="M40W_fzbE_-INV2t7d-s-62" value="pressButton&amp;nbsp;" style="text;html=1;align=center;verticalAlign=middle;resizable=0;points=[];autosize=1;strokeColor=none;fillColor=none;" vertex="1" parent="1">
          <mxGeometry x="-4735" y="-3128" width="90" height="30" as="geometry" />
        </mxCell>
        <mxCell id="M40W_fzbE_-INV2t7d-s-69" value="" style="rounded=0;whiteSpace=wrap;html=1;" vertex="1" parent="1">
          <mxGeometry x="-4930" y="-2360" width="490" height="170" as="geometry" />
        </mxCell>
        <mxCell id="M40W_fzbE_-INV2t7d-s-70" value="D)" style="text;html=1;align=center;verticalAlign=middle;resizable=0;points=[];autosize=1;strokeColor=none;fillColor=none;" vertex="1" parent="1">
          <mxGeometry x="-5000" y="-2430" width="40" height="30" as="geometry" />
        </mxCell>
        <mxCell id="M40W_fzbE_-INV2t7d-s-71" value="&lt;span id=&quot;docs-internal-guid-6a302d5c-7fff-0383-b470-11f8a27b88d4&quot;&gt;&lt;p style=&quot;line-height:1.3800000000000001;margin-top:12pt;margin-bottom:12pt;&quot; dir=&quot;ltr&quot;&gt;&lt;br&gt;&lt;/p&gt;&lt;/span&gt;" style="text;html=1;align=center;verticalAlign=middle;resizable=0;points=[];autosize=1;strokeColor=none;fillColor=none;rounded=0;labelBackgroundColor=none;" vertex="1" parent="1">
          <mxGeometry x="-4585" y="-2267" width="20" height="60" as="geometry" />
        </mxCell>
        <mxCell id="M40W_fzbE_-INV2t7d-s-72" style="edgeStyle=orthogonalEdgeStyle;rounded=0;orthogonalLoop=1;jettySize=auto;html=1;exitX=0.5;exitY=1;exitDx=0;exitDy=0;dashed=1;" edge="1" parent="1" source="M40W_fzbE_-INV2t7d-s-73">
          <mxGeometry relative="1" as="geometry">
            <mxPoint x="-4830" y="-2080.0689655172414" as="targetPoint" />
          </mxGeometry>
        </mxCell>
        <mxCell id="M40W_fzbE_-INV2t7d-s-73" value="Person" style="rounded=0;whiteSpace=wrap;html=1;labelBackgroundColor=none;" vertex="1" parent="1">
          <mxGeometry x="-4890" y="-2430" width="120" height="60" as="geometry" />
        </mxCell>
        <mxCell id="M40W_fzbE_-INV2t7d-s-74" style="edgeStyle=orthogonalEdgeStyle;rounded=0;orthogonalLoop=1;jettySize=auto;html=1;dashed=1;" edge="1" parent="1">
          <mxGeometry relative="1" as="geometry">
            <mxPoint x="-4550.03" y="-2078" as="targetPoint" />
            <mxPoint x="-4550" y="-2368" as="sourcePoint" />
            <Array as="points">
              <mxPoint x="-4550.34" y="-2088" />
              <mxPoint x="-4550.34" y="-2088" />
            </Array>
          </mxGeometry>
        </mxCell>
        <mxCell id="M40W_fzbE_-INV2t7d-s-75" value="Lift" style="rounded=0;whiteSpace=wrap;html=1;labelBackgroundColor=none;" vertex="1" parent="1">
          <mxGeometry x="-4610" y="-2430" width="120" height="60" as="geometry" />
        </mxCell>
        <mxCell id="M40W_fzbE_-INV2t7d-s-78" value="" style="edgeStyle=elbowEdgeStyle;elbow=horizontal;endArrow=classic;html=1;curved=0;rounded=0;endSize=8;startSize=8;" edge="1" parent="1">
          <mxGeometry width="50" height="50" relative="1" as="geometry">
            <mxPoint x="-4545" y="-2300" as="sourcePoint" />
            <mxPoint x="-4535" y="-2260" as="targetPoint" />
            <Array as="points">
              <mxPoint x="-4515" y="-2280" />
            </Array>
          </mxGeometry>
        </mxCell>
        <mxCell id="M40W_fzbE_-INV2t7d-s-79" value="" style="edgeStyle=orthogonalEdgeStyle;rounded=0;orthogonalLoop=1;jettySize=auto;html=1;exitX=0.5;exitY=1;exitDx=0;exitDy=0;dashed=1;endArrow=none;endFill=0;" edge="1" parent="1" source="M40W_fzbE_-INV2t7d-s-75">
          <mxGeometry relative="1" as="geometry">
            <mxPoint x="-4550" y="-2308" as="targetPoint" />
            <mxPoint x="-4550" y="-2370" as="sourcePoint" />
          </mxGeometry>
        </mxCell>
        <mxCell id="M40W_fzbE_-INV2t7d-s-80" value="Loops&lt;div&gt;{Time.3s}&lt;/div&gt;" style="text;html=1;align=center;verticalAlign=middle;resizable=0;points=[];autosize=1;strokeColor=none;fillColor=none;" vertex="1" parent="1">
          <mxGeometry x="-4930" y="-2360" width="70" height="40" as="geometry" />
        </mxCell>
        <mxCell id="M40W_fzbE_-INV2t7d-s-81" value="&lt;div&gt;Start&lt;/div&gt;Moving" style="text;html=1;align=center;verticalAlign=middle;resizable=0;points=[];autosize=1;strokeColor=none;fillColor=none;" vertex="1" parent="1">
          <mxGeometry x="-4510" y="-2300" width="60" height="40" as="geometry" />
        </mxCell>
        <mxCell id="M40W_fzbE_-INV2t7d-s-83" value="pressButton" style="text;html=1;align=center;verticalAlign=middle;resizable=0;points=[];autosize=1;strokeColor=none;fillColor=none;" vertex="1" parent="1">
          <mxGeometry x="-4740" y="-2240" width="90" height="30" as="geometry" />
        </mxCell>
        <mxCell id="M40W_fzbE_-INV2t7d-s-85" value="" style="endArrow=open;startArrow=none;endFill=0;startFill=0;endSize=8;html=1;verticalAlign=bottom;labelBackgroundColor=none;strokeWidth=1;rounded=0;" edge="1" parent="1">
          <mxGeometry width="160" relative="1" as="geometry">
            <mxPoint x="-4565" y="-2210" as="sourcePoint" />
            <mxPoint x="-4825" y="-2210" as="targetPoint" />
          </mxGeometry>
        </mxCell>
        <mxCell id="M40W_fzbE_-INV2t7d-s-88" value="E)" style="text;html=1;align=center;verticalAlign=middle;resizable=0;points=[];autosize=1;strokeColor=none;fillColor=none;" vertex="1" parent="1">
          <mxGeometry x="-5000" y="-2030" width="40" height="30" as="geometry" />
        </mxCell>
        <mxCell id="M40W_fzbE_-INV2t7d-s-100" value="&amp;lt;&amp;lt;Activate&amp;gt;&amp;gt;&lt;div&gt;&lt;b&gt;Person&lt;/b&gt;&lt;/div&gt;" style="swimlane;fontStyle=0;childLayout=stackLayout;horizontal=1;startSize=26;fillColor=none;horizontalStack=0;resizeParent=1;resizeParentMax=0;resizeLast=0;collapsible=1;marginBottom=0;whiteSpace=wrap;html=1;" vertex="1" parent="1">
          <mxGeometry x="-4930" y="-2030" width="140" height="110" as="geometry">
            <mxRectangle x="-4860" y="-2010" width="110" height="40" as="alternateBounds" />
          </mxGeometry>
        </mxCell>
        <mxCell id="M40W_fzbE_-INV2t7d-s-101" value="+ pressDoor ()&lt;div&gt;&amp;lt;&amp;lt; Signal &amp;gt;&amp;gt;&lt;/div&gt;" style="text;strokeColor=none;fillColor=none;align=left;verticalAlign=top;spacingLeft=4;spacingRight=4;overflow=hidden;rotatable=0;points=[[0,0.5],[1,0.5]];portConstraint=eastwest;whiteSpace=wrap;html=1;" vertex="1" parent="M40W_fzbE_-INV2t7d-s-100">
          <mxGeometry y="26" width="140" height="44" as="geometry" />
        </mxCell>
        <mxCell id="M40W_fzbE_-INV2t7d-s-102" value="+ pressButton (Floor)&lt;div&gt;&amp;lt;&amp;lt; Signal&amp;gt;&amp;gt;&lt;/div&gt;" style="text;strokeColor=none;fillColor=none;align=left;verticalAlign=top;spacingLeft=4;spacingRight=4;overflow=hidden;rotatable=0;points=[[0,0.5],[1,0.5]];portConstraint=eastwest;whiteSpace=wrap;html=1;" vertex="1" parent="M40W_fzbE_-INV2t7d-s-100">
          <mxGeometry y="70" width="140" height="40" as="geometry" />
        </mxCell>
        <mxCell id="M40W_fzbE_-INV2t7d-s-104" value="" style="endArrow=open;startArrow=none;endFill=0;startFill=0;endSize=8;html=1;verticalAlign=bottom;labelBackgroundColor=none;strokeWidth=1;rounded=0;" edge="1" parent="1">
          <mxGeometry width="160" relative="1" as="geometry">
            <mxPoint x="-4860" y="-1910" as="sourcePoint" />
            <mxPoint x="-4860" y="-1840" as="targetPoint" />
          </mxGeometry>
        </mxCell>
        <mxCell id="M40W_fzbE_-INV2t7d-s-117" value="List" style="swimlane;fontStyle=1;align=center;verticalAlign=top;childLayout=stackLayout;horizontal=1;startSize=26;horizontalStack=0;resizeParent=1;resizeParentMax=0;resizeLast=0;collapsible=1;marginBottom=0;whiteSpace=wrap;html=1;" vertex="1" parent="1">
          <mxGeometry x="-4930" y="-1830" width="230" height="198" as="geometry" />
        </mxCell>
        <mxCell id="M40W_fzbE_-INV2t7d-s-118" value="+ currentFloor" style="text;strokeColor=none;fillColor=none;align=left;verticalAlign=top;spacingLeft=4;spacingRight=4;overflow=hidden;rotatable=0;points=[[0,0.5],[1,0.5]];portConstraint=eastwest;whiteSpace=wrap;html=1;" vertex="1" parent="M40W_fzbE_-INV2t7d-s-117">
          <mxGeometry y="26" width="230" height="26" as="geometry" />
        </mxCell>
        <mxCell id="M40W_fzbE_-INV2t7d-s-119" value="" style="line;strokeWidth=1;fillColor=none;align=left;verticalAlign=middle;spacingTop=-1;spacingLeft=3;spacingRight=3;rotatable=0;labelPosition=right;points=[];portConstraint=eastwest;strokeColor=inherit;" vertex="1" parent="M40W_fzbE_-INV2t7d-s-117">
          <mxGeometry y="52" width="230" height="8" as="geometry" />
        </mxCell>
        <mxCell id="M40W_fzbE_-INV2t7d-s-120" value="+ floorReached (Floor:Integrated)" style="text;strokeColor=none;fillColor=none;align=left;verticalAlign=top;spacingLeft=4;spacingRight=4;overflow=hidden;rotatable=0;points=[[0,0.5],[1,0.5]];portConstraint=eastwest;whiteSpace=wrap;html=1;" vertex="1" parent="M40W_fzbE_-INV2t7d-s-117">
          <mxGeometry y="60" width="230" height="26" as="geometry" />
        </mxCell>
        <mxCell id="M40W_fzbE_-INV2t7d-s-125" value="" style="line;strokeWidth=1;fillColor=none;align=left;verticalAlign=middle;spacingTop=-1;spacingLeft=3;spacingRight=3;rotatable=0;labelPosition=right;points=[];portConstraint=eastwest;strokeColor=inherit;" vertex="1" parent="M40W_fzbE_-INV2t7d-s-117">
          <mxGeometry y="86" width="230" height="8" as="geometry" />
        </mxCell>
        <mxCell id="M40W_fzbE_-INV2t7d-s-124" value="&amp;lt;&amp;lt; reception &amp;gt;&amp;gt;&lt;div&gt;&lt;br&gt;&lt;/div&gt;" style="text;strokeColor=none;fillColor=none;align=left;verticalAlign=top;spacingLeft=4;spacingRight=4;overflow=hidden;rotatable=0;points=[[0,0.5],[1,0.5]];portConstraint=eastwest;whiteSpace=wrap;html=1;" vertex="1" parent="M40W_fzbE_-INV2t7d-s-117">
          <mxGeometry y="94" width="230" height="26" as="geometry" />
        </mxCell>
        <mxCell id="M40W_fzbE_-INV2t7d-s-126" value="&lt;div&gt;startMoving ()&lt;/div&gt;" style="text;strokeColor=none;fillColor=none;align=left;verticalAlign=top;spacingLeft=4;spacingRight=4;overflow=hidden;rotatable=0;points=[[0,0.5],[1,0.5]];portConstraint=eastwest;whiteSpace=wrap;html=1;" vertex="1" parent="M40W_fzbE_-INV2t7d-s-117">
          <mxGeometry y="120" width="230" height="26" as="geometry" />
        </mxCell>
        <mxCell id="M40W_fzbE_-INV2t7d-s-127" value="&lt;div&gt;&amp;lt;&amp;lt; reception &amp;gt;&amp;gt;&lt;/div&gt;" style="text;strokeColor=none;fillColor=none;align=left;verticalAlign=top;spacingLeft=4;spacingRight=4;overflow=hidden;rotatable=0;points=[[0,0.5],[1,0.5]];portConstraint=eastwest;whiteSpace=wrap;html=1;" vertex="1" parent="M40W_fzbE_-INV2t7d-s-117">
          <mxGeometry y="146" width="230" height="26" as="geometry" />
        </mxCell>
        <mxCell id="M40W_fzbE_-INV2t7d-s-128" value="&lt;div&gt;stopMoving ()&lt;/div&gt;" style="text;strokeColor=none;fillColor=none;align=left;verticalAlign=top;spacingLeft=4;spacingRight=4;overflow=hidden;rotatable=0;points=[[0,0.5],[1,0.5]];portConstraint=eastwest;whiteSpace=wrap;html=1;" vertex="1" parent="M40W_fzbE_-INV2t7d-s-117">
          <mxGeometry y="172" width="230" height="26" as="geometry" />
        </mxCell>
      </root>
    </mxGraphModel>
  </diagram>
  <diagram id="QHRTsDhNWNu1jFz0qeYu" name="Task4">
    <mxGraphModel grid="1" page="1" gridSize="10" guides="1" tooltips="1" connect="1" arrows="1" fold="1" pageScale="1" pageWidth="850" pageHeight="1100" math="0" shadow="0">
      <root>
        <mxCell id="0" />
        <mxCell id="1" parent="0" />
        <mxCell id="5A3PmsOywfS7ly8lw-9B-5" style="edgeStyle=orthogonalEdgeStyle;rounded=0;orthogonalLoop=1;jettySize=auto;html=1;entryX=0;entryY=0.5;entryDx=0;entryDy=0;" edge="1" parent="1" source="5A3PmsOywfS7ly8lw-9B-1" target="5A3PmsOywfS7ly8lw-9B-9">
          <mxGeometry relative="1" as="geometry">
            <mxPoint x="117" y="89" as="targetPoint" />
          </mxGeometry>
        </mxCell>
        <mxCell id="5A3PmsOywfS7ly8lw-9B-1" value="" style="ellipse;shape=doubleEllipse;html=1;dashed=0;whiteSpace=wrap;aspect=fixed;" vertex="1" parent="1">
          <mxGeometry x="54" y="70.5" width="37" height="37" as="geometry" />
        </mxCell>
        <mxCell id="5A3PmsOywfS7ly8lw-9B-3" value="A)" style="text;html=1;align=center;verticalAlign=middle;resizable=0;points=[];autosize=1;strokeColor=none;fillColor=none;" vertex="1" parent="1">
          <mxGeometry x="28" y="39" width="30" height="26" as="geometry" />
        </mxCell>
        <mxCell id="5A3PmsOywfS7ly8lw-9B-21" style="edgeStyle=orthogonalEdgeStyle;rounded=0;orthogonalLoop=1;jettySize=auto;html=1;" edge="1" parent="1" source="5A3PmsOywfS7ly8lw-9B-8" target="5A3PmsOywfS7ly8lw-9B-14">
          <mxGeometry relative="1" as="geometry" />
        </mxCell>
        <mxCell id="5A3PmsOywfS7ly8lw-9B-8" value="Pull Gear Up" style="html=1;align=center;verticalAlign=top;rounded=1;absoluteArcSize=1;arcSize=10;dashed=0;whiteSpace=wrap;" vertex="1" parent="1">
          <mxGeometry x="418" y="69" width="140" height="40" as="geometry" />
        </mxCell>
        <mxCell id="5A3PmsOywfS7ly8lw-9B-13" style="edgeStyle=orthogonalEdgeStyle;rounded=0;orthogonalLoop=1;jettySize=auto;html=1;" edge="1" parent="1" source="5A3PmsOywfS7ly8lw-9B-9" target="5A3PmsOywfS7ly8lw-9B-12">
          <mxGeometry relative="1" as="geometry" />
        </mxCell>
        <mxCell id="5A3PmsOywfS7ly8lw-9B-9" value="In Hangar" style="swimlane;" vertex="1" parent="1">
          <mxGeometry x="117" y="71" width="125" height="36" as="geometry" />
        </mxCell>
        <mxCell id="5A3PmsOywfS7ly8lw-9B-20" style="edgeStyle=orthogonalEdgeStyle;rounded=0;orthogonalLoop=1;jettySize=auto;html=1;entryX=0;entryY=0.5;entryDx=0;entryDy=0;" edge="1" parent="1" source="5A3PmsOywfS7ly8lw-9B-12" target="5A3PmsOywfS7ly8lw-9B-8">
          <mxGeometry relative="1" as="geometry" />
        </mxCell>
        <mxCell id="5A3PmsOywfS7ly8lw-9B-33" style="edgeStyle=orthogonalEdgeStyle;rounded=0;orthogonalLoop=1;jettySize=auto;html=1;" edge="1" parent="1" source="5A3PmsOywfS7ly8lw-9B-12" target="5A3PmsOywfS7ly8lw-9B-23">
          <mxGeometry relative="1" as="geometry" />
        </mxCell>
        <mxCell id="5A3PmsOywfS7ly8lw-9B-12" value="Boarding" style="swimlane;startSize=23;" vertex="1" parent="1">
          <mxGeometry x="268" y="71" width="125" height="36" as="geometry" />
        </mxCell>
        <mxCell id="5A3PmsOywfS7ly8lw-9B-16" style="edgeStyle=orthogonalEdgeStyle;rounded=0;orthogonalLoop=1;jettySize=auto;html=1;" edge="1" parent="1" source="5A3PmsOywfS7ly8lw-9B-14" target="5A3PmsOywfS7ly8lw-9B-15">
          <mxGeometry relative="1" as="geometry">
            <Array as="points">
              <mxPoint x="652" y="139" />
              <mxPoint x="583" y="139" />
            </Array>
          </mxGeometry>
        </mxCell>
        <mxCell id="5A3PmsOywfS7ly8lw-9B-26" style="edgeStyle=orthogonalEdgeStyle;rounded=0;orthogonalLoop=1;jettySize=auto;html=1;entryX=1;entryY=0.5;entryDx=0;entryDy=0;" edge="1" parent="1" source="5A3PmsOywfS7ly8lw-9B-14" target="5A3PmsOywfS7ly8lw-9B-22">
          <mxGeometry relative="1" as="geometry">
            <Array as="points">
              <mxPoint x="765" y="89" />
              <mxPoint x="765" y="263" />
            </Array>
          </mxGeometry>
        </mxCell>
        <mxCell id="5A3PmsOywfS7ly8lw-9B-27" style="edgeStyle=orthogonalEdgeStyle;rounded=0;orthogonalLoop=1;jettySize=auto;html=1;entryX=1;entryY=0.5;entryDx=0;entryDy=0;" edge="1" parent="1" source="5A3PmsOywfS7ly8lw-9B-14" target="5A3PmsOywfS7ly8lw-9B-24">
          <mxGeometry relative="1" as="geometry">
            <Array as="points">
              <mxPoint x="775" y="89" />
              <mxPoint x="775" y="343" />
            </Array>
          </mxGeometry>
        </mxCell>
        <mxCell id="5A3PmsOywfS7ly8lw-9B-14" value="In Air" style="swimlane;startSize=23;" vertex="1" parent="1">
          <mxGeometry x="583" y="71" width="125" height="36" as="geometry" />
        </mxCell>
        <mxCell id="5A3PmsOywfS7ly8lw-9B-18" style="edgeStyle=orthogonalEdgeStyle;rounded=0;orthogonalLoop=1;jettySize=auto;html=1;" edge="1" parent="1" source="5A3PmsOywfS7ly8lw-9B-15">
          <mxGeometry relative="1" as="geometry">
            <mxPoint x="670" y="109" as="targetPoint" />
            <Array as="points">
              <mxPoint x="690" y="139" />
              <mxPoint x="670" y="139" />
            </Array>
          </mxGeometry>
        </mxCell>
        <mxCell id="5A3PmsOywfS7ly8lw-9B-15" value="Flight Control" style="html=1;align=center;verticalAlign=top;rounded=1;absoluteArcSize=1;arcSize=10;dashed=0;whiteSpace=wrap;" vertex="1" parent="1">
          <mxGeometry x="565" y="168" width="140" height="40" as="geometry" />
        </mxCell>
        <mxCell id="5A3PmsOywfS7ly8lw-9B-17" value="during flight" style="text;html=1;align=center;verticalAlign=middle;resizable=0;points=[];autosize=1;strokeColor=none;fillColor=none;" vertex="1" parent="1">
          <mxGeometry x="596" y="139" width="80" height="26" as="geometry" />
        </mxCell>
        <mxCell id="5A3PmsOywfS7ly8lw-9B-29" style="edgeStyle=orthogonalEdgeStyle;rounded=0;orthogonalLoop=1;jettySize=auto;html=1;entryX=1;entryY=0.5;entryDx=0;entryDy=0;" edge="1" parent="1" source="5A3PmsOywfS7ly8lw-9B-22" target="5A3PmsOywfS7ly8lw-9B-25">
          <mxGeometry relative="1" as="geometry" />
        </mxCell>
        <mxCell id="5A3PmsOywfS7ly8lw-9B-22" value="Pull Gear Down" style="html=1;align=center;verticalAlign=top;rounded=1;absoluteArcSize=1;arcSize=10;dashed=0;whiteSpace=wrap;" vertex="1" parent="1">
          <mxGeometry x="546" y="243" width="140" height="40" as="geometry" />
        </mxCell>
        <mxCell id="5A3PmsOywfS7ly8lw-9B-32" style="edgeStyle=orthogonalEdgeStyle;rounded=0;orthogonalLoop=1;jettySize=auto;html=1;entryX=0.5;entryY=1;entryDx=0;entryDy=0;" edge="1" parent="1" source="5A3PmsOywfS7ly8lw-9B-23" target="5A3PmsOywfS7ly8lw-9B-8">
          <mxGeometry relative="1" as="geometry" />
        </mxCell>
        <mxCell id="5A3PmsOywfS7ly8lw-9B-23" value="Take off" style="swimlane;startSize=23;" vertex="1" parent="1">
          <mxGeometry x="268" y="145" width="125" height="36" as="geometry" />
        </mxCell>
        <mxCell id="5A3PmsOywfS7ly8lw-9B-30" style="edgeStyle=orthogonalEdgeStyle;rounded=0;orthogonalLoop=1;jettySize=auto;html=1;entryX=0.25;entryY=1;entryDx=0;entryDy=0;" edge="1" parent="1" source="5A3PmsOywfS7ly8lw-9B-24" target="5A3PmsOywfS7ly8lw-9B-12">
          <mxGeometry relative="1" as="geometry">
            <Array as="points">
              <mxPoint x="225" y="344" />
              <mxPoint x="225" y="128" />
              <mxPoint x="299" y="128" />
            </Array>
          </mxGeometry>
        </mxCell>
        <mxCell id="5A3PmsOywfS7ly8lw-9B-31" value="On completion" style="edgeLabel;html=1;align=center;verticalAlign=middle;resizable=0;points=[];" connectable="0" vertex="1" parent="5A3PmsOywfS7ly8lw-9B-30">
          <mxGeometry x="-0.3317" y="1" relative="1" as="geometry">
            <mxPoint x="-1" y="9" as="offset" />
          </mxGeometry>
        </mxCell>
        <mxCell id="5A3PmsOywfS7ly8lw-9B-24" value="Landing" style="swimlane;startSize=23;" vertex="1" parent="1">
          <mxGeometry x="583" y="326" width="125" height="36" as="geometry" />
        </mxCell>
        <mxCell id="5A3PmsOywfS7ly8lw-9B-25" value="" style="ellipse;html=1;shape=endState;fillColor=strokeColor;" vertex="1" parent="1">
          <mxGeometry x="483" y="248" width="30" height="30" as="geometry" />
        </mxCell>
        <mxCell id="5A3PmsOywfS7ly8lw-9B-28" value="Landing&lt;br&gt;Permit" style="text;html=1;align=center;verticalAlign=middle;resizable=0;points=[];autosize=1;strokeColor=none;fillColor=none;" vertex="1" parent="1">
          <mxGeometry x="767" y="193" width="61" height="41" as="geometry" />
        </mxCell>
        <mxCell id="5A3PmsOywfS7ly8lw-9B-34" value="Take Off Permit" style="text;html=1;align=center;verticalAlign=middle;resizable=0;points=[];autosize=1;strokeColor=none;fillColor=none;" vertex="1" parent="1">
          <mxGeometry x="330" y="113" width="100" height="26" as="geometry" />
        </mxCell>
        <mxCell id="5A3PmsOywfS7ly8lw-9B-35" value="B)" style="text;html=1;align=center;verticalAlign=middle;resizable=0;points=[];autosize=1;strokeColor=none;fillColor=none;" vertex="1" parent="1">
          <mxGeometry x="35" y="362" width="30" height="26" as="geometry" />
        </mxCell>
        <mxCell id="C4SdScVBxgCHNVKgiwub-10" style="edgeStyle=orthogonalEdgeStyle;rounded=0;orthogonalLoop=1;jettySize=auto;html=1;entryX=0.25;entryY=0;entryDx=0;entryDy=0;" edge="1" parent="1" source="C4SdScVBxgCHNVKgiwub-2" target="C4SdScVBxgCHNVKgiwub-9">
          <mxGeometry relative="1" as="geometry" />
        </mxCell>
        <mxCell id="C4SdScVBxgCHNVKgiwub-2" value="Take Off" style="swimlane;startSize=23;" vertex="1" parent="1">
          <mxGeometry x="58" y="411" width="260" height="179" as="geometry" />
        </mxCell>
        <mxCell id="C4SdScVBxgCHNVKgiwub-21" style="edgeStyle=orthogonalEdgeStyle;rounded=0;orthogonalLoop=1;jettySize=auto;html=1;" edge="1" parent="C4SdScVBxgCHNVKgiwub-2" source="C4SdScVBxgCHNVKgiwub-4" target="C4SdScVBxgCHNVKgiwub-12">
          <mxGeometry relative="1" as="geometry" />
        </mxCell>
        <mxCell id="C4SdScVBxgCHNVKgiwub-4" value="" style="ellipse;shape=doubleEllipse;html=1;dashed=0;whiteSpace=wrap;aspect=fixed;" vertex="1" parent="C4SdScVBxgCHNVKgiwub-2">
          <mxGeometry x="115" y="38" width="22" height="22" as="geometry" />
        </mxCell>
        <mxCell id="C4SdScVBxgCHNVKgiwub-18" style="edgeStyle=orthogonalEdgeStyle;rounded=0;orthogonalLoop=1;jettySize=auto;html=1;exitX=1;exitY=0.5;exitDx=0;exitDy=0;" edge="1" parent="C4SdScVBxgCHNVKgiwub-2" source="C4SdScVBxgCHNVKgiwub-12">
          <mxGeometry relative="1" as="geometry">
            <mxPoint x="180.91998291015625" y="116.31997680664062" as="targetPoint" />
            <Array as="points">
              <mxPoint x="224" y="95" />
              <mxPoint x="224" y="116" />
            </Array>
          </mxGeometry>
        </mxCell>
        <mxCell id="C4SdScVBxgCHNVKgiwub-19" style="edgeStyle=orthogonalEdgeStyle;rounded=0;orthogonalLoop=1;jettySize=auto;html=1;" edge="1" parent="C4SdScVBxgCHNVKgiwub-2" source="C4SdScVBxgCHNVKgiwub-12" target="C4SdScVBxgCHNVKgiwub-15">
          <mxGeometry relative="1" as="geometry" />
        </mxCell>
        <mxCell id="C4SdScVBxgCHNVKgiwub-12" value="radioComm" style="swimlane;startSize=23;" vertex="1" parent="C4SdScVBxgCHNVKgiwub-2">
          <mxGeometry x="63.5" y="77" width="125" height="36" as="geometry" />
        </mxCell>
        <mxCell id="C4SdScVBxgCHNVKgiwub-15" value="" style="ellipse;html=1;shape=endState;fillColor=strokeColor;" vertex="1" parent="C4SdScVBxgCHNVKgiwub-2">
          <mxGeometry x="111" y="147" width="30" height="30" as="geometry" />
        </mxCell>
        <mxCell id="C4SdScVBxgCHNVKgiwub-26" value="while on flight" style="text;html=1;align=center;verticalAlign=middle;resizable=0;points=[];autosize=1;strokeColor=none;fillColor=none;" vertex="1" parent="C4SdScVBxgCHNVKgiwub-2">
          <mxGeometry x="169" y="121" width="91" height="26" as="geometry" />
        </mxCell>
        <mxCell id="C4SdScVBxgCHNVKgiwub-11" style="edgeStyle=orthogonalEdgeStyle;rounded=0;orthogonalLoop=1;jettySize=auto;html=1;entryX=0.75;entryY=0;entryDx=0;entryDy=0;" edge="1" parent="1" source="C4SdScVBxgCHNVKgiwub-3" target="C4SdScVBxgCHNVKgiwub-9">
          <mxGeometry relative="1" as="geometry" />
        </mxCell>
        <mxCell id="C4SdScVBxgCHNVKgiwub-3" value="Landing" style="swimlane;startSize=23;" vertex="1" parent="1">
          <mxGeometry x="463" y="411" width="267" height="179" as="geometry" />
        </mxCell>
        <mxCell id="C4SdScVBxgCHNVKgiwub-22" style="edgeStyle=orthogonalEdgeStyle;rounded=0;orthogonalLoop=1;jettySize=auto;html=1;" edge="1" parent="C4SdScVBxgCHNVKgiwub-3" source="C4SdScVBxgCHNVKgiwub-5" target="C4SdScVBxgCHNVKgiwub-13">
          <mxGeometry relative="1" as="geometry" />
        </mxCell>
        <mxCell id="C4SdScVBxgCHNVKgiwub-5" value="" style="ellipse;shape=doubleEllipse;html=1;dashed=0;whiteSpace=wrap;aspect=fixed;" vertex="1" parent="C4SdScVBxgCHNVKgiwub-3">
          <mxGeometry x="125" y="38" width="16" height="16" as="geometry" />
        </mxCell>
        <mxCell id="C4SdScVBxgCHNVKgiwub-24" style="edgeStyle=orthogonalEdgeStyle;rounded=0;orthogonalLoop=1;jettySize=auto;html=1;" edge="1" parent="C4SdScVBxgCHNVKgiwub-3" source="C4SdScVBxgCHNVKgiwub-13" target="C4SdScVBxgCHNVKgiwub-16">
          <mxGeometry relative="1" as="geometry" />
        </mxCell>
        <mxCell id="C4SdScVBxgCHNVKgiwub-13" value="radioComm" style="swimlane;startSize=23;" vertex="1" parent="C4SdScVBxgCHNVKgiwub-3">
          <mxGeometry x="70.5" y="71.5" width="125" height="36" as="geometry" />
        </mxCell>
        <mxCell id="C4SdScVBxgCHNVKgiwub-16" value="" style="ellipse;html=1;shape=endState;fillColor=strokeColor;" vertex="1" parent="C4SdScVBxgCHNVKgiwub-3">
          <mxGeometry x="118" y="133" width="30" height="30" as="geometry" />
        </mxCell>
        <mxCell id="C4SdScVBxgCHNVKgiwub-25" style="edgeStyle=orthogonalEdgeStyle;rounded=0;orthogonalLoop=1;jettySize=auto;html=1;exitX=1;exitY=0.5;exitDx=0;exitDy=0;" edge="1" parent="C4SdScVBxgCHNVKgiwub-3" source="C4SdScVBxgCHNVKgiwub-13">
          <mxGeometry relative="1" as="geometry">
            <mxPoint x="184.99998291015618" y="110.31997680664062" as="targetPoint" />
            <mxPoint x="193.07999999999993" y="89" as="sourcePoint" />
            <Array as="points">
              <mxPoint x="228" y="90" />
              <mxPoint x="228" y="110" />
            </Array>
          </mxGeometry>
        </mxCell>
        <mxCell id="C4SdScVBxgCHNVKgiwub-27" value="while on flight" style="text;html=1;align=center;verticalAlign=middle;resizable=0;points=[];autosize=1;strokeColor=none;fillColor=none;" vertex="1" parent="C4SdScVBxgCHNVKgiwub-3">
          <mxGeometry x="166" y="113" width="91" height="26" as="geometry" />
        </mxCell>
        <mxCell id="C4SdScVBxgCHNVKgiwub-9" value="Free&lt;div&gt;Runway&lt;/div&gt;&lt;div&gt;Flight&lt;/div&gt;" style="shape=step;perimeter=stepPerimeter;whiteSpace=wrap;html=1;fixedSize=1;" vertex="1" parent="1">
          <mxGeometry x="330" y="590" width="120" height="80" as="geometry" />
        </mxCell>
        <mxCell id="C4SdScVBxgCHNVKgiwub-28" value="C)" style="text;html=1;align=center;verticalAlign=middle;resizable=0;points=[];autosize=1;strokeColor=none;fillColor=none;" vertex="1" parent="1">
          <mxGeometry x="14" y="694" width="31" height="26" as="geometry" />
        </mxCell>
        <mxCell id="C4SdScVBxgCHNVKgiwub-29" value="In Flight" style="swimlane;startSize=23;" vertex="1" parent="1">
          <mxGeometry x="45" y="701" width="260" height="179" as="geometry" />
        </mxCell>
        <mxCell id="p-g1qzpBU02DaRpgCgSp-4" style="edgeStyle=orthogonalEdgeStyle;rounded=0;orthogonalLoop=1;jettySize=auto;html=1;entryX=0;entryY=0.5;entryDx=0;entryDy=0;" edge="1" parent="C4SdScVBxgCHNVKgiwub-29" source="C4SdScVBxgCHNVKgiwub-37" target="p-g1qzpBU02DaRpgCgSp-1">
          <mxGeometry relative="1" as="geometry" />
        </mxCell>
        <mxCell id="C4SdScVBxgCHNVKgiwub-37" value="" style="ellipse;shape=doubleEllipse;html=1;dashed=0;whiteSpace=wrap;aspect=fixed;" vertex="1" parent="C4SdScVBxgCHNVKgiwub-29">
          <mxGeometry y="88" width="22" height="22" as="geometry" />
        </mxCell>
        <mxCell id="p-g1qzpBU02DaRpgCgSp-5" style="edgeStyle=orthogonalEdgeStyle;rounded=0;orthogonalLoop=1;jettySize=auto;html=1;" edge="1" parent="C4SdScVBxgCHNVKgiwub-29" source="p-g1qzpBU02DaRpgCgSp-1" target="p-g1qzpBU02DaRpgCgSp-2">
          <mxGeometry relative="1" as="geometry" />
        </mxCell>
        <mxCell id="p-g1qzpBU02DaRpgCgSp-1" value="" style="shape=collate;whiteSpace=wrap;html=1;" vertex="1" parent="C4SdScVBxgCHNVKgiwub-29">
          <mxGeometry x="40" y="85.5" width="30" height="27" as="geometry" />
        </mxCell>
        <mxCell id="p-g1qzpBU02DaRpgCgSp-6" style="edgeStyle=orthogonalEdgeStyle;rounded=0;orthogonalLoop=1;jettySize=auto;html=1;entryX=0;entryY=0.5;entryDx=0;entryDy=0;" edge="1" parent="C4SdScVBxgCHNVKgiwub-29" source="p-g1qzpBU02DaRpgCgSp-2" target="p-g1qzpBU02DaRpgCgSp-3">
          <mxGeometry relative="1" as="geometry" />
        </mxCell>
        <mxCell id="p-g1qzpBU02DaRpgCgSp-8" style="edgeStyle=orthogonalEdgeStyle;rounded=0;orthogonalLoop=1;jettySize=auto;html=1;" edge="1" parent="C4SdScVBxgCHNVKgiwub-29" source="p-g1qzpBU02DaRpgCgSp-2">
          <mxGeometry relative="1" as="geometry">
            <mxPoint x="106.90665690104163" y="116.80000813802076" as="targetPoint" />
          </mxGeometry>
        </mxCell>
        <mxCell id="p-g1qzpBU02DaRpgCgSp-2" value="Dinner" style="swimlane;startSize=23;" vertex="1" parent="C4SdScVBxgCHNVKgiwub-29">
          <mxGeometry x="90" y="81" width="89" height="36" as="geometry" />
        </mxCell>
        <mxCell id="p-g1qzpBU02DaRpgCgSp-3" value="" style="ellipse;html=1;shape=endState;fillColor=strokeColor;" vertex="1" parent="C4SdScVBxgCHNVKgiwub-29">
          <mxGeometry x="205" y="84" width="30" height="30" as="geometry" />
        </mxCell>
        <mxCell id="p-g1qzpBU02DaRpgCgSp-7" value="3 h" style="text;html=1;align=center;verticalAlign=middle;resizable=0;points=[];autosize=1;strokeColor=none;fillColor=none;" vertex="1" parent="C4SdScVBxgCHNVKgiwub-29">
          <mxGeometry x="40" y="55" width="35" height="26" as="geometry" />
        </mxCell>
        <mxCell id="p-g1qzpBU02DaRpgCgSp-9" value="1 h" style="text;html=1;align=center;verticalAlign=middle;resizable=0;points=[];autosize=1;strokeColor=none;fillColor=none;" vertex="1" parent="C4SdScVBxgCHNVKgiwub-29">
          <mxGeometry x="102" y="142" width="35" height="26" as="geometry" />
        </mxCell>
        <mxCell id="p-g1qzpBU02DaRpgCgSp-10" value="In Flight" style="swimlane;startSize=23;" vertex="1" parent="1">
          <mxGeometry x="526" y="704" width="260" height="253" as="geometry" />
        </mxCell>
        <mxCell id="p-g1qzpBU02DaRpgCgSp-11" style="edgeStyle=orthogonalEdgeStyle;rounded=0;orthogonalLoop=1;jettySize=auto;html=1;entryX=0.5;entryY=0;entryDx=0;entryDy=0;" edge="1" parent="p-g1qzpBU02DaRpgCgSp-10" source="p-g1qzpBU02DaRpgCgSp-12" target="p-g1qzpBU02DaRpgCgSp-22">
          <mxGeometry relative="1" as="geometry">
            <mxPoint x="40" y="99" as="targetPoint" />
            <Array as="points">
              <mxPoint x="93" y="46" />
            </Array>
          </mxGeometry>
        </mxCell>
        <mxCell id="p-g1qzpBU02DaRpgCgSp-12" value="" style="ellipse;shape=doubleEllipse;html=1;dashed=0;whiteSpace=wrap;aspect=fixed;" vertex="1" parent="p-g1qzpBU02DaRpgCgSp-10">
          <mxGeometry x="13" y="35" width="22" height="22" as="geometry" />
        </mxCell>
        <mxCell id="p-g1qzpBU02DaRpgCgSp-17" value="Damaged" style="swimlane;startSize=23;" vertex="1" parent="p-g1qzpBU02DaRpgCgSp-10">
          <mxGeometry x="160.5" y="79" width="89" height="36" as="geometry" />
        </mxCell>
        <mxCell id="p-g1qzpBU02DaRpgCgSp-18" value="" style="ellipse;html=1;shape=endState;fillColor=strokeColor;" vertex="1" parent="p-g1qzpBU02DaRpgCgSp-10">
          <mxGeometry x="130.5" y="214" width="30" height="30" as="geometry" />
        </mxCell>
        <mxCell id="p-g1qzpBU02DaRpgCgSp-23" style="edgeStyle=orthogonalEdgeStyle;rounded=0;orthogonalLoop=1;jettySize=auto;html=1;entryX=0.5;entryY=0;entryDx=0;entryDy=0;" edge="1" parent="p-g1qzpBU02DaRpgCgSp-10" source="p-g1qzpBU02DaRpgCgSp-22" target="p-g1qzpBU02DaRpgCgSp-17">
          <mxGeometry relative="1" as="geometry">
            <Array as="points">
              <mxPoint x="205" y="71" />
            </Array>
          </mxGeometry>
        </mxCell>
        <mxCell id="p-g1qzpBU02DaRpgCgSp-24" value="malfunction" style="edgeLabel;html=1;align=center;verticalAlign=middle;resizable=0;points=[];" connectable="0" vertex="1" parent="p-g1qzpBU02DaRpgCgSp-23">
          <mxGeometry x="-0.6993" y="2" relative="1" as="geometry">
            <mxPoint x="25" y="-8" as="offset" />
          </mxGeometry>
        </mxCell>
        <mxCell id="p-g1qzpBU02DaRpgCgSp-22" value="" style="rhombus;whiteSpace=wrap;html=1;" vertex="1" parent="p-g1qzpBU02DaRpgCgSp-10">
          <mxGeometry x="64" y="57" width="57" height="28" as="geometry" />
        </mxCell>
        <mxCell id="p-g1qzpBU02DaRpgCgSp-25" value="Normal" style="swimlane;startSize=23;" vertex="1" parent="p-g1qzpBU02DaRpgCgSp-10">
          <mxGeometry x="17" y="108.5" width="89" height="36" as="geometry" />
        </mxCell>
        <mxCell id="p-g1qzpBU02DaRpgCgSp-30" style="edgeStyle=orthogonalEdgeStyle;rounded=0;orthogonalLoop=1;jettySize=auto;html=1;entryX=0.5;entryY=0;entryDx=0;entryDy=0;" edge="1" parent="p-g1qzpBU02DaRpgCgSp-10" source="p-g1qzpBU02DaRpgCgSp-26" target="p-g1qzpBU02DaRpgCgSp-18">
          <mxGeometry relative="1" as="geometry" />
        </mxCell>
        <mxCell id="p-g1qzpBU02DaRpgCgSp-26" value="Landing" style="swimlane;startSize=23;" vertex="1" parent="p-g1qzpBU02DaRpgCgSp-10">
          <mxGeometry x="17" y="168" width="89" height="36" as="geometry" />
        </mxCell>
        <mxCell id="p-g1qzpBU02DaRpgCgSp-28" style="edgeStyle=orthogonalEdgeStyle;rounded=0;orthogonalLoop=1;jettySize=auto;html=1;entryX=0.174;entryY=0.044;entryDx=0;entryDy=0;entryPerimeter=0;" edge="1" parent="p-g1qzpBU02DaRpgCgSp-10" source="p-g1qzpBU02DaRpgCgSp-22" target="p-g1qzpBU02DaRpgCgSp-25">
          <mxGeometry relative="1" as="geometry">
            <Array as="points">
              <mxPoint x="32" y="71" />
              <mxPoint x="32" y="89" />
            </Array>
          </mxGeometry>
        </mxCell>
        <mxCell id="p-g1qzpBU02DaRpgCgSp-29" style="edgeStyle=orthogonalEdgeStyle;rounded=0;orthogonalLoop=1;jettySize=auto;html=1;entryX=0.137;entryY=0.078;entryDx=0;entryDy=0;entryPerimeter=0;" edge="1" parent="p-g1qzpBU02DaRpgCgSp-10" target="p-g1qzpBU02DaRpgCgSp-26">
          <mxGeometry relative="1" as="geometry">
            <mxPoint x="29" y="145" as="sourcePoint" />
          </mxGeometry>
        </mxCell>
        <mxCell id="p-g1qzpBU02DaRpgCgSp-21" value="D)" style="text;html=1;align=center;verticalAlign=middle;resizable=0;points=[];autosize=1;strokeColor=none;fillColor=none;" vertex="1" parent="1">
          <mxGeometry x="483" y="692" width="31" height="26" as="geometry" />
        </mxCell>
        <mxCell id="O084-kphwbLlVRHMXl9D-1" value="E)" style="text;html=1;align=center;verticalAlign=middle;resizable=0;points=[];autosize=1;strokeColor=none;fillColor=none;" vertex="1" parent="1">
          <mxGeometry x="5" y="1112" width="30" height="26" as="geometry" />
        </mxCell>
        <mxCell id="O084-kphwbLlVRHMXl9D-4" value="In this case, the system should prioritize the landing process over the dinner. Even though dinner is served during the flight after 3 hours, once the aircraft receives a landing permit, the dinner service would either pause or stop depending on the safety protocols, and the aircraft would immediately transition to the &quot;Landing&quot; state. This ensures that safety-critical actions, such as LANDING, take precedence over passenger services like DINNER." style="text;whiteSpace=wrap;" vertex="1" parent="1">
          <mxGeometry x="28" y="1115" width="800" height="80" as="geometry" />
        </mxCell>
        <mxCell id="O084-kphwbLlVRHMXl9D-5" value="In Flight" style="swimlane;startSize=23;" vertex="1" parent="1">
          <mxGeometry x="203" y="1176" width="439" height="166" as="geometry" />
        </mxCell>
        <mxCell id="O084-kphwbLlVRHMXl9D-6" style="edgeStyle=orthogonalEdgeStyle;rounded=0;orthogonalLoop=1;jettySize=auto;html=1;entryX=0;entryY=0.5;entryDx=0;entryDy=0;" edge="1" parent="O084-kphwbLlVRHMXl9D-5" source="O084-kphwbLlVRHMXl9D-7" target="O084-kphwbLlVRHMXl9D-9">
          <mxGeometry relative="1" as="geometry" />
        </mxCell>
        <mxCell id="O084-kphwbLlVRHMXl9D-7" value="" style="ellipse;shape=doubleEllipse;html=1;dashed=0;whiteSpace=wrap;aspect=fixed;" vertex="1" parent="O084-kphwbLlVRHMXl9D-5">
          <mxGeometry y="88" width="22" height="22" as="geometry" />
        </mxCell>
        <mxCell id="O084-kphwbLlVRHMXl9D-8" style="edgeStyle=orthogonalEdgeStyle;rounded=0;orthogonalLoop=1;jettySize=auto;html=1;" edge="1" parent="O084-kphwbLlVRHMXl9D-5" source="O084-kphwbLlVRHMXl9D-9" target="O084-kphwbLlVRHMXl9D-12">
          <mxGeometry relative="1" as="geometry" />
        </mxCell>
        <mxCell id="O084-kphwbLlVRHMXl9D-9" value="" style="shape=collate;whiteSpace=wrap;html=1;" vertex="1" parent="O084-kphwbLlVRHMXl9D-5">
          <mxGeometry x="40" y="85.5" width="30" height="27" as="geometry" />
        </mxCell>
        <mxCell id="O084-kphwbLlVRHMXl9D-20" style="edgeStyle=orthogonalEdgeStyle;rounded=0;orthogonalLoop=1;jettySize=auto;html=1;entryX=0;entryY=0.5;entryDx=0;entryDy=0;" edge="1" parent="O084-kphwbLlVRHMXl9D-5" source="O084-kphwbLlVRHMXl9D-12" target="O084-kphwbLlVRHMXl9D-18">
          <mxGeometry relative="1" as="geometry" />
        </mxCell>
        <mxCell id="O084-kphwbLlVRHMXl9D-12" value="Dinner" style="swimlane;startSize=23;" vertex="1" parent="O084-kphwbLlVRHMXl9D-5">
          <mxGeometry x="90" y="81" width="89" height="36" as="geometry" />
        </mxCell>
        <mxCell id="O084-kphwbLlVRHMXl9D-13" value="" style="ellipse;html=1;shape=endState;fillColor=strokeColor;" vertex="1" parent="O084-kphwbLlVRHMXl9D-5">
          <mxGeometry x="392" y="84" width="30" height="30" as="geometry" />
        </mxCell>
        <mxCell id="O084-kphwbLlVRHMXl9D-14" value="3 h" style="text;html=1;align=center;verticalAlign=middle;resizable=0;points=[];autosize=1;strokeColor=none;fillColor=none;" vertex="1" parent="O084-kphwbLlVRHMXl9D-5">
          <mxGeometry x="41" y="56" width="35" height="26" as="geometry" />
        </mxCell>
        <mxCell id="O084-kphwbLlVRHMXl9D-22" style="edgeStyle=orthogonalEdgeStyle;rounded=0;orthogonalLoop=1;jettySize=auto;html=1;entryX=0;entryY=0.5;entryDx=0;entryDy=0;" edge="1" parent="O084-kphwbLlVRHMXl9D-5" source="O084-kphwbLlVRHMXl9D-18" target="O084-kphwbLlVRHMXl9D-21">
          <mxGeometry relative="1" as="geometry" />
        </mxCell>
        <mxCell id="O084-kphwbLlVRHMXl9D-24" value="End dinner" style="edgeLabel;html=1;align=center;verticalAlign=middle;resizable=0;points=[];" connectable="0" vertex="1" parent="O084-kphwbLlVRHMXl9D-22">
          <mxGeometry x="-0.2437" y="1" relative="1" as="geometry">
            <mxPoint as="offset" />
          </mxGeometry>
        </mxCell>
        <mxCell id="O084-kphwbLlVRHMXl9D-18" value="" style="shape=collate;whiteSpace=wrap;html=1;" vertex="1" parent="O084-kphwbLlVRHMXl9D-5">
          <mxGeometry x="217" y="85.5" width="30" height="27" as="geometry" />
        </mxCell>
        <mxCell id="O084-kphwbLlVRHMXl9D-19" value="Permission&amp;nbsp;&lt;div&gt;recieved&lt;/div&gt;" style="text;html=1;align=center;verticalAlign=middle;resizable=0;points=[];autosize=1;strokeColor=none;fillColor=none;" vertex="1" parent="O084-kphwbLlVRHMXl9D-5">
          <mxGeometry x="196" y="44.5" width="81" height="41" as="geometry" />
        </mxCell>
        <mxCell id="O084-kphwbLlVRHMXl9D-23" style="edgeStyle=orthogonalEdgeStyle;rounded=0;orthogonalLoop=1;jettySize=auto;html=1;entryX=0;entryY=0.5;entryDx=0;entryDy=0;" edge="1" parent="O084-kphwbLlVRHMXl9D-5" source="O084-kphwbLlVRHMXl9D-21" target="O084-kphwbLlVRHMXl9D-13">
          <mxGeometry relative="1" as="geometry" />
        </mxCell>
        <mxCell id="O084-kphwbLlVRHMXl9D-21" value="Landing" style="swimlane;startSize=23;" vertex="1" parent="O084-kphwbLlVRHMXl9D-5">
          <mxGeometry x="303" y="119" width="89" height="36" as="geometry" />
        </mxCell>
        <mxCell id="O084-kphwbLlVRHMXl9D-92" value="F)" style="text;html=1;align=center;verticalAlign=middle;resizable=0;points=[];autosize=1;strokeColor=none;fillColor=none;" vertex="1" parent="1">
          <mxGeometry y="1355" width="29" height="26" as="geometry" />
        </mxCell>
        <mxCell id="qXSClvjwhNBfKybeAUDC-1" value="In Flight" style="swimlane;startSize=23;" vertex="1" parent="1">
          <mxGeometry x="5" y="1383" width="786" height="405" as="geometry" />
        </mxCell>
        <mxCell id="qXSClvjwhNBfKybeAUDC-2" style="edgeStyle=orthogonalEdgeStyle;rounded=0;orthogonalLoop=1;jettySize=auto;html=1;entryX=0;entryY=0.5;entryDx=0;entryDy=0;" edge="1" parent="qXSClvjwhNBfKybeAUDC-1" source="qXSClvjwhNBfKybeAUDC-3" target="qXSClvjwhNBfKybeAUDC-5">
          <mxGeometry relative="1" as="geometry" />
        </mxCell>
        <mxCell id="qXSClvjwhNBfKybeAUDC-3" value="" style="ellipse;shape=doubleEllipse;html=1;dashed=0;whiteSpace=wrap;aspect=fixed;" vertex="1" parent="qXSClvjwhNBfKybeAUDC-1">
          <mxGeometry x="26" y="93" width="22" height="22" as="geometry" />
        </mxCell>
        <mxCell id="qXSClvjwhNBfKybeAUDC-4" style="edgeStyle=orthogonalEdgeStyle;rounded=0;orthogonalLoop=1;jettySize=auto;html=1;" edge="1" parent="qXSClvjwhNBfKybeAUDC-1" source="qXSClvjwhNBfKybeAUDC-5" target="qXSClvjwhNBfKybeAUDC-8">
          <mxGeometry relative="1" as="geometry" />
        </mxCell>
        <mxCell id="qXSClvjwhNBfKybeAUDC-5" value="" style="shape=collate;whiteSpace=wrap;html=1;" vertex="1" parent="qXSClvjwhNBfKybeAUDC-1">
          <mxGeometry x="90" y="90.5" width="30" height="27" as="geometry" />
        </mxCell>
        <mxCell id="qXSClvjwhNBfKybeAUDC-29" style="edgeStyle=orthogonalEdgeStyle;rounded=0;orthogonalLoop=1;jettySize=auto;html=1;entryX=0;entryY=0.5;entryDx=0;entryDy=0;" edge="1" parent="qXSClvjwhNBfKybeAUDC-1" source="qXSClvjwhNBfKybeAUDC-8" target="qXSClvjwhNBfKybeAUDC-27">
          <mxGeometry relative="1" as="geometry" />
        </mxCell>
        <mxCell id="qXSClvjwhNBfKybeAUDC-8" value="Dinner" style="swimlane;startSize=23;" vertex="1" parent="qXSClvjwhNBfKybeAUDC-1">
          <mxGeometry x="140" y="86" width="89" height="36" as="geometry" />
        </mxCell>
        <mxCell id="qXSClvjwhNBfKybeAUDC-9" value="" style="ellipse;html=1;shape=endState;fillColor=strokeColor;" vertex="1" parent="qXSClvjwhNBfKybeAUDC-1">
          <mxGeometry x="459" y="89" width="30" height="30" as="geometry" />
        </mxCell>
        <mxCell id="qXSClvjwhNBfKybeAUDC-10" value="3 h" style="text;html=1;align=center;verticalAlign=middle;resizable=0;points=[];autosize=1;strokeColor=none;fillColor=none;" vertex="1" parent="qXSClvjwhNBfKybeAUDC-1">
          <mxGeometry x="87.5" y="64.5" width="35" height="26" as="geometry" />
        </mxCell>
        <mxCell id="qXSClvjwhNBfKybeAUDC-13" value="" style="endArrow=none;dashed=1;html=1;dashPattern=1 3;strokeWidth=2;rounded=0;exitX=0;exitY=0.5;exitDx=0;exitDy=0;" edge="1" parent="qXSClvjwhNBfKybeAUDC-1">
          <mxGeometry width="50" height="50" relative="1" as="geometry">
            <mxPoint y="263" as="sourcePoint" />
            <mxPoint x="791" y="263" as="targetPoint" />
          </mxGeometry>
        </mxCell>
        <mxCell id="qXSClvjwhNBfKybeAUDC-12" value="" style="endArrow=none;dashed=1;html=1;dashPattern=1 3;strokeWidth=2;rounded=0;exitX=0;exitY=0.5;exitDx=0;exitDy=0;" edge="1" parent="qXSClvjwhNBfKybeAUDC-1">
          <mxGeometry width="50" height="50" relative="1" as="geometry">
            <mxPoint y="179" as="sourcePoint" />
            <mxPoint x="784" y="179" as="targetPoint" />
          </mxGeometry>
        </mxCell>
        <mxCell id="qXSClvjwhNBfKybeAUDC-35" style="edgeStyle=orthogonalEdgeStyle;rounded=0;orthogonalLoop=1;jettySize=auto;html=1;entryX=0;entryY=0.5;entryDx=0;entryDy=0;" edge="1" parent="qXSClvjwhNBfKybeAUDC-1" source="qXSClvjwhNBfKybeAUDC-27" target="qXSClvjwhNBfKybeAUDC-32">
          <mxGeometry relative="1" as="geometry" />
        </mxCell>
        <mxCell id="qXSClvjwhNBfKybeAUDC-27" value="" style="shape=collate;whiteSpace=wrap;html=1;" vertex="1" parent="qXSClvjwhNBfKybeAUDC-1">
          <mxGeometry x="260" y="90.5" width="30" height="27" as="geometry" />
        </mxCell>
        <mxCell id="qXSClvjwhNBfKybeAUDC-28" value="1h" style="text;html=1;align=center;verticalAlign=middle;resizable=0;points=[];autosize=1;strokeColor=none;fillColor=none;" vertex="1" parent="qXSClvjwhNBfKybeAUDC-1">
          <mxGeometry x="260" y="63" width="31" height="26" as="geometry" />
        </mxCell>
        <mxCell id="qXSClvjwhNBfKybeAUDC-36" style="edgeStyle=orthogonalEdgeStyle;rounded=0;orthogonalLoop=1;jettySize=auto;html=1;entryX=0;entryY=0.5;entryDx=0;entryDy=0;" edge="1" parent="qXSClvjwhNBfKybeAUDC-1" source="qXSClvjwhNBfKybeAUDC-32" target="qXSClvjwhNBfKybeAUDC-9">
          <mxGeometry relative="1" as="geometry" />
        </mxCell>
        <mxCell id="qXSClvjwhNBfKybeAUDC-32" value="Landing" style="swimlane;startSize=23;" vertex="1" parent="qXSClvjwhNBfKybeAUDC-1">
          <mxGeometry x="333" y="86" width="89" height="36" as="geometry" />
        </mxCell>
        <mxCell id="qXSClvjwhNBfKybeAUDC-37" style="edgeStyle=orthogonalEdgeStyle;rounded=0;orthogonalLoop=1;jettySize=auto;html=1;entryX=0;entryY=0.5;entryDx=0;entryDy=0;" edge="1" parent="qXSClvjwhNBfKybeAUDC-1" source="qXSClvjwhNBfKybeAUDC-38" target="qXSClvjwhNBfKybeAUDC-40">
          <mxGeometry relative="1" as="geometry" />
        </mxCell>
        <mxCell id="qXSClvjwhNBfKybeAUDC-38" value="" style="ellipse;shape=doubleEllipse;html=1;dashed=0;whiteSpace=wrap;aspect=fixed;" vertex="1" parent="qXSClvjwhNBfKybeAUDC-1">
          <mxGeometry x="15" y="218" width="22" height="22" as="geometry" />
        </mxCell>
        <mxCell id="qXSClvjwhNBfKybeAUDC-39" style="edgeStyle=orthogonalEdgeStyle;rounded=0;orthogonalLoop=1;jettySize=auto;html=1;" edge="1" parent="qXSClvjwhNBfKybeAUDC-1" source="qXSClvjwhNBfKybeAUDC-40" target="qXSClvjwhNBfKybeAUDC-42">
          <mxGeometry relative="1" as="geometry" />
        </mxCell>
        <mxCell id="qXSClvjwhNBfKybeAUDC-40" value="" style="shape=collate;whiteSpace=wrap;html=1;" vertex="1" parent="qXSClvjwhNBfKybeAUDC-1">
          <mxGeometry x="79" y="215.5" width="30" height="27" as="geometry" />
        </mxCell>
        <mxCell id="qXSClvjwhNBfKybeAUDC-41" style="edgeStyle=orthogonalEdgeStyle;rounded=0;orthogonalLoop=1;jettySize=auto;html=1;entryX=0;entryY=0.5;entryDx=0;entryDy=0;" edge="1" parent="qXSClvjwhNBfKybeAUDC-1" source="qXSClvjwhNBfKybeAUDC-42" target="qXSClvjwhNBfKybeAUDC-46">
          <mxGeometry relative="1" as="geometry" />
        </mxCell>
        <mxCell id="qXSClvjwhNBfKybeAUDC-42" value="Dinner" style="swimlane;startSize=23;" vertex="1" parent="qXSClvjwhNBfKybeAUDC-1">
          <mxGeometry x="129" y="211" width="89" height="36" as="geometry" />
        </mxCell>
        <mxCell id="qXSClvjwhNBfKybeAUDC-43" value="" style="ellipse;html=1;shape=endState;fillColor=strokeColor;" vertex="1" parent="qXSClvjwhNBfKybeAUDC-1">
          <mxGeometry x="448" y="214" width="30" height="30" as="geometry" />
        </mxCell>
        <mxCell id="qXSClvjwhNBfKybeAUDC-44" value="3 h" style="text;html=1;align=center;verticalAlign=middle;resizable=0;points=[];autosize=1;strokeColor=none;fillColor=none;" vertex="1" parent="qXSClvjwhNBfKybeAUDC-1">
          <mxGeometry x="76.5" y="189.5" width="35" height="26" as="geometry" />
        </mxCell>
        <mxCell id="qXSClvjwhNBfKybeAUDC-45" style="edgeStyle=orthogonalEdgeStyle;rounded=0;orthogonalLoop=1;jettySize=auto;html=1;entryX=0;entryY=0.5;entryDx=0;entryDy=0;" edge="1" parent="qXSClvjwhNBfKybeAUDC-1" source="qXSClvjwhNBfKybeAUDC-46" target="qXSClvjwhNBfKybeAUDC-49">
          <mxGeometry relative="1" as="geometry" />
        </mxCell>
        <mxCell id="qXSClvjwhNBfKybeAUDC-46" value="" style="shape=collate;whiteSpace=wrap;html=1;" vertex="1" parent="qXSClvjwhNBfKybeAUDC-1">
          <mxGeometry x="249" y="215.5" width="30" height="27" as="geometry" />
        </mxCell>
        <mxCell id="qXSClvjwhNBfKybeAUDC-47" value="later landing permission &amp;lt; 1h" style="text;html=1;align=center;verticalAlign=middle;resizable=0;points=[];autosize=1;strokeColor=none;fillColor=none;" vertex="1" parent="qXSClvjwhNBfKybeAUDC-1">
          <mxGeometry x="179" y="188" width="172" height="26" as="geometry" />
        </mxCell>
        <mxCell id="qXSClvjwhNBfKybeAUDC-48" style="edgeStyle=orthogonalEdgeStyle;rounded=0;orthogonalLoop=1;jettySize=auto;html=1;entryX=0;entryY=0.5;entryDx=0;entryDy=0;" edge="1" parent="qXSClvjwhNBfKybeAUDC-1" source="qXSClvjwhNBfKybeAUDC-49" target="qXSClvjwhNBfKybeAUDC-43">
          <mxGeometry relative="1" as="geometry" />
        </mxCell>
        <mxCell id="qXSClvjwhNBfKybeAUDC-49" value="Landing" style="swimlane;startSize=23;" vertex="1" parent="qXSClvjwhNBfKybeAUDC-1">
          <mxGeometry x="322" y="211" width="89" height="36" as="geometry" />
        </mxCell>
        <mxCell id="qXSClvjwhNBfKybeAUDC-50" style="edgeStyle=orthogonalEdgeStyle;rounded=0;orthogonalLoop=1;jettySize=auto;html=1;entryX=0;entryY=0.5;entryDx=0;entryDy=0;" edge="1" parent="qXSClvjwhNBfKybeAUDC-1" source="qXSClvjwhNBfKybeAUDC-51">
          <mxGeometry relative="1" as="geometry">
            <mxPoint x="79" y="331.9999999999998" as="targetPoint" />
          </mxGeometry>
        </mxCell>
        <mxCell id="qXSClvjwhNBfKybeAUDC-51" value="" style="ellipse;shape=doubleEllipse;html=1;dashed=0;whiteSpace=wrap;aspect=fixed;" vertex="1" parent="qXSClvjwhNBfKybeAUDC-1">
          <mxGeometry x="15" y="321" width="22" height="22" as="geometry" />
        </mxCell>
        <mxCell id="qXSClvjwhNBfKybeAUDC-52" style="edgeStyle=orthogonalEdgeStyle;rounded=0;orthogonalLoop=1;jettySize=auto;html=1;" edge="1" parent="qXSClvjwhNBfKybeAUDC-1" target="qXSClvjwhNBfKybeAUDC-55">
          <mxGeometry relative="1" as="geometry">
            <mxPoint x="109" y="332" as="sourcePoint" />
            <Array as="points">
              <mxPoint x="106" y="333" />
              <mxPoint x="106" y="377" />
            </Array>
          </mxGeometry>
        </mxCell>
        <mxCell id="qXSClvjwhNBfKybeAUDC-70" style="edgeStyle=orthogonalEdgeStyle;rounded=0;orthogonalLoop=1;jettySize=auto;html=1;" edge="1" parent="qXSClvjwhNBfKybeAUDC-1" source="qXSClvjwhNBfKybeAUDC-55" target="qXSClvjwhNBfKybeAUDC-69">
          <mxGeometry relative="1" as="geometry" />
        </mxCell>
        <mxCell id="qXSClvjwhNBfKybeAUDC-55" value="Normal" style="swimlane;startSize=23;" vertex="1" parent="qXSClvjwhNBfKybeAUDC-1">
          <mxGeometry x="196" y="359" width="89" height="36" as="geometry" />
        </mxCell>
        <mxCell id="qXSClvjwhNBfKybeAUDC-56" value="" style="ellipse;html=1;shape=endState;fillColor=strokeColor;" vertex="1" parent="qXSClvjwhNBfKybeAUDC-1">
          <mxGeometry x="437" y="362" width="30" height="30" as="geometry" />
        </mxCell>
        <mxCell id="qXSClvjwhNBfKybeAUDC-63" value="Damaged" style="swimlane;startSize=23;" vertex="1" parent="qXSClvjwhNBfKybeAUDC-1">
          <mxGeometry x="198" y="313" width="89" height="36" as="geometry" />
        </mxCell>
        <mxCell id="qXSClvjwhNBfKybeAUDC-66" value="" style="rhombus;whiteSpace=wrap;html=1;" vertex="1" parent="qXSClvjwhNBfKybeAUDC-1">
          <mxGeometry x="74.5" y="317" width="57" height="28" as="geometry" />
        </mxCell>
        <mxCell id="qXSClvjwhNBfKybeAUDC-67" style="edgeStyle=orthogonalEdgeStyle;rounded=0;orthogonalLoop=1;jettySize=auto;html=1;entryX=0;entryY=0.5;entryDx=0;entryDy=0;" edge="1" parent="qXSClvjwhNBfKybeAUDC-1" source="qXSClvjwhNBfKybeAUDC-66" target="qXSClvjwhNBfKybeAUDC-63">
          <mxGeometry relative="1" as="geometry">
            <mxPoint x="197" y="330" as="targetPoint" />
          </mxGeometry>
        </mxCell>
        <mxCell id="qXSClvjwhNBfKybeAUDC-71" style="edgeStyle=orthogonalEdgeStyle;rounded=0;orthogonalLoop=1;jettySize=auto;html=1;entryX=0;entryY=0.5;entryDx=0;entryDy=0;" edge="1" parent="qXSClvjwhNBfKybeAUDC-1" source="qXSClvjwhNBfKybeAUDC-69" target="qXSClvjwhNBfKybeAUDC-56">
          <mxGeometry relative="1" as="geometry" />
        </mxCell>
        <mxCell id="qXSClvjwhNBfKybeAUDC-69" value="Landing" style="swimlane;startSize=23;" vertex="1" parent="qXSClvjwhNBfKybeAUDC-1">
          <mxGeometry x="305" y="359" width="89" height="36" as="geometry" />
        </mxCell>
        <mxCell id="qXSClvjwhNBfKybeAUDC-68" value="malfunction" style="text;html=1;align=center;verticalAlign=middle;resizable=0;points=[];autosize=1;strokeColor=none;fillColor=none;" vertex="1" parent="1">
          <mxGeometry x="127" y="1687" width="79" height="26" as="geometry" />
        </mxCell>
        <mxCell id="qXSClvjwhNBfKybeAUDC-72" value="G)" style="text;html=1;align=center;verticalAlign=middle;resizable=0;points=[];autosize=1;strokeColor=none;fillColor=none;" vertex="1" parent="1">
          <mxGeometry x="5" y="1802" width="31" height="26" as="geometry" />
        </mxCell>
        <mxCell id="qXSClvjwhNBfKybeAUDC-83" style="edgeStyle=orthogonalEdgeStyle;rounded=0;orthogonalLoop=1;jettySize=auto;html=1;" edge="1" parent="1" source="qXSClvjwhNBfKybeAUDC-73" target="qXSClvjwhNBfKybeAUDC-74">
          <mxGeometry relative="1" as="geometry" />
        </mxCell>
        <mxCell id="qXSClvjwhNBfKybeAUDC-73" value="In Hangar" style="html=1;align=center;verticalAlign=top;rounded=1;absoluteArcSize=1;arcSize=10;dashed=0;whiteSpace=wrap;" vertex="1" parent="1">
          <mxGeometry x="281" y="1811" width="140" height="40" as="geometry" />
        </mxCell>
        <mxCell id="qXSClvjwhNBfKybeAUDC-84" style="edgeStyle=orthogonalEdgeStyle;rounded=0;orthogonalLoop=1;jettySize=auto;html=1;" edge="1" parent="1" source="qXSClvjwhNBfKybeAUDC-74" target="qXSClvjwhNBfKybeAUDC-75">
          <mxGeometry relative="1" as="geometry" />
        </mxCell>
        <mxCell id="qXSClvjwhNBfKybeAUDC-74" value="Boarding" style="html=1;align=center;verticalAlign=top;rounded=1;absoluteArcSize=1;arcSize=10;dashed=0;whiteSpace=wrap;" vertex="1" parent="1">
          <mxGeometry x="281" y="1875" width="140" height="40" as="geometry" />
        </mxCell>
        <mxCell id="qXSClvjwhNBfKybeAUDC-85" style="edgeStyle=orthogonalEdgeStyle;rounded=0;orthogonalLoop=1;jettySize=auto;html=1;" edge="1" parent="1" source="qXSClvjwhNBfKybeAUDC-75" target="qXSClvjwhNBfKybeAUDC-76">
          <mxGeometry relative="1" as="geometry" />
        </mxCell>
        <mxCell id="qXSClvjwhNBfKybeAUDC-75" value="Take Off" style="html=1;align=center;verticalAlign=top;rounded=1;absoluteArcSize=1;arcSize=10;dashed=0;whiteSpace=wrap;" vertex="1" parent="1">
          <mxGeometry x="281" y="1936" width="140" height="40" as="geometry" />
        </mxCell>
        <mxCell id="qXSClvjwhNBfKybeAUDC-86" style="edgeStyle=orthogonalEdgeStyle;rounded=0;orthogonalLoop=1;jettySize=auto;html=1;" edge="1" parent="1" source="qXSClvjwhNBfKybeAUDC-76" target="qXSClvjwhNBfKybeAUDC-77">
          <mxGeometry relative="1" as="geometry" />
        </mxCell>
        <mxCell id="qXSClvjwhNBfKybeAUDC-88" style="edgeStyle=orthogonalEdgeStyle;rounded=0;orthogonalLoop=1;jettySize=auto;html=1;" edge="1" parent="1" source="qXSClvjwhNBfKybeAUDC-76" target="qXSClvjwhNBfKybeAUDC-78">
          <mxGeometry relative="1" as="geometry" />
        </mxCell>
        <mxCell id="qXSClvjwhNBfKybeAUDC-90" style="edgeStyle=orthogonalEdgeStyle;rounded=0;orthogonalLoop=1;jettySize=auto;html=1;" edge="1" parent="1" source="qXSClvjwhNBfKybeAUDC-76" target="qXSClvjwhNBfKybeAUDC-79">
          <mxGeometry relative="1" as="geometry" />
        </mxCell>
        <mxCell id="qXSClvjwhNBfKybeAUDC-76" value="In Air" style="html=1;align=center;verticalAlign=top;rounded=1;absoluteArcSize=1;arcSize=10;dashed=0;whiteSpace=wrap;" vertex="1" parent="1">
          <mxGeometry x="281" y="1994" width="140" height="40" as="geometry" />
        </mxCell>
        <mxCell id="qXSClvjwhNBfKybeAUDC-87" style="edgeStyle=orthogonalEdgeStyle;rounded=0;orthogonalLoop=1;jettySize=auto;html=1;entryX=0.5;entryY=0;entryDx=0;entryDy=0;" edge="1" parent="1" source="qXSClvjwhNBfKybeAUDC-77" target="qXSClvjwhNBfKybeAUDC-82">
          <mxGeometry relative="1" as="geometry" />
        </mxCell>
        <mxCell id="qXSClvjwhNBfKybeAUDC-77" value="Dinner" style="html=1;align=center;verticalAlign=top;rounded=1;absoluteArcSize=1;arcSize=10;dashed=0;whiteSpace=wrap;" vertex="1" parent="1">
          <mxGeometry x="118" y="2057" width="140" height="40" as="geometry" />
        </mxCell>
        <mxCell id="qXSClvjwhNBfKybeAUDC-89" style="edgeStyle=orthogonalEdgeStyle;rounded=0;orthogonalLoop=1;jettySize=auto;html=1;" edge="1" parent="1" source="qXSClvjwhNBfKybeAUDC-78" target="qXSClvjwhNBfKybeAUDC-81">
          <mxGeometry relative="1" as="geometry" />
        </mxCell>
        <mxCell id="qXSClvjwhNBfKybeAUDC-78" value="Malfunction detected" style="html=1;align=center;verticalAlign=top;rounded=1;absoluteArcSize=1;arcSize=10;dashed=0;whiteSpace=wrap;" vertex="1" parent="1">
          <mxGeometry x="281" y="2057" width="140" height="40" as="geometry" />
        </mxCell>
        <mxCell id="qXSClvjwhNBfKybeAUDC-79" value="Landing permit" style="html=1;align=center;verticalAlign=top;rounded=1;absoluteArcSize=1;arcSize=10;dashed=0;whiteSpace=wrap;" vertex="1" parent="1">
          <mxGeometry x="450" y="2055" width="140" height="40" as="geometry" />
        </mxCell>
        <mxCell id="qXSClvjwhNBfKybeAUDC-80" value="Landing" style="html=1;align=center;verticalAlign=top;rounded=1;absoluteArcSize=1;arcSize=10;dashed=0;whiteSpace=wrap;" vertex="1" parent="1">
          <mxGeometry x="456" y="2124" width="140" height="40" as="geometry" />
        </mxCell>
        <mxCell id="qXSClvjwhNBfKybeAUDC-81" value="Damaged" style="html=1;align=center;verticalAlign=top;rounded=1;absoluteArcSize=1;arcSize=10;dashed=0;whiteSpace=wrap;" vertex="1" parent="1">
          <mxGeometry x="281" y="2127" width="140" height="40" as="geometry" />
        </mxCell>
        <mxCell id="qXSClvjwhNBfKybeAUDC-82" value="Continue Flight" style="html=1;align=center;verticalAlign=top;rounded=1;absoluteArcSize=1;arcSize=10;dashed=0;whiteSpace=wrap;" vertex="1" parent="1">
          <mxGeometry x="118" y="2132" width="140" height="40" as="geometry" />
        </mxCell>
        <mxCell id="qXSClvjwhNBfKybeAUDC-91" style="edgeStyle=orthogonalEdgeStyle;rounded=0;orthogonalLoop=1;jettySize=auto;html=1;entryX=0.461;entryY=0.045;entryDx=0;entryDy=0;entryPerimeter=0;" edge="1" parent="1" source="qXSClvjwhNBfKybeAUDC-79" target="qXSClvjwhNBfKybeAUDC-80">
          <mxGeometry relative="1" as="geometry" />
        </mxCell>
      </root>
    </mxGraphModel>
  </diagram>
  <diagram id="ZIdwHXPsd8EDTbOkBv6g" name="Task5">
    <mxGraphModel grid="1" page="1" gridSize="10" guides="1" tooltips="1" connect="1" arrows="1" fold="1" pageScale="1" pageWidth="850" pageHeight="1100" math="0" shadow="0">
      <root>
        <mxCell id="0" />
        <mxCell id="1" parent="0" />
        <mxCell id="kduB_21viTJujnnIk20C-1" value="A)" style="text;html=1;align=center;verticalAlign=middle;resizable=0;points=[];autosize=1;strokeColor=none;fillColor=none;" vertex="1" parent="1">
          <mxGeometry width="40" height="30" as="geometry" />
        </mxCell>
        <mxCell id="kduB_21viTJujnnIk20C-2" value="" style="rounded=0;whiteSpace=wrap;html=1;" vertex="1" parent="1">
          <mxGeometry x="70" width="730" height="770" as="geometry" />
        </mxCell>
        <mxCell id="kduB_21viTJujnnIk20C-3" style="edgeStyle=orthogonalEdgeStyle;rounded=0;orthogonalLoop=1;jettySize=auto;html=1;" edge="1" parent="1" source="kduB_21viTJujnnIk20C-5" target="kduB_21viTJujnnIk20C-8">
          <mxGeometry relative="1" as="geometry" />
        </mxCell>
        <mxCell id="kduB_21viTJujnnIk20C-4" value="listen()" style="edgeLabel;html=1;align=center;verticalAlign=middle;resizable=0;points=[];" connectable="0" vertex="1" parent="kduB_21viTJujnnIk20C-3">
          <mxGeometry x="-0.1067" y="1" relative="1" as="geometry">
            <mxPoint as="offset" />
          </mxGeometry>
        </mxCell>
        <mxCell id="kduB_21viTJujnnIk20C-5" value="Closed" style="rounded=1;whiteSpace=wrap;html=1;" vertex="1" parent="1">
          <mxGeometry x="350" y="130" width="120" height="60" as="geometry" />
        </mxCell>
        <mxCell id="kduB_21viTJujnnIk20C-6" style="edgeStyle=orthogonalEdgeStyle;rounded=0;orthogonalLoop=1;jettySize=auto;html=1;" edge="1" parent="1" source="kduB_21viTJujnnIk20C-8" target="kduB_21viTJujnnIk20C-11">
          <mxGeometry relative="1" as="geometry" />
        </mxCell>
        <mxCell id="kduB_21viTJujnnIk20C-7" value="SYN / SYN + ACK" style="edgeLabel;html=1;align=center;verticalAlign=middle;resizable=0;points=[];" connectable="0" vertex="1" parent="kduB_21viTJujnnIk20C-6">
          <mxGeometry x="0.0267" y="-2" relative="1" as="geometry">
            <mxPoint as="offset" />
          </mxGeometry>
        </mxCell>
        <mxCell id="kduB_21viTJujnnIk20C-8" value="Listen" style="rounded=1;whiteSpace=wrap;html=1;" vertex="1" parent="1">
          <mxGeometry x="350" y="250" width="120" height="60" as="geometry" />
        </mxCell>
        <mxCell id="kduB_21viTJujnnIk20C-9" style="edgeStyle=orthogonalEdgeStyle;rounded=0;orthogonalLoop=1;jettySize=auto;html=1;" edge="1" parent="1" source="kduB_21viTJujnnIk20C-11" target="kduB_21viTJujnnIk20C-16">
          <mxGeometry relative="1" as="geometry" />
        </mxCell>
        <mxCell id="kduB_21viTJujnnIk20C-10" value="ACK" style="edgeLabel;html=1;align=center;verticalAlign=middle;resizable=0;points=[];" connectable="0" vertex="1" parent="kduB_21viTJujnnIk20C-9">
          <mxGeometry x="-0.1067" relative="1" as="geometry">
            <mxPoint as="offset" />
          </mxGeometry>
        </mxCell>
        <mxCell id="kduB_21viTJujnnIk20C-11" value="SYN_Rcvd" style="rounded=1;whiteSpace=wrap;html=1;" vertex="1" parent="1">
          <mxGeometry x="350" y="370" width="120" height="60" as="geometry" />
        </mxCell>
        <mxCell id="kduB_21viTJujnnIk20C-12" style="edgeStyle=orthogonalEdgeStyle;rounded=0;orthogonalLoop=1;jettySize=auto;html=1;" edge="1" parent="1" source="kduB_21viTJujnnIk20C-16" target="kduB_21viTJujnnIk20C-19">
          <mxGeometry relative="1" as="geometry" />
        </mxCell>
        <mxCell id="kduB_21viTJujnnIk20C-13" value="close() / FIN" style="edgeLabel;html=1;align=center;verticalAlign=middle;resizable=0;points=[];" connectable="0" vertex="1" parent="kduB_21viTJujnnIk20C-12">
          <mxGeometry x="0.6457" y="-1" relative="1" as="geometry">
            <mxPoint as="offset" />
          </mxGeometry>
        </mxCell>
        <mxCell id="kduB_21viTJujnnIk20C-14" style="edgeStyle=orthogonalEdgeStyle;rounded=0;orthogonalLoop=1;jettySize=auto;html=1;" edge="1" parent="1" source="kduB_21viTJujnnIk20C-16" target="kduB_21viTJujnnIk20C-22">
          <mxGeometry relative="1" as="geometry" />
        </mxCell>
        <mxCell id="kduB_21viTJujnnIk20C-15" value="FIN" style="edgeLabel;html=1;align=center;verticalAlign=middle;resizable=0;points=[];" connectable="0" vertex="1" parent="kduB_21viTJujnnIk20C-14">
          <mxGeometry x="0.4743" y="-5" relative="1" as="geometry">
            <mxPoint as="offset" />
          </mxGeometry>
        </mxCell>
        <mxCell id="kduB_21viTJujnnIk20C-16" value="Established" style="rounded=1;whiteSpace=wrap;html=1;" vertex="1" parent="1">
          <mxGeometry x="350" y="490" width="120" height="60" as="geometry" />
        </mxCell>
        <mxCell id="kduB_21viTJujnnIk20C-17" style="edgeStyle=orthogonalEdgeStyle;rounded=0;orthogonalLoop=1;jettySize=auto;html=1;" edge="1" parent="1" source="kduB_21viTJujnnIk20C-19" target="2_yJJiI-LKay6W_VQOqk-122">
          <mxGeometry relative="1" as="geometry">
            <Array as="points">
              <mxPoint x="140" y="640" />
              <mxPoint x="140" y="60" />
              <mxPoint x="380" y="60" />
            </Array>
          </mxGeometry>
        </mxCell>
        <mxCell id="kduB_21viTJujnnIk20C-18" value="after(2s)" style="edgeLabel;html=1;align=center;verticalAlign=middle;resizable=0;points=[];" connectable="0" vertex="1" parent="kduB_21viTJujnnIk20C-17">
          <mxGeometry x="-0.7661" y="3" relative="1" as="geometry">
            <mxPoint as="offset" />
          </mxGeometry>
        </mxCell>
        <mxCell id="kduB_21viTJujnnIk20C-19" value="ActiveClose" style="rounded=1;whiteSpace=wrap;html=1;" vertex="1" parent="1">
          <mxGeometry x="170" y="610" width="120" height="60" as="geometry" />
        </mxCell>
        <mxCell id="kduB_21viTJujnnIk20C-20" style="edgeStyle=orthogonalEdgeStyle;rounded=0;orthogonalLoop=1;jettySize=auto;html=1;" edge="1" parent="1" source="kduB_21viTJujnnIk20C-22" target="2_yJJiI-LKay6W_VQOqk-122">
          <mxGeometry relative="1" as="geometry">
            <Array as="points">
              <mxPoint x="690" y="640" />
              <mxPoint x="690" y="60" />
              <mxPoint x="440" y="60" />
            </Array>
          </mxGeometry>
        </mxCell>
        <mxCell id="kduB_21viTJujnnIk20C-21" value="ACK" style="edgeLabel;html=1;align=center;verticalAlign=middle;resizable=0;points=[];" connectable="0" vertex="1" parent="kduB_21viTJujnnIk20C-20">
          <mxGeometry x="-0.6697" relative="1" as="geometry">
            <mxPoint as="offset" />
          </mxGeometry>
        </mxCell>
        <mxCell id="kduB_21viTJujnnIk20C-22" value="PassiveClose" style="rounded=1;whiteSpace=wrap;html=1;" vertex="1" parent="1">
          <mxGeometry x="530" y="610" width="120" height="60" as="geometry" />
        </mxCell>
        <mxCell id="2_yJJiI-LKay6W_VQOqk-123" style="edgeStyle=orthogonalEdgeStyle;rounded=0;orthogonalLoop=1;jettySize=auto;html=1;" edge="1" parent="1" source="kduB_21viTJujnnIk20C-24" target="2_yJJiI-LKay6W_VQOqk-122">
          <mxGeometry relative="1" as="geometry" />
        </mxCell>
        <mxCell id="kduB_21viTJujnnIk20C-24" value="" style="ellipse;fillColor=strokeColor;html=1;" vertex="1" parent="1">
          <mxGeometry x="395" y="10" width="30" height="30" as="geometry" />
        </mxCell>
        <mxCell id="2_yJJiI-LKay6W_VQOqk-1" value="B)" style="text;html=1;align=center;verticalAlign=middle;resizable=0;points=[];autosize=1;strokeColor=none;fillColor=none;" vertex="1" parent="1">
          <mxGeometry y="918" width="40" height="30" as="geometry" />
        </mxCell>
        <mxCell id="2_yJJiI-LKay6W_VQOqk-25" value="" style="rounded=0;whiteSpace=wrap;html=1;" vertex="1" parent="1">
          <mxGeometry x="285" y="918" width="250" height="480" as="geometry" />
        </mxCell>
        <mxCell id="2_yJJiI-LKay6W_VQOqk-26" style="edgeStyle=orthogonalEdgeStyle;rounded=0;orthogonalLoop=1;jettySize=auto;html=1;" edge="1" parent="1" source="2_yJJiI-LKay6W_VQOqk-28" target="2_yJJiI-LKay6W_VQOqk-32">
          <mxGeometry relative="1" as="geometry" />
        </mxCell>
        <mxCell id="2_yJJiI-LKay6W_VQOqk-27" value="SYN" style="edgeLabel;html=1;align=center;verticalAlign=middle;resizable=0;points=[];" connectable="0" vertex="1" parent="2_yJJiI-LKay6W_VQOqk-26">
          <mxGeometry x="-0.1" y="1" relative="1" as="geometry">
            <mxPoint y="-1" as="offset" />
          </mxGeometry>
        </mxCell>
        <mxCell id="2_yJJiI-LKay6W_VQOqk-28" value="Closed" style="rounded=1;whiteSpace=wrap;html=1;" vertex="1" parent="1">
          <mxGeometry x="345" y="978" width="120" height="60" as="geometry" />
        </mxCell>
        <mxCell id="2_yJJiI-LKay6W_VQOqk-29" value="Established" style="rounded=1;whiteSpace=wrap;html=1;" vertex="1" parent="1">
          <mxGeometry x="345" y="1318" width="120" height="60" as="geometry" />
        </mxCell>
        <mxCell id="2_yJJiI-LKay6W_VQOqk-30" style="edgeStyle=orthogonalEdgeStyle;rounded=0;orthogonalLoop=1;jettySize=auto;html=1;" edge="1" parent="1" source="2_yJJiI-LKay6W_VQOqk-32" target="2_yJJiI-LKay6W_VQOqk-29">
          <mxGeometry relative="1" as="geometry" />
        </mxCell>
        <mxCell id="2_yJJiI-LKay6W_VQOqk-31" value="SYN+ACK" style="edgeLabel;html=1;align=center;verticalAlign=middle;resizable=0;points=[];" connectable="0" vertex="1" parent="2_yJJiI-LKay6W_VQOqk-30">
          <mxGeometry x="-0.1032" y="-3" relative="1" as="geometry">
            <mxPoint y="1" as="offset" />
          </mxGeometry>
        </mxCell>
        <mxCell id="2_yJJiI-LKay6W_VQOqk-32" value="ActiveOpen" style="rounded=1;whiteSpace=wrap;html=1;" vertex="1" parent="1">
          <mxGeometry x="345" y="1118" width="120" height="60" as="geometry" />
        </mxCell>
        <mxCell id="2_yJJiI-LKay6W_VQOqk-33" value="C)" style="text;html=1;align=center;verticalAlign=middle;resizable=0;points=[];autosize=1;strokeColor=none;fillColor=none;" vertex="1" parent="1">
          <mxGeometry y="1520" width="40" height="30" as="geometry" />
        </mxCell>
        <mxCell id="2_yJJiI-LKay6W_VQOqk-34" value="" style="rounded=0;whiteSpace=wrap;html=1;" vertex="1" parent="1">
          <mxGeometry x="70" y="1520" width="850" height="710" as="geometry" />
        </mxCell>
        <mxCell id="2_yJJiI-LKay6W_VQOqk-35" style="edgeStyle=orthogonalEdgeStyle;rounded=0;orthogonalLoop=1;jettySize=auto;html=1;" edge="1" parent="1" source="2_yJJiI-LKay6W_VQOqk-127" target="2_yJJiI-LKay6W_VQOqk-41">
          <mxGeometry relative="1" as="geometry" />
        </mxCell>
        <mxCell id="2_yJJiI-LKay6W_VQOqk-36" value="listen()" style="edgeLabel;html=1;align=center;verticalAlign=middle;resizable=0;points=[];" connectable="0" vertex="1" parent="2_yJJiI-LKay6W_VQOqk-35">
          <mxGeometry x="-0.1067" y="1" relative="1" as="geometry">
            <mxPoint x="1" y="-8" as="offset" />
          </mxGeometry>
        </mxCell>
        <mxCell id="2_yJJiI-LKay6W_VQOqk-37" style="edgeStyle=orthogonalEdgeStyle;rounded=0;orthogonalLoop=1;jettySize=auto;html=1;" edge="1" parent="1" source="2_yJJiI-LKay6W_VQOqk-127" target="2_yJJiI-LKay6W_VQOqk-59">
          <mxGeometry relative="1" as="geometry">
            <Array as="points">
              <mxPoint x="440" y="1730" />
              <mxPoint x="670" y="1730" />
            </Array>
          </mxGeometry>
        </mxCell>
        <mxCell id="2_yJJiI-LKay6W_VQOqk-128" style="edgeStyle=orthogonalEdgeStyle;rounded=0;orthogonalLoop=1;jettySize=auto;html=1;" edge="1" parent="1" source="2_yJJiI-LKay6W_VQOqk-38" target="2_yJJiI-LKay6W_VQOqk-127">
          <mxGeometry relative="1" as="geometry" />
        </mxCell>
        <mxCell id="2_yJJiI-LKay6W_VQOqk-38" value="Closed" style="rounded=1;whiteSpace=wrap;html=1;" vertex="1" parent="1">
          <mxGeometry x="350" y="1630" width="120" height="60" as="geometry" />
        </mxCell>
        <mxCell id="2_yJJiI-LKay6W_VQOqk-39" style="edgeStyle=orthogonalEdgeStyle;rounded=0;orthogonalLoop=1;jettySize=auto;html=1;" edge="1" parent="1" source="2_yJJiI-LKay6W_VQOqk-41" target="2_yJJiI-LKay6W_VQOqk-44">
          <mxGeometry relative="1" as="geometry" />
        </mxCell>
        <mxCell id="2_yJJiI-LKay6W_VQOqk-40" value="SYN / SYN + ACK" style="edgeLabel;html=1;align=center;verticalAlign=middle;resizable=0;points=[];" connectable="0" vertex="1" parent="2_yJJiI-LKay6W_VQOqk-39">
          <mxGeometry x="0.0267" y="-2" relative="1" as="geometry">
            <mxPoint as="offset" />
          </mxGeometry>
        </mxCell>
        <mxCell id="2_yJJiI-LKay6W_VQOqk-41" value="Listen" style="rounded=1;whiteSpace=wrap;html=1;" vertex="1" parent="1">
          <mxGeometry x="350" y="1750" width="120" height="60" as="geometry" />
        </mxCell>
        <mxCell id="2_yJJiI-LKay6W_VQOqk-42" style="edgeStyle=orthogonalEdgeStyle;rounded=0;orthogonalLoop=1;jettySize=auto;html=1;" edge="1" parent="1" source="2_yJJiI-LKay6W_VQOqk-44" target="2_yJJiI-LKay6W_VQOqk-131">
          <mxGeometry relative="1" as="geometry" />
        </mxCell>
        <mxCell id="2_yJJiI-LKay6W_VQOqk-43" value="ACK" style="edgeLabel;html=1;align=center;verticalAlign=middle;resizable=0;points=[];" connectable="0" vertex="1" parent="2_yJJiI-LKay6W_VQOqk-42">
          <mxGeometry x="-0.1067" relative="1" as="geometry">
            <mxPoint y="-8" as="offset" />
          </mxGeometry>
        </mxCell>
        <mxCell id="2_yJJiI-LKay6W_VQOqk-44" value="SYN_Rcvd" style="rounded=1;whiteSpace=wrap;html=1;" vertex="1" parent="1">
          <mxGeometry x="350" y="1870" width="120" height="60" as="geometry" />
        </mxCell>
        <mxCell id="2_yJJiI-LKay6W_VQOqk-45" style="edgeStyle=orthogonalEdgeStyle;rounded=0;orthogonalLoop=1;jettySize=auto;html=1;" edge="1" parent="1" source="2_yJJiI-LKay6W_VQOqk-129" target="2_yJJiI-LKay6W_VQOqk-52">
          <mxGeometry relative="1" as="geometry">
            <Array as="points">
              <mxPoint x="370" y="2090" />
              <mxPoint x="230" y="2090" />
            </Array>
          </mxGeometry>
        </mxCell>
        <mxCell id="2_yJJiI-LKay6W_VQOqk-46" value="close() / FIN" style="edgeLabel;html=1;align=center;verticalAlign=middle;resizable=0;points=[];" connectable="0" vertex="1" parent="2_yJJiI-LKay6W_VQOqk-45">
          <mxGeometry x="0.6457" y="-1" relative="1" as="geometry">
            <mxPoint x="61" y="-7" as="offset" />
          </mxGeometry>
        </mxCell>
        <mxCell id="2_yJJiI-LKay6W_VQOqk-47" style="edgeStyle=orthogonalEdgeStyle;rounded=0;orthogonalLoop=1;jettySize=auto;html=1;" edge="1" parent="1" source="2_yJJiI-LKay6W_VQOqk-129" target="2_yJJiI-LKay6W_VQOqk-55">
          <mxGeometry relative="1" as="geometry">
            <Array as="points">
              <mxPoint x="450" y="2090" />
              <mxPoint x="580" y="2090" />
            </Array>
          </mxGeometry>
        </mxCell>
        <mxCell id="2_yJJiI-LKay6W_VQOqk-48" value="FIN" style="edgeLabel;html=1;align=center;verticalAlign=middle;resizable=0;points=[];" connectable="0" vertex="1" parent="2_yJJiI-LKay6W_VQOqk-47">
          <mxGeometry x="0.4743" y="-5" relative="1" as="geometry">
            <mxPoint x="-45" y="-5" as="offset" />
          </mxGeometry>
        </mxCell>
        <mxCell id="2_yJJiI-LKay6W_VQOqk-130" style="edgeStyle=orthogonalEdgeStyle;rounded=0;orthogonalLoop=1;jettySize=auto;html=1;" edge="1" parent="1" source="2_yJJiI-LKay6W_VQOqk-49" target="2_yJJiI-LKay6W_VQOqk-129">
          <mxGeometry relative="1" as="geometry" />
        </mxCell>
        <mxCell id="2_yJJiI-LKay6W_VQOqk-49" value="Established" style="rounded=1;whiteSpace=wrap;html=1;" vertex="1" parent="1">
          <mxGeometry x="350" y="1990" width="120" height="60" as="geometry" />
        </mxCell>
        <mxCell id="2_yJJiI-LKay6W_VQOqk-50" style="edgeStyle=orthogonalEdgeStyle;rounded=0;orthogonalLoop=1;jettySize=auto;html=1;" edge="1" parent="1" source="2_yJJiI-LKay6W_VQOqk-52" target="2_yJJiI-LKay6W_VQOqk-125">
          <mxGeometry relative="1" as="geometry">
            <Array as="points">
              <mxPoint x="140" y="2140" />
              <mxPoint x="140" y="1570" />
              <mxPoint x="370" y="1570" />
            </Array>
          </mxGeometry>
        </mxCell>
        <mxCell id="2_yJJiI-LKay6W_VQOqk-51" value="after(2s)" style="edgeLabel;html=1;align=center;verticalAlign=middle;resizable=0;points=[];" connectable="0" vertex="1" parent="2_yJJiI-LKay6W_VQOqk-50">
          <mxGeometry x="-0.7661" y="3" relative="1" as="geometry">
            <mxPoint as="offset" />
          </mxGeometry>
        </mxCell>
        <mxCell id="2_yJJiI-LKay6W_VQOqk-52" value="ActiveClose" style="rounded=1;whiteSpace=wrap;html=1;" vertex="1" parent="1">
          <mxGeometry x="170" y="2110" width="120" height="60" as="geometry" />
        </mxCell>
        <mxCell id="2_yJJiI-LKay6W_VQOqk-198" style="edgeStyle=orthogonalEdgeStyle;rounded=0;orthogonalLoop=1;jettySize=auto;html=1;" edge="1" parent="1" source="2_yJJiI-LKay6W_VQOqk-55" target="2_yJJiI-LKay6W_VQOqk-197">
          <mxGeometry relative="1" as="geometry" />
        </mxCell>
        <mxCell id="2_yJJiI-LKay6W_VQOqk-199" value="Close/FIN" style="edgeLabel;html=1;align=center;verticalAlign=middle;resizable=0;points=[];" connectable="0" vertex="1" parent="2_yJJiI-LKay6W_VQOqk-198">
          <mxGeometry x="-0.185" relative="1" as="geometry">
            <mxPoint as="offset" />
          </mxGeometry>
        </mxCell>
        <mxCell id="2_yJJiI-LKay6W_VQOqk-55" value="PassiveClose" style="rounded=1;whiteSpace=wrap;html=1;" vertex="1" parent="1">
          <mxGeometry x="530" y="2110" width="120" height="60" as="geometry" />
        </mxCell>
        <mxCell id="2_yJJiI-LKay6W_VQOqk-56" style="edgeStyle=orthogonalEdgeStyle;rounded=0;orthogonalLoop=1;jettySize=auto;html=1;" edge="1" parent="1" source="2_yJJiI-LKay6W_VQOqk-57" target="2_yJJiI-LKay6W_VQOqk-125">
          <mxGeometry relative="1" as="geometry" />
        </mxCell>
        <mxCell id="2_yJJiI-LKay6W_VQOqk-57" value="" style="ellipse;fillColor=strokeColor;html=1;" vertex="1" parent="1">
          <mxGeometry x="395" y="1530" width="30" height="30" as="geometry" />
        </mxCell>
        <mxCell id="2_yJJiI-LKay6W_VQOqk-58" style="edgeStyle=orthogonalEdgeStyle;rounded=0;orthogonalLoop=1;jettySize=auto;html=1;" edge="1" parent="1" source="2_yJJiI-LKay6W_VQOqk-59" target="2_yJJiI-LKay6W_VQOqk-131">
          <mxGeometry relative="1" as="geometry">
            <Array as="points">
              <mxPoint x="670" y="1940" />
              <mxPoint x="450" y="1940" />
            </Array>
          </mxGeometry>
        </mxCell>
        <mxCell id="2_yJJiI-LKay6W_VQOqk-59" value="ActiveOpen" style="rounded=1;whiteSpace=wrap;html=1;" vertex="1" parent="1">
          <mxGeometry x="610" y="1860" width="120" height="60" as="geometry" />
        </mxCell>
        <mxCell id="2_yJJiI-LKay6W_VQOqk-60" value="SYN" style="text;html=1;align=center;verticalAlign=middle;whiteSpace=wrap;rounded=0;" vertex="1" parent="1">
          <mxGeometry x="500" y="1700" width="60" height="30" as="geometry" />
        </mxCell>
        <mxCell id="2_yJJiI-LKay6W_VQOqk-61" value="SYN + ACK" style="text;html=1;align=center;verticalAlign=middle;whiteSpace=wrap;rounded=0;" vertex="1" parent="1">
          <mxGeometry x="670" y="1930" width="60" height="30" as="geometry" />
        </mxCell>
        <mxCell id="2_yJJiI-LKay6W_VQOqk-91" value="D)" style="text;html=1;align=center;verticalAlign=middle;resizable=0;points=[];autosize=1;strokeColor=none;fillColor=none;" vertex="1" parent="1">
          <mxGeometry y="2320" width="40" height="30" as="geometry" />
        </mxCell>
        <mxCell id="2_yJJiI-LKay6W_VQOqk-124" style="edgeStyle=orthogonalEdgeStyle;rounded=0;orthogonalLoop=1;jettySize=auto;html=1;" edge="1" parent="1" source="2_yJJiI-LKay6W_VQOqk-122" target="kduB_21viTJujnnIk20C-5">
          <mxGeometry relative="1" as="geometry" />
        </mxCell>
        <mxCell id="2_yJJiI-LKay6W_VQOqk-122" value="" style="html=1;points=[];perimeter=orthogonalPerimeter;fillColor=strokeColor;" vertex="1" parent="1">
          <mxGeometry x="355" y="90" width="110" height="10" as="geometry" />
        </mxCell>
        <mxCell id="2_yJJiI-LKay6W_VQOqk-126" style="edgeStyle=orthogonalEdgeStyle;rounded=0;orthogonalLoop=1;jettySize=auto;html=1;" edge="1" parent="1" source="2_yJJiI-LKay6W_VQOqk-125" target="2_yJJiI-LKay6W_VQOqk-38">
          <mxGeometry relative="1" as="geometry" />
        </mxCell>
        <mxCell id="2_yJJiI-LKay6W_VQOqk-125" value="" style="html=1;points=[];perimeter=orthogonalPerimeter;fillColor=strokeColor;" vertex="1" parent="1">
          <mxGeometry x="355" y="1590" width="110" height="10" as="geometry" />
        </mxCell>
        <mxCell id="2_yJJiI-LKay6W_VQOqk-127" value="" style="html=1;points=[];perimeter=orthogonalPerimeter;fillColor=strokeColor;" vertex="1" parent="1">
          <mxGeometry x="355" y="1710" width="110" height="10" as="geometry" />
        </mxCell>
        <mxCell id="2_yJJiI-LKay6W_VQOqk-129" value="" style="html=1;points=[];perimeter=orthogonalPerimeter;fillColor=strokeColor;" vertex="1" parent="1">
          <mxGeometry x="355" y="2070" width="110" height="10" as="geometry" />
        </mxCell>
        <mxCell id="2_yJJiI-LKay6W_VQOqk-132" style="edgeStyle=orthogonalEdgeStyle;rounded=0;orthogonalLoop=1;jettySize=auto;html=1;" edge="1" parent="1" source="2_yJJiI-LKay6W_VQOqk-131" target="2_yJJiI-LKay6W_VQOqk-49">
          <mxGeometry relative="1" as="geometry" />
        </mxCell>
        <mxCell id="2_yJJiI-LKay6W_VQOqk-131" value="" style="html=1;points=[];perimeter=orthogonalPerimeter;fillColor=strokeColor;" vertex="1" parent="1">
          <mxGeometry x="355" y="1960" width="110" height="10" as="geometry" />
        </mxCell>
        <mxCell id="2_yJJiI-LKay6W_VQOqk-133" value="" style="rounded=0;whiteSpace=wrap;html=1;" vertex="1" parent="1">
          <mxGeometry x="70" y="2320" width="990" height="980" as="geometry" />
        </mxCell>
        <mxCell id="2_yJJiI-LKay6W_VQOqk-134" style="edgeStyle=orthogonalEdgeStyle;rounded=0;orthogonalLoop=1;jettySize=auto;html=1;" edge="1" parent="1" source="2_yJJiI-LKay6W_VQOqk-165" target="2_yJJiI-LKay6W_VQOqk-141">
          <mxGeometry relative="1" as="geometry" />
        </mxCell>
        <mxCell id="2_yJJiI-LKay6W_VQOqk-135" value="listen()" style="edgeLabel;html=1;align=center;verticalAlign=middle;resizable=0;points=[];" connectable="0" vertex="1" parent="2_yJJiI-LKay6W_VQOqk-134">
          <mxGeometry x="-0.1067" y="1" relative="1" as="geometry">
            <mxPoint x="-6" y="2" as="offset" />
          </mxGeometry>
        </mxCell>
        <mxCell id="2_yJJiI-LKay6W_VQOqk-137" style="edgeStyle=orthogonalEdgeStyle;rounded=0;orthogonalLoop=1;jettySize=auto;html=1;" edge="1" parent="1" source="2_yJJiI-LKay6W_VQOqk-138" target="2_yJJiI-LKay6W_VQOqk-165">
          <mxGeometry relative="1" as="geometry" />
        </mxCell>
        <mxCell id="2_yJJiI-LKay6W_VQOqk-138" value="Closed" style="rounded=1;whiteSpace=wrap;html=1;" vertex="1" parent="1">
          <mxGeometry x="357.5" y="2430" width="120" height="60" as="geometry" />
        </mxCell>
        <mxCell id="2_yJJiI-LKay6W_VQOqk-141" value="Listen" style="rounded=1;whiteSpace=wrap;html=1;" vertex="1" parent="1">
          <mxGeometry x="357.5" y="2560" width="120" height="60" as="geometry" />
        </mxCell>
        <mxCell id="2_yJJiI-LKay6W_VQOqk-142" style="edgeStyle=orthogonalEdgeStyle;rounded=0;orthogonalLoop=1;jettySize=auto;html=1;" edge="1" parent="1" source="2_yJJiI-LKay6W_VQOqk-189" target="2_yJJiI-LKay6W_VQOqk-168">
          <mxGeometry relative="1" as="geometry">
            <mxPoint x="417.5" y="3050" as="sourcePoint" />
          </mxGeometry>
        </mxCell>
        <mxCell id="2_yJJiI-LKay6W_VQOqk-201" style="edgeStyle=orthogonalEdgeStyle;rounded=0;orthogonalLoop=1;jettySize=auto;html=1;" edge="1" parent="1" source="2_yJJiI-LKay6W_VQOqk-144" target="2_yJJiI-LKay6W_VQOqk-166">
          <mxGeometry relative="1" as="geometry">
            <Array as="points">
              <mxPoint x="317.5" y="2840" />
              <mxPoint x="317.5" y="3140" />
              <mxPoint x="387.5" y="3140" />
            </Array>
          </mxGeometry>
        </mxCell>
        <mxCell id="2_yJJiI-LKay6W_VQOqk-144" value="SYN_Rcvd" style="rounded=1;whiteSpace=wrap;html=1;" vertex="1" parent="1">
          <mxGeometry x="357.5" y="2810" width="120" height="60" as="geometry" />
        </mxCell>
        <mxCell id="2_yJJiI-LKay6W_VQOqk-147" style="edgeStyle=orthogonalEdgeStyle;rounded=0;orthogonalLoop=1;jettySize=auto;html=1;" edge="1" parent="1" source="2_yJJiI-LKay6W_VQOqk-166" target="2_yJJiI-LKay6W_VQOqk-172">
          <mxGeometry relative="1" as="geometry">
            <Array as="points">
              <mxPoint x="417.5" y="3190" />
              <mxPoint x="417.5" y="3190" />
            </Array>
          </mxGeometry>
        </mxCell>
        <mxCell id="2_yJJiI-LKay6W_VQOqk-148" value="FIN" style="edgeLabel;html=1;align=center;verticalAlign=middle;resizable=0;points=[];" connectable="0" vertex="1" parent="2_yJJiI-LKay6W_VQOqk-147">
          <mxGeometry x="0.4743" y="-5" relative="1" as="geometry">
            <mxPoint x="5" y="-14" as="offset" />
          </mxGeometry>
        </mxCell>
        <mxCell id="2_yJJiI-LKay6W_VQOqk-149" style="edgeStyle=orthogonalEdgeStyle;rounded=0;orthogonalLoop=1;jettySize=auto;html=1;" edge="1" parent="1" source="2_yJJiI-LKay6W_VQOqk-150" target="2_yJJiI-LKay6W_VQOqk-166">
          <mxGeometry relative="1" as="geometry" />
        </mxCell>
        <mxCell id="2_yJJiI-LKay6W_VQOqk-150" value="Established" style="rounded=1;whiteSpace=wrap;html=1;" vertex="1" parent="1">
          <mxGeometry x="357.5" y="3060" width="120" height="60" as="geometry" />
        </mxCell>
        <mxCell id="2_yJJiI-LKay6W_VQOqk-151" style="edgeStyle=orthogonalEdgeStyle;rounded=0;orthogonalLoop=1;jettySize=auto;html=1;" edge="1" parent="1" source="2_yJJiI-LKay6W_VQOqk-153" target="2_yJJiI-LKay6W_VQOqk-164">
          <mxGeometry relative="1" as="geometry">
            <Array as="points">
              <mxPoint x="140" y="2370" />
              <mxPoint x="390" y="2370" />
            </Array>
          </mxGeometry>
        </mxCell>
        <mxCell id="2_yJJiI-LKay6W_VQOqk-152" value="after(2s)" style="edgeLabel;html=1;align=center;verticalAlign=middle;resizable=0;points=[];" connectable="0" vertex="1" parent="2_yJJiI-LKay6W_VQOqk-151">
          <mxGeometry x="-0.7661" y="3" relative="1" as="geometry">
            <mxPoint as="offset" />
          </mxGeometry>
        </mxCell>
        <mxCell id="2_yJJiI-LKay6W_VQOqk-153" value="ActiveClose" style="rounded=1;whiteSpace=wrap;html=1;" vertex="1" parent="1">
          <mxGeometry x="80" y="3210" width="120" height="60" as="geometry" />
        </mxCell>
        <mxCell id="2_yJJiI-LKay6W_VQOqk-195" style="edgeStyle=orthogonalEdgeStyle;rounded=0;orthogonalLoop=1;jettySize=auto;html=1;" edge="1" parent="1" source="2_yJJiI-LKay6W_VQOqk-156" target="2_yJJiI-LKay6W_VQOqk-194">
          <mxGeometry relative="1" as="geometry" />
        </mxCell>
        <mxCell id="2_yJJiI-LKay6W_VQOqk-196" value="Close/FIN" style="edgeLabel;html=1;align=center;verticalAlign=middle;resizable=0;points=[];" connectable="0" vertex="1" parent="2_yJJiI-LKay6W_VQOqk-195">
          <mxGeometry x="-0.2421" y="1" relative="1" as="geometry">
            <mxPoint x="6" y="-9" as="offset" />
          </mxGeometry>
        </mxCell>
        <mxCell id="2_yJJiI-LKay6W_VQOqk-156" value="PassiveClose" style="rounded=1;whiteSpace=wrap;html=1;" vertex="1" parent="1">
          <mxGeometry x="617.5" y="3210" width="120" height="60" as="geometry" />
        </mxCell>
        <mxCell id="2_yJJiI-LKay6W_VQOqk-157" style="edgeStyle=orthogonalEdgeStyle;rounded=0;orthogonalLoop=1;jettySize=auto;html=1;" edge="1" parent="1" source="2_yJJiI-LKay6W_VQOqk-158" target="2_yJJiI-LKay6W_VQOqk-164">
          <mxGeometry relative="1" as="geometry" />
        </mxCell>
        <mxCell id="2_yJJiI-LKay6W_VQOqk-158" value="" style="ellipse;fillColor=strokeColor;html=1;" vertex="1" parent="1">
          <mxGeometry x="402.5" y="2330" width="30" height="30" as="geometry" />
        </mxCell>
        <mxCell id="2_yJJiI-LKay6W_VQOqk-159" style="edgeStyle=orthogonalEdgeStyle;rounded=0;orthogonalLoop=1;jettySize=auto;html=1;" edge="1" parent="1" source="2_yJJiI-LKay6W_VQOqk-192" target="2_yJJiI-LKay6W_VQOqk-168">
          <mxGeometry relative="1" as="geometry">
            <Array as="points">
              <mxPoint x="697.5" y="2990" />
              <mxPoint x="447.5" y="2990" />
            </Array>
          </mxGeometry>
        </mxCell>
        <mxCell id="2_yJJiI-LKay6W_VQOqk-160" value="ActiveOpen" style="rounded=1;whiteSpace=wrap;html=1;" vertex="1" parent="1">
          <mxGeometry x="637.5" y="2760" width="120" height="60" as="geometry" />
        </mxCell>
        <mxCell id="2_yJJiI-LKay6W_VQOqk-161" value="SYN" style="text;html=1;align=center;verticalAlign=middle;whiteSpace=wrap;rounded=0;" vertex="1" parent="1">
          <mxGeometry x="517.5" y="2510" width="60" height="30" as="geometry" />
        </mxCell>
        <mxCell id="2_yJJiI-LKay6W_VQOqk-162" value="SYN + ACK" style="text;html=1;align=center;verticalAlign=middle;whiteSpace=wrap;rounded=0;" vertex="1" parent="1">
          <mxGeometry x="687.5" y="2840" width="60" height="30" as="geometry" />
        </mxCell>
        <mxCell id="2_yJJiI-LKay6W_VQOqk-163" style="edgeStyle=orthogonalEdgeStyle;rounded=0;orthogonalLoop=1;jettySize=auto;html=1;" edge="1" parent="1" source="2_yJJiI-LKay6W_VQOqk-164" target="2_yJJiI-LKay6W_VQOqk-138">
          <mxGeometry relative="1" as="geometry" />
        </mxCell>
        <mxCell id="2_yJJiI-LKay6W_VQOqk-164" value="" style="html=1;points=[];perimeter=orthogonalPerimeter;fillColor=strokeColor;" vertex="1" parent="1">
          <mxGeometry x="362.5" y="2390" width="110" height="10" as="geometry" />
        </mxCell>
        <mxCell id="2_yJJiI-LKay6W_VQOqk-165" value="" style="html=1;points=[];perimeter=orthogonalPerimeter;fillColor=strokeColor;" vertex="1" parent="1">
          <mxGeometry x="362.5" y="2510" width="110" height="10" as="geometry" />
        </mxCell>
        <mxCell id="2_yJJiI-LKay6W_VQOqk-166" value="" style="html=1;points=[];perimeter=orthogonalPerimeter;fillColor=strokeColor;" vertex="1" parent="1">
          <mxGeometry x="362.5" y="3160" width="110" height="10" as="geometry" />
        </mxCell>
        <mxCell id="2_yJJiI-LKay6W_VQOqk-167" style="edgeStyle=orthogonalEdgeStyle;rounded=0;orthogonalLoop=1;jettySize=auto;html=1;" edge="1" parent="1" source="2_yJJiI-LKay6W_VQOqk-168" target="2_yJJiI-LKay6W_VQOqk-150">
          <mxGeometry relative="1" as="geometry">
            <Array as="points" />
          </mxGeometry>
        </mxCell>
        <mxCell id="2_yJJiI-LKay6W_VQOqk-168" value="" style="html=1;points=[];perimeter=orthogonalPerimeter;fillColor=strokeColor;" vertex="1" parent="1">
          <mxGeometry x="362.5" y="3020" width="110" height="10" as="geometry" />
        </mxCell>
        <mxCell id="2_yJJiI-LKay6W_VQOqk-170" value="" style="edgeStyle=orthogonalEdgeStyle;rounded=0;orthogonalLoop=1;jettySize=auto;html=1;" edge="1" parent="1" source="2_yJJiI-LKay6W_VQOqk-165" target="2_yJJiI-LKay6W_VQOqk-169">
          <mxGeometry relative="1" as="geometry">
            <Array as="points">
              <mxPoint x="457.5" y="2540" />
            </Array>
            <mxPoint x="447.5" y="2520" as="sourcePoint" />
            <mxPoint x="677.5" y="2660" as="targetPoint" />
          </mxGeometry>
        </mxCell>
        <mxCell id="2_yJJiI-LKay6W_VQOqk-171" style="edgeStyle=orthogonalEdgeStyle;rounded=0;orthogonalLoop=1;jettySize=auto;html=1;" edge="1" parent="1" source="2_yJJiI-LKay6W_VQOqk-169" target="2_yJJiI-LKay6W_VQOqk-160">
          <mxGeometry relative="1" as="geometry" />
        </mxCell>
        <mxCell id="2_yJJiI-LKay6W_VQOqk-169" value="Sent_SYN0" style="rounded=1;whiteSpace=wrap;html=1;" vertex="1" parent="1">
          <mxGeometry x="637.5" y="2510" width="120" height="60" as="geometry" />
        </mxCell>
        <mxCell id="2_yJJiI-LKay6W_VQOqk-175" style="edgeStyle=orthogonalEdgeStyle;rounded=0;orthogonalLoop=1;jettySize=auto;html=1;" edge="1" parent="1" source="2_yJJiI-LKay6W_VQOqk-172" target="2_yJJiI-LKay6W_VQOqk-156">
          <mxGeometry relative="1" as="geometry" />
        </mxCell>
        <mxCell id="2_yJJiI-LKay6W_VQOqk-202" style="edgeStyle=orthogonalEdgeStyle;rounded=0;orthogonalLoop=1;jettySize=auto;html=1;" edge="1" parent="1" source="2_yJJiI-LKay6W_VQOqk-172" target="2_yJJiI-LKay6W_VQOqk-153">
          <mxGeometry relative="1" as="geometry" />
        </mxCell>
        <mxCell id="2_yJJiI-LKay6W_VQOqk-203" value="close()" style="edgeLabel;html=1;align=center;verticalAlign=middle;resizable=0;points=[];" connectable="0" vertex="1" parent="2_yJJiI-LKay6W_VQOqk-202">
          <mxGeometry x="0.0906" y="2" relative="1" as="geometry">
            <mxPoint as="offset" />
          </mxGeometry>
        </mxCell>
        <mxCell id="2_yJJiI-LKay6W_VQOqk-172" value="Sent_FIN0" style="rounded=1;whiteSpace=wrap;html=1;" vertex="1" parent="1">
          <mxGeometry x="357.5" y="3210" width="120" height="60" as="geometry" />
        </mxCell>
        <mxCell id="2_yJJiI-LKay6W_VQOqk-186" style="edgeStyle=orthogonalEdgeStyle;rounded=0;orthogonalLoop=1;jettySize=auto;html=1;" edge="1" parent="1" source="2_yJJiI-LKay6W_VQOqk-176" target="2_yJJiI-LKay6W_VQOqk-185">
          <mxGeometry relative="1" as="geometry">
            <Array as="points">
              <mxPoint x="397.5" y="2720" />
            </Array>
          </mxGeometry>
        </mxCell>
        <mxCell id="2_yJJiI-LKay6W_VQOqk-176" value="Sent_SYN1" style="rounded=1;whiteSpace=wrap;html=1;" vertex="1" parent="1">
          <mxGeometry x="232.49999999999997" y="2690" width="120" height="60" as="geometry" />
        </mxCell>
        <mxCell id="2_yJJiI-LKay6W_VQOqk-187" style="edgeStyle=orthogonalEdgeStyle;rounded=0;orthogonalLoop=1;jettySize=auto;html=1;" edge="1" parent="1" source="2_yJJiI-LKay6W_VQOqk-177" target="2_yJJiI-LKay6W_VQOqk-185">
          <mxGeometry relative="1" as="geometry">
            <Array as="points">
              <mxPoint x="437.5" y="2720" />
            </Array>
          </mxGeometry>
        </mxCell>
        <mxCell id="2_yJJiI-LKay6W_VQOqk-177" value="Sent_SYN_ACK0" style="rounded=1;whiteSpace=wrap;html=1;" vertex="1" parent="1">
          <mxGeometry x="472.5" y="2690" width="120" height="60" as="geometry" />
        </mxCell>
        <mxCell id="2_yJJiI-LKay6W_VQOqk-180" style="edgeStyle=orthogonalEdgeStyle;rounded=0;orthogonalLoop=1;jettySize=auto;html=1;" edge="1" parent="1" source="2_yJJiI-LKay6W_VQOqk-178" target="2_yJJiI-LKay6W_VQOqk-176">
          <mxGeometry relative="1" as="geometry">
            <Array as="points">
              <mxPoint x="377.5" y="2670" />
              <mxPoint x="292.5" y="2670" />
            </Array>
          </mxGeometry>
        </mxCell>
        <mxCell id="2_yJJiI-LKay6W_VQOqk-182" value="SYN" style="edgeLabel;html=1;align=center;verticalAlign=middle;resizable=0;points=[];" connectable="0" vertex="1" parent="2_yJJiI-LKay6W_VQOqk-180">
          <mxGeometry x="-0.2498" y="1" relative="1" as="geometry">
            <mxPoint x="-3" y="-11" as="offset" />
          </mxGeometry>
        </mxCell>
        <mxCell id="2_yJJiI-LKay6W_VQOqk-181" style="edgeStyle=orthogonalEdgeStyle;rounded=0;orthogonalLoop=1;jettySize=auto;html=1;" edge="1" parent="1" source="2_yJJiI-LKay6W_VQOqk-178" target="2_yJJiI-LKay6W_VQOqk-177">
          <mxGeometry relative="1" as="geometry">
            <Array as="points">
              <mxPoint x="457.5" y="2670" />
              <mxPoint x="532.5" y="2670" />
            </Array>
          </mxGeometry>
        </mxCell>
        <mxCell id="2_yJJiI-LKay6W_VQOqk-183" value="SYN + ACK" style="edgeLabel;html=1;align=center;verticalAlign=middle;resizable=0;points=[];" connectable="0" vertex="1" parent="2_yJJiI-LKay6W_VQOqk-181">
          <mxGeometry x="-0.1841" relative="1" as="geometry">
            <mxPoint x="17" y="-10" as="offset" />
          </mxGeometry>
        </mxCell>
        <mxCell id="2_yJJiI-LKay6W_VQOqk-178" value="" style="html=1;points=[];perimeter=orthogonalPerimeter;fillColor=strokeColor;" vertex="1" parent="1">
          <mxGeometry x="362.5" y="2640" width="110" height="10" as="geometry" />
        </mxCell>
        <mxCell id="2_yJJiI-LKay6W_VQOqk-179" style="edgeStyle=orthogonalEdgeStyle;rounded=0;orthogonalLoop=1;jettySize=auto;html=1;" edge="1" parent="1" source="2_yJJiI-LKay6W_VQOqk-141" target="2_yJJiI-LKay6W_VQOqk-178">
          <mxGeometry relative="1" as="geometry" />
        </mxCell>
        <mxCell id="2_yJJiI-LKay6W_VQOqk-188" style="edgeStyle=orthogonalEdgeStyle;rounded=0;orthogonalLoop=1;jettySize=auto;html=1;" edge="1" parent="1" source="2_yJJiI-LKay6W_VQOqk-185" target="2_yJJiI-LKay6W_VQOqk-144">
          <mxGeometry relative="1" as="geometry" />
        </mxCell>
        <mxCell id="2_yJJiI-LKay6W_VQOqk-185" value="" style="html=1;points=[];perimeter=orthogonalPerimeter;fillColor=strokeColor;" vertex="1" parent="1">
          <mxGeometry x="362.5" y="2770" width="110" height="10" as="geometry" />
        </mxCell>
        <mxCell id="2_yJJiI-LKay6W_VQOqk-190" value="" style="edgeStyle=orthogonalEdgeStyle;rounded=0;orthogonalLoop=1;jettySize=auto;html=1;" edge="1" parent="1" source="2_yJJiI-LKay6W_VQOqk-144" target="2_yJJiI-LKay6W_VQOqk-189">
          <mxGeometry relative="1" as="geometry">
            <mxPoint x="417.5" y="2870" as="sourcePoint" />
            <mxPoint x="417.5" y="3050" as="targetPoint" />
          </mxGeometry>
        </mxCell>
        <mxCell id="2_yJJiI-LKay6W_VQOqk-191" value="ACK" style="edgeLabel;html=1;align=center;verticalAlign=middle;resizable=0;points=[];" connectable="0" vertex="1" parent="2_yJJiI-LKay6W_VQOqk-190">
          <mxGeometry x="-0.1067" relative="1" as="geometry">
            <mxPoint y="-8" as="offset" />
          </mxGeometry>
        </mxCell>
        <mxCell id="2_yJJiI-LKay6W_VQOqk-189" value="Sent_ACK0" style="rounded=1;whiteSpace=wrap;html=1;" vertex="1" parent="1">
          <mxGeometry x="357.5" y="2920" width="120" height="60" as="geometry" />
        </mxCell>
        <mxCell id="2_yJJiI-LKay6W_VQOqk-193" value="" style="edgeStyle=orthogonalEdgeStyle;rounded=0;orthogonalLoop=1;jettySize=auto;html=1;" edge="1" parent="1" source="2_yJJiI-LKay6W_VQOqk-160" target="2_yJJiI-LKay6W_VQOqk-192">
          <mxGeometry relative="1" as="geometry">
            <Array as="points" />
            <mxPoint x="677.5" y="2820" as="sourcePoint" />
            <mxPoint x="472.5" y="3055" as="targetPoint" />
          </mxGeometry>
        </mxCell>
        <mxCell id="2_yJJiI-LKay6W_VQOqk-192" value="Sent_SYN_ACK1" style="rounded=1;whiteSpace=wrap;html=1;" vertex="1" parent="1">
          <mxGeometry x="637.5" y="2910" width="120" height="60" as="geometry" />
        </mxCell>
        <mxCell id="2_yJJiI-LKay6W_VQOqk-194" value="" style="ellipse;html=1;shape=endState;fillColor=strokeColor;" vertex="1" parent="1">
          <mxGeometry x="867.5" y="3225" width="30" height="30" as="geometry" />
        </mxCell>
        <mxCell id="2_yJJiI-LKay6W_VQOqk-197" value="" style="ellipse;html=1;shape=endState;fillColor=strokeColor;" vertex="1" parent="1">
          <mxGeometry x="730" y="2125" width="30" height="30" as="geometry" />
        </mxCell>
      </root>
    </mxGraphModel>
  </diagram>
</mxfile>
